AwamiNastaliq-Regular.ufo
<glyph name="exclam" format="2">
  <advance width="682"/>
  <unicode hex="0021"/>
  <outline>
    <contour>
      <point x="455" y="1244" type="curve" smooth="yes"/>
      <point x="455" y="1344"/>
      <point x="393" y="1389"/>
      <point x="343" y="1389" type="curve" smooth="yes"/>
      <point x="278" y="1389"/>
      <point x="227" y="1337"/>
      <point x="227" y="1248" type="curve" smooth="yes"/>
      <point x="227" y="1233"/>
      <point x="252" y="947"/>
      <point x="280" y="742" type="curve" smooth="yes"/>
      <point x="293" y="648"/>
      <point x="321" y="516"/>
      <point x="321" y="362" type="curve" smooth="yes"/>
      <point x="321" y="359"/>
      <point x="334" y="356"/>
      <point x="341" y="356" type="curve" smooth="yes"/>
      <point x="348" y="356"/>
      <point x="361" y="359"/>
      <point x="361" y="362" type="curve" smooth="yes"/>
      <point x="361" y="514"/>
      <point x="390" y="647"/>
      <point x="403" y="738" type="curve" smooth="yes"/>
      <point x="468" y="1195"/>
      <point x="455" y="1227"/>
    </contour>
    <contour>
      <point x="451" y="85" type="curve" smooth="yes"/>
      <point x="451" y="152"/>
      <point x="393" y="193"/>
      <point x="342" y="193" type="curve" smooth="yes"/>
      <point x="290" y="193"/>
      <point x="229" y="156"/>
      <point x="229" y="85" type="curve" smooth="yes"/>
      <point x="229" y="3"/>
      <point x="296" y="-30"/>
      <point x="342" y="-30" type="curve" smooth="yes"/>
      <point x="400" y="-30"/>
      <point x="451" y="22"/>
    </contour>
  </outline>
</glyph>
<glyph name="dollar" format="2">
  <advance width="1026"/>
  <unicode hex="0024"/>
  <outline>
    <contour>
      <point x="463" y="-156" type="line"/>
      <point x="527" y="-156" type="line"/>
      <point x="527" y="-30" type="line"/>
      <point x="731" y="-20"/>
      <point x="922" y="120"/>
      <point x="922" y="337" type="curve" smooth="yes"/>
      <point x="922" y="520"/>
      <point x="822" y="593"/>
      <point x="527" y="805" type="curve"/>
      <point x="527" y="1313" type="line"/>
      <point x="728" y="1294"/>
      <point x="804" y="1180"/>
      <point x="819" y="991" type="curve"/>
      <point x="858" y="991" type="line"/>
      <point x="858" y="1291" type="line"/>
      <point x="732" y="1340"/>
      <point x="664" y="1376"/>
      <point x="527" y="1381" type="curve"/>
      <point x="527" y="1473" type="line"/>
      <point x="463" y="1473" type="line"/>
      <point x="463" y="1381" type="line"/>
      <point x="327" y="1372"/>
      <point x="109" y="1283"/>
      <point x="109" y="1056" type="curve" smooth="yes"/>
      <point x="109" y="858"/>
      <point x="239" y="767"/>
      <point x="463" y="621" type="curve"/>
      <point x="463" y="38" type="line"/>
      <point x="269" y="55"/>
      <point x="166" y="146"/>
      <point x="152" y="335" type="curve"/>
      <point x="109" y="335" type="line"/>
      <point x="109" y="51" type="line"/>
      <point x="204" y="10"/>
      <point x="346" y="-24"/>
      <point x="463" y="-30" type="curve"/>
    </contour>
    <contour>
      <point x="527" y="38" type="curve"/>
      <point x="527" y="577" type="line"/>
      <point x="678" y="471"/>
      <point x="764" y="406"/>
      <point x="764" y="289" type="curve" smooth="yes"/>
      <point x="764" y="107"/>
      <point x="600" y="43"/>
    </contour>
    <contour>
      <point x="463" y="849" type="line"/>
      <point x="391" y="894"/>
      <point x="264" y="979"/>
      <point x="264" y="1118" type="curve" smooth="yes"/>
      <point x="264" y="1272"/>
      <point x="398" y="1304"/>
      <point x="463" y="1313" type="curve"/>
    </contour>
  </outline>
</glyph>
<glyph name="quotesingle" format="2">
  <advance width="371"/>
  <unicode hex="0027"/>
  <outline>
    <contour>
      <point x="286" y="1281" type="curve"/>
      <point x="286" y="1328"/>
      <point x="254" y="1389"/>
      <point x="179" y="1389" type="curve" smooth="yes"/>
      <point x="116" y="1389"/>
      <point x="85" y="1350"/>
      <point x="85" y="1267" type="curve" smooth="yes"/>
      <point x="85" y="1239"/>
      <point x="90" y="1183"/>
      <point x="107" y="1101" type="curve" smooth="yes"/>
      <point x="160" y="805" type="line"/>
      <point x="205" y="805" type="line"/>
      <point x="258" y="1098" type="line" smooth="yes"/>
      <point x="276" y="1197"/>
      <point x="286" y="1258"/>
    </contour>
  </outline>
</glyph>
<glyph name="comma" format="2">
  <advance width="512"/>
  <unicode hex="002C"/>
  <outline>
    <contour>
      <point x="408" y="-10" type="curve"/>
      <point x="408" y="128"/>
      <point x="319" y="199"/>
      <point x="241" y="199" type="curve" smooth="yes"/>
      <point x="171" y="199"/>
      <point x="112" y="154"/>
      <point x="112" y="83" type="curve" smooth="yes"/>
      <point x="112" y="3"/>
      <point x="162" y="-30"/>
      <point x="217" y="-30" type="curve" smooth="yes"/>
      <point x="248" y="-30"/>
      <point x="273" y="0"/>
      <point x="304" y="0" type="curve" smooth="yes"/>
      <point x="321" y="0"/>
      <point x="325" y="-24"/>
      <point x="325" y="-39" type="curve" smooth="yes"/>
      <point x="325" y="-171"/>
      <point x="212" y="-269"/>
      <point x="112" y="-297" type="curve"/>
      <point x="112" y="-343" type="line"/>
      <point x="269" y="-289"/>
      <point x="408" y="-181"/>
    </contour>
  </outline>
</glyph>
<glyph name="slash" format="2">
  <advance width="570"/>
  <unicode hex="002F"/>
  <outline>
    <contour>
      <point x="95" y="-30" type="line"/>
      <point x="584" y="1424" type="line"/>
      <point x="505" y="1424" type="line"/>
      <point x="11" y="-30" type="line"/>
    </contour>
  </outline>
</glyph>
<glyph name="two" format="2">
  <advance width="1026"/>
  <unicode hex="0032"/>
  <anchor x="493" y="-100" name="L"/>
  <anchor x="493" y="1435" name="U"/>
  <outline>
    <contour>
      <point x="45" y="0" type="line"/>
      <point x="844" y="0" type="line"/>
      <point x="941" y="260" type="line"/>
      <point x="904" y="260" type="line"/>
      <point x="843" y="172"/>
      <point x="817" y="152"/>
      <point x="613" y="152" type="curve" smooth="yes"/>
      <point x="258" y="152" type="line"/>
      <point x="299" y="191"/>
      <point x="401" y="297"/>
      <point x="568" y="480" type="curve"/>
      <point x="683" y="602"/>
      <point x="856" y="817"/>
      <point x="858" y="1029" type="curve"/>
      <point x="858" y="1250"/>
      <point x="662" y="1387"/>
      <point x="469" y="1387" type="curve" smooth="yes"/>
      <point x="171" y="1387"/>
      <point x="101" y="1123"/>
      <point x="85" y="1004" type="curve"/>
      <point x="120" y="1004" type="line"/>
      <point x="147" y="1079"/>
      <point x="226" y="1233"/>
      <point x="419" y="1233" type="curve" smooth="yes"/>
      <point x="503" y="1233"/>
      <point x="687" y="1167"/>
      <point x="687" y="936" type="curve" smooth="yes"/>
      <point x="687" y="825"/>
      <point x="639" y="702"/>
      <point x="543" y="565" type="curve"/>
      <point x="446" y="424"/>
      <point x="280" y="253"/>
      <point x="45" y="38" type="curve"/>
    </contour>
  </outline>
</glyph>
<glyph name="six" format="2">
  <advance width="1026"/>
  <unicode hex="0036"/>
  <anchor x="519" y="-100" name="L"/>
  <anchor x="519" y="1435" name="U"/>
  <outline>
    <contour>
      <point x="919" y="1349" type="curve"/>
      <point x="919" y="1387" type="line"/>
      <point x="861" y="1387" type="line" smooth="yes"/>
      <point x="504" y="1387"/>
      <point x="89" y="1026"/>
      <point x="89" y="532" type="curve" smooth="yes"/>
      <point x="89" y="232"/>
      <point x="264" y="-24"/>
      <point x="515" y="-24" type="curve" smooth="yes"/>
      <point x="781" y="-24"/>
      <point x="946" y="217"/>
      <point x="946" y="458" type="curve" smooth="yes"/>
      <point x="946" y="755"/>
      <point x="726" y="858"/>
      <point x="604" y="858" type="curve" smooth="yes"/>
      <point x="507" y="858"/>
      <point x="410" y="824"/>
      <point x="314" y="757" type="curve"/>
      <point x="386" y="1063"/>
      <point x="597" y="1333"/>
    </contour>
    <contour>
      <point x="544" y="32" type="curve"/>
      <point x="375" y="28"/>
      <point x="278" y="282"/>
      <point x="278" y="467" type="curve" smooth="yes"/>
      <point x="278" y="523"/>
      <point x="286" y="596"/>
      <point x="297" y="684" type="curve"/>
      <point x="356" y="720"/>
      <point x="426" y="772"/>
      <point x="506" y="772" type="curve" smooth="yes"/>
      <point x="690" y="772"/>
      <point x="767" y="559"/>
      <point x="767" y="348" type="curve" smooth="yes"/>
      <point x="767" y="144"/>
      <point x="663" y="37"/>
    </contour>
  </outline>
</glyph>
<glyph name="colon" format="2">
  <advance width="573"/>
  <unicode hex="003A"/>
  <outline>
    <contour>
      <point x="398" y="834" type="curve"/>
      <point x="398" y="897"/>
      <point x="346" y="944"/>
      <point x="289" y="944" type="curve" smooth="yes"/>
      <point x="227" y="944"/>
      <point x="175" y="897"/>
      <point x="175" y="834" type="curve" smooth="yes"/>
      <point x="175" y="774"/>
      <point x="227" y="724"/>
      <point x="289" y="724" type="curve" smooth="yes"/>
      <point x="342" y="724"/>
      <point x="398" y="767"/>
    </contour>
    <contour>
      <point x="398" y="85" type="curve"/>
      <point x="398" y="154"/>
      <point x="335" y="195"/>
      <point x="286" y="195" type="curve" smooth="yes"/>
      <point x="237" y="195"/>
      <point x="174" y="158"/>
      <point x="174" y="85" type="curve" smooth="yes"/>
      <point x="174" y="17"/>
      <point x="229" y="-30"/>
      <point x="286" y="-30" type="curve" smooth="yes"/>
      <point x="342" y="-30"/>
      <point x="398" y="15"/>
    </contour>
  </outline>
</glyph>
<glyph name="at" format="2">
  <advance width="1889"/>
  <unicode hex="0040"/>
  <outline>
    <contour>
      <point x="971" y="-444" type="curve" smooth="yes"/>
      <point x="1524" y="-444"/>
      <point x="1786" y="-15"/>
      <point x="1838" y="171" type="curve"/>
      <point x="1780" y="171" type="line"/>
      <point x="1702" y="-8"/>
      <point x="1482" y="-381"/>
      <point x="976" y="-381" type="curve" smooth="yes"/>
      <point x="444" y="-381"/>
      <point x="192" y="15"/>
      <point x="192" y="419" type="curve" smooth="yes"/>
      <point x="192" y="981"/>
      <point x="588" y="1372"/>
      <point x="1050" y="1372" type="curve" smooth="yes"/>
      <point x="1405" y="1372"/>
      <point x="1697" y="1142"/>
      <point x="1697" y="757" type="curve" smooth="yes"/>
      <point x="1697" y="345"/>
      <point x="1434" y="102"/>
      <point x="1275" y="102" type="curve" smooth="yes"/>
      <point x="1213" y="102"/>
      <point x="1198" y="158"/>
      <point x="1198" y="177" type="curve" smooth="yes"/>
      <point x="1198" y="239"/>
      <point x="1250" y="408"/>
      <point x="1408" y="960" type="curve"/>
      <point x="1251" y="936" type="line"/>
      <point x="1220" y="827" type="line"/>
      <point x="1211" y="874"/>
      <point x="1174" y="966"/>
      <point x="1046" y="966" type="curve" smooth="yes"/>
      <point x="820" y="966"/>
      <point x="497" y="589"/>
      <point x="497" y="262" type="curve" smooth="yes"/>
      <point x="497" y="118"/>
      <point x="583" y="32"/>
      <point x="676" y="32" type="curve" smooth="yes"/>
      <point x="830" y="32"/>
      <point x="973" y="197"/>
      <point x="1071" y="316" type="curve"/>
      <point x="1043" y="154"/>
      <point x="1034" y="32"/>
      <point x="1206" y="32" type="curve" smooth="yes"/>
      <point x="1517" y="32"/>
      <point x="1758" y="343"/>
      <point x="1758" y="737" type="curve" smooth="yes"/>
      <point x="1758" y="1186"/>
      <point x="1434" y="1424"/>
      <point x="1043" y="1424" type="curve" smooth="yes"/>
      <point x="607" y="1424"/>
      <point x="97" y="1090"/>
      <point x="97" y="446" type="curve" smooth="yes"/>
      <point x="97" y="28"/>
      <point x="389" y="-444"/>
    </contour>
    <contour>
      <point x="769" y="152" type="curve" smooth="yes"/>
      <point x="720" y="152"/>
      <point x="654" y="197"/>
      <point x="654" y="294" type="curve" smooth="yes"/>
      <point x="654" y="466"/>
      <point x="861" y="919"/>
      <point x="1059" y="919" type="curve" smooth="yes"/>
      <point x="1186" y="919"/>
      <point x="1228" y="767"/>
      <point x="1127" y="515" type="curve"/>
      <point x="1059" y="339"/>
      <point x="902" y="152"/>
    </contour>
  </outline>
</glyph>
<glyph name="A" format="2">
  <advance width="1473"/>
  <unicode hex="0041"/>
  <anchor x="744" y="-112" name="L"/>
  <anchor x="735" y="1435" name="U"/>
  <outline>
    <contour>
      <point x="1457" y="-3" type="line"/>
      <point x="1457" y="38" type="line"/>
      <point x="1343" y="46"/>
      <point x="1306" y="69"/>
      <point x="1225" y="260" type="curve"/>
      <point x="753" y="1389" type="line"/>
      <point x="718" y="1389" type="line"/>
      <point x="241" y="270" type="line"/>
      <point x="176" y="122"/>
      <point x="131" y="46"/>
      <point x="15" y="38" type="curve"/>
      <point x="15" y="0" type="line"/>
      <point x="444" y="0" type="line"/>
      <point x="444" y="38" type="line"/>
      <point x="255" y="54"/>
      <point x="268" y="116"/>
      <point x="320" y="239" type="curve" smooth="yes"/>
      <point x="351" y="311"/>
      <point x="381" y="383"/>
      <point x="412" y="455" type="curve"/>
      <point x="938" y="455" type="line"/>
      <point x="965" y="390"/>
      <point x="993" y="325"/>
      <point x="1020" y="260" type="curve"/>
      <point x="1064" y="151"/>
      <point x="1112" y="41"/>
      <point x="922" y="38" type="curve"/>
      <point x="922" y="0" type="line"/>
    </contour>
    <contour>
      <point x="444" y="528" type="line"/>
      <point x="681" y="1079" type="line"/>
      <point x="911" y="528" type="line"/>
    </contour>
  </outline>
</glyph>
<glyph name="C" format="2">
  <advance width="1368"/>
  <unicode hex="0043"/>
  <anchor x="684" y="0" name="H"/>
  <anchor x="741" y="-100" name="L"/>
  <anchor x="741" y="1435" name="U"/>
  <outline>
    <contour>
      <point x="74" y="658" type="curve" smooth="yes"/>
      <point x="74" y="289"/>
      <point x="316" y="-32"/>
      <point x="734" y="-32" type="curve" smooth="yes"/>
      <point x="989" y="-32"/>
      <point x="1163" y="82"/>
      <point x="1296" y="319" type="curve"/>
      <point x="1266" y="339" type="line"/>
      <point x="1106" y="113"/>
      <point x="988" y="57"/>
      <point x="811" y="57" type="curve" smooth="yes"/>
      <point x="505" y="57"/>
      <point x="301" y="268"/>
      <point x="301" y="657" type="curve" smooth="yes"/>
      <point x="301" y="1107"/>
      <point x="503" y="1318"/>
      <point x="781" y="1318" type="curve" smooth="yes"/>
      <point x="991" y="1318"/>
      <point x="1152" y="1206"/>
      <point x="1235" y="927" type="curve"/>
      <point x="1266" y="927" type="line"/>
      <point x="1235" y="1389" type="line"/>
      <point x="1198" y="1389" type="line"/>
      <point x="1184" y="1325"/>
      <point x="1152" y="1294"/>
      <point x="1115" y="1294" type="curve" smooth="yes"/>
      <point x="1074" y="1294"/>
      <point x="971" y="1389"/>
      <point x="766" y="1389" type="curve" smooth="yes"/>
      <point x="347" y="1389"/>
      <point x="74" y="1053"/>
    </contour>
  </outline>
</glyph>
<glyph name="E" format="2">
  <advance width="1251"/>
  <unicode hex="0045"/>
  <anchor x="624" y="-100" name="L"/>
  <anchor x="624" y="1435" name="U"/>
  <outline>
    <contour>
      <point x="1206" y="342" type="line"/>
      <point x="1166" y="342" type="line"/>
      <point x="1039" y="115"/>
      <point x="992" y="74"/>
      <point x="772" y="74" type="curve" smooth="yes"/>
      <point x="543" y="74" type="line" smooth="yes"/>
      <point x="447" y="74"/>
      <point x="427" y="111"/>
      <point x="427" y="164" type="curve" smooth="yes"/>
      <point x="427" y="673" type="line"/>
      <point x="727" y="673" type="line" smooth="yes"/>
      <point x="908" y="673"/>
      <point x="922" y="612"/>
      <point x="941" y="471" type="curve"/>
      <point x="979" y="471" type="line"/>
      <point x="979" y="943" type="line"/>
      <point x="941" y="943" type="line"/>
      <point x="923" y="806"/>
      <point x="910" y="747"/>
      <point x="727" y="747" type="curve" smooth="yes"/>
      <point x="427" y="747" type="line"/>
      <point x="427" y="1283" type="line"/>
      <point x="804" y="1283" type="line" smooth="yes"/>
      <point x="1040" y="1283"/>
      <point x="1037" y="1178"/>
      <point x="1065" y="1061" type="curve"/>
      <point x="1104" y="1061" type="line"/>
      <point x="1089" y="1357" type="line"/>
      <point x="43" y="1357" type="line"/>
      <point x="43" y="1320" type="line"/>
      <point x="230" y="1320"/>
      <point x="237" y="1261"/>
      <point x="237" y="1121" type="curve" smooth="yes"/>
      <point x="237" y="241" type="line" smooth="yes"/>
      <point x="237" y="71"/>
      <point x="213" y="38"/>
      <point x="43" y="38" type="curve"/>
      <point x="43" y="0" type="line"/>
      <point x="1089" y="0" type="line"/>
    </contour>
  </outline>
</glyph>
<glyph name="F" format="2">
  <advance width="1140"/>
  <unicode hex="0046"/>
  <anchor x="545" y="-100" name="L"/>
  <anchor x="545" y="1435" name="U"/>
  <outline>
    <contour>
      <point x="1058" y="1061" type="line"/>
      <point x="1043" y="1357" type="line"/>
      <point x="34" y="1357" type="line"/>
      <point x="34" y="1320" type="line"/>
      <point x="205" y="1320"/>
      <point x="227" y="1248"/>
      <point x="227" y="1118" type="curve" smooth="yes"/>
      <point x="227" y="241" type="line" smooth="yes"/>
      <point x="227" y="111"/>
      <point x="213" y="38"/>
      <point x="34" y="38" type="curve"/>
      <point x="34" y="0" type="line"/>
      <point x="615" y="0" type="line"/>
      <point x="615" y="38" type="line"/>
      <point x="447" y="38"/>
      <point x="420" y="71"/>
      <point x="420" y="241" type="curve" smooth="yes"/>
      <point x="420" y="666" type="line"/>
      <point x="666" y="666" type="line" smooth="yes"/>
      <point x="805" y="666"/>
      <point x="844" y="605"/>
      <point x="844" y="475" type="curve"/>
      <point x="881" y="475" type="line"/>
      <point x="881" y="935" type="line"/>
      <point x="844" y="935" type="line"/>
      <point x="825" y="795"/>
      <point x="784" y="751"/>
      <point x="666" y="751" type="curve" smooth="yes"/>
      <point x="420" y="751" type="line"/>
      <point x="420" y="1283" type="line"/>
      <point x="720" y="1283" type="line" smooth="yes"/>
      <point x="917" y="1283"/>
      <point x="976" y="1228"/>
      <point x="1021" y="1061" type="curve"/>
    </contour>
  </outline>
</glyph>
<glyph name="H" format="2">
  <advance width="1481"/>
  <unicode hex="0048"/>
  <anchor x="737" y="-100" name="L"/>
  <anchor x="737" y="1435" name="U"/>
  <outline>
    <contour>
      <point x="1440" y="0" type="line"/>
      <point x="1440" y="38" type="line"/>
      <point x="1268" y="38"/>
      <point x="1243" y="69"/>
      <point x="1243" y="241" type="curve" smooth="yes"/>
      <point x="1243" y="1118" type="line" smooth="yes"/>
      <point x="1243" y="1290"/>
      <point x="1278" y="1320"/>
      <point x="1440" y="1320" type="curve"/>
      <point x="1440" y="1357" type="line"/>
      <point x="858" y="1357" type="line"/>
      <point x="858" y="1320" type="line"/>
      <point x="1031" y="1320"/>
      <point x="1053" y="1252"/>
      <point x="1053" y="1118" type="curve" smooth="yes"/>
      <point x="1053" y="728" type="line"/>
      <point x="420" y="728" type="line"/>
      <point x="420" y="1118" type="line" smooth="yes"/>
      <point x="420" y="1255"/>
      <point x="441" y="1320"/>
      <point x="618" y="1320" type="curve"/>
      <point x="618" y="1357" type="line"/>
      <point x="36" y="1357" type="line"/>
      <point x="36" y="1320" type="line"/>
      <point x="211" y="1320"/>
      <point x="229" y="1244"/>
      <point x="229" y="1118" type="curve" smooth="yes"/>
      <point x="229" y="241" type="line" smooth="yes"/>
      <point x="229" y="110"/>
      <point x="214" y="38"/>
      <point x="36" y="38" type="curve"/>
      <point x="36" y="0" type="line"/>
      <point x="618" y="0" type="line"/>
      <point x="618" y="38" type="line"/>
      <point x="450" y="38"/>
      <point x="420" y="73"/>
      <point x="420" y="241" type="curve" smooth="yes"/>
      <point x="420" y="654" type="line"/>
      <point x="1053" y="654" type="line"/>
      <point x="1053" y="241" type="line" smooth="yes"/>
      <point x="1053" y="112"/>
      <point x="1036" y="38"/>
      <point x="858" y="38" type="curve"/>
      <point x="858" y="0" type="line"/>
    </contour>
  </outline>
</glyph>
<glyph name="I" format="2">
  <advance width="682"/>
  <unicode hex="0049"/>
  <anchor x="342" y="-100" name="L"/>
  <anchor x="342" y="1435" name="U"/>
  <outline>
    <contour>
      <point x="632" y="0" type="line"/>
      <point x="632" y="38" type="line"/>
      <point x="462" y="38"/>
      <point x="438" y="71"/>
      <point x="438" y="241" type="curve" smooth="yes"/>
      <point x="438" y="1118" type="line" smooth="yes"/>
      <point x="438" y="1251"/>
      <point x="457" y="1320"/>
      <point x="632" y="1320" type="curve"/>
      <point x="632" y="1357" type="line"/>
      <point x="51" y="1357" type="line"/>
      <point x="51" y="1320" type="line"/>
      <point x="220" y="1320"/>
      <point x="244" y="1287"/>
      <point x="244" y="1118" type="curve" smooth="yes"/>
      <point x="244" y="241" type="line" smooth="yes"/>
      <point x="244" y="110"/>
      <point x="231" y="38"/>
      <point x="51" y="38" type="curve"/>
      <point x="51" y="0" type="line"/>
    </contour>
  </outline>
</glyph>
<glyph name="J" format="2">
  <advance width="798"/>
  <unicode hex="004A"/>
  <anchor x="413" y="-100" name="L"/>
  <anchor x="496" y="1435" name="U"/>
  <outline>
    <contour>
      <point x="784" y="1320" type="curve"/>
      <point x="784" y="1357" type="line"/>
      <point x="205" y="1357" type="line"/>
      <point x="205" y="1320" type="line"/>
      <point x="373" y="1320"/>
      <point x="400" y="1286"/>
      <point x="400" y="1118" type="curve" smooth="yes"/>
      <point x="400" y="192" type="line" smooth="yes"/>
      <point x="400" y="78"/>
      <point x="360" y="39"/>
      <point x="325" y="39" type="curve" smooth="yes"/>
      <point x="244" y="39"/>
      <point x="266" y="227"/>
      <point x="144" y="227" type="curve" smooth="yes"/>
      <point x="93" y="227"/>
      <point x="43" y="195"/>
      <point x="43" y="122" type="curve" smooth="yes"/>
      <point x="43" y="45"/>
      <point x="112" y="-32"/>
      <point x="244" y="-32" type="curve" smooth="yes"/>
      <point x="369" y="-32"/>
      <point x="591" y="39"/>
      <point x="591" y="453" type="curve" smooth="yes"/>
      <point x="591" y="1118" type="line" smooth="yes"/>
      <point x="591" y="1255"/>
      <point x="610" y="1320"/>
    </contour>
  </outline>
</glyph>
<glyph name="K" format="2">
  <advance width="1481"/>
  <unicode hex="004B"/>
  <anchor x="766" y="-100" name="L"/>
  <anchor x="766" y="1435" name="U"/>
  <outline>
    <contour>
      <point x="1497" y="0" type="line"/>
      <point x="1497" y="38" type="line"/>
      <point x="1326" y="59"/>
      <point x="1233" y="134"/>
      <point x="1113" y="254" type="curve" smooth="yes"/>
      <point x="613" y="753" type="line"/>
      <point x="1039" y="1179" type="line" smooth="yes"/>
      <point x="1110" y="1250"/>
      <point x="1212" y="1320"/>
      <point x="1320" y="1320" type="curve"/>
      <point x="1320" y="1357" type="line"/>
      <point x="820" y="1357" type="line"/>
      <point x="820" y="1320" type="line"/>
      <point x="920" y="1320"/>
      <point x="943" y="1272"/>
      <point x="943" y="1245" type="curve" smooth="yes"/>
      <point x="943" y="1166"/>
      <point x="475" y="736"/>
      <point x="420" y="692" type="curve"/>
      <point x="420" y="1118" type="line" smooth="yes"/>
      <point x="420" y="1247"/>
      <point x="437" y="1320"/>
      <point x="613" y="1320" type="curve"/>
      <point x="613" y="1357" type="line"/>
      <point x="36" y="1357" type="line"/>
      <point x="36" y="1320" type="line"/>
      <point x="203" y="1320"/>
      <point x="227" y="1285"/>
      <point x="227" y="1118" type="curve" smooth="yes"/>
      <point x="227" y="241" type="line" smooth="yes"/>
      <point x="227" y="108"/>
      <point x="216" y="38"/>
      <point x="36" y="38" type="curve"/>
      <point x="36" y="0" type="line"/>
      <point x="613" y="0" type="line"/>
      <point x="613" y="38" type="line"/>
      <point x="445" y="38"/>
      <point x="420" y="73"/>
      <point x="420" y="241" type="curve" smooth="yes"/>
      <point x="420" y="560" type="line"/>
      <point x="480" y="620" type="line"/>
      <point x="888" y="213" type="line"/>
      <point x="945" y="154"/>
      <point x="968" y="128"/>
      <point x="961" y="100" type="curve"/>
      <point x="958" y="65"/>
      <point x="931" y="38"/>
      <point x="852" y="38" type="curve"/>
      <point x="852" y="0" type="line"/>
    </contour>
  </outline>
</glyph>
<glyph name="M" format="2">
  <advance width="1824"/>
  <unicode hex="004D"/>
  <anchor x="907" y="-100" name="L"/>
  <anchor x="907" y="1435" name="U"/>
  <outline>
    <contour>
      <point x="1780" y="0" type="line"/>
      <point x="1780" y="38" type="line"/>
      <point x="1613" y="38"/>
      <point x="1588" y="70"/>
      <point x="1588" y="237" type="curve" smooth="yes"/>
      <point x="1588" y="1121" type="line" smooth="yes"/>
      <point x="1588" y="1253"/>
      <point x="1601" y="1320"/>
      <point x="1780" y="1320" type="curve"/>
      <point x="1780" y="1357" type="line"/>
      <point x="1396" y="1357" type="line"/>
      <point x="911" y="296" type="line"/>
      <point x="419" y="1357" type="line"/>
      <point x="36" y="1357" type="line"/>
      <point x="36" y="1320" type="line"/>
      <point x="187" y="1320"/>
      <point x="224" y="1276"/>
      <point x="224" y="1121" type="curve" smooth="yes"/>
      <point x="224" y="237" type="line" smooth="yes"/>
      <point x="224" y="107"/>
      <point x="213" y="38"/>
      <point x="36" y="38" type="curve"/>
      <point x="36" y="0" type="line"/>
      <point x="506" y="0" type="line"/>
      <point x="506" y="38" type="line"/>
      <point x="335" y="38"/>
      <point x="314" y="74"/>
      <point x="314" y="237" type="curve" smooth="yes"/>
      <point x="314" y="1142" type="line"/>
      <point x="837" y="0" type="line"/>
      <point x="872" y="0" type="line"/>
      <point x="1396" y="1142" type="line"/>
      <point x="1396" y="237" type="line" smooth="yes"/>
      <point x="1396" y="105"/>
      <point x="1382" y="38"/>
      <point x="1203" y="38" type="curve"/>
      <point x="1203" y="0" type="line"/>
    </contour>
  </outline>
</glyph>
<glyph name="N" format="2">
  <advance width="1481"/>
  <unicode hex="004E"/>
  <anchor x="731" y="-100" name="L"/>
  <anchor x="731" y="1435" name="U"/>
  <outline>
    <contour>
      <point x="1225" y="-22" type="line"/>
      <point x="1260" y="-22" type="line"/>
      <point x="1260" y="1121" type="line" smooth="yes"/>
      <point x="1260" y="1255"/>
      <point x="1272" y="1320"/>
      <point x="1450" y="1320" type="curve"/>
      <point x="1450" y="1357" type="line"/>
      <point x="981" y="1357" type="line"/>
      <point x="981" y="1320" type="line"/>
      <point x="1156" y="1320"/>
      <point x="1172" y="1252"/>
      <point x="1172" y="1121" type="curve" smooth="yes"/>
      <point x="1172" y="339" type="line"/>
      <point x="343" y="1357" type="line"/>
      <point x="11" y="1357" type="line"/>
      <point x="11" y="1320" type="line"/>
      <point x="174" y="1320"/>
      <point x="213" y="1208"/>
      <point x="241" y="1180" type="curve"/>
      <point x="241" y="237" type="line" smooth="yes"/>
      <point x="241" y="107"/>
      <point x="224" y="38"/>
      <point x="47" y="38" type="curve"/>
      <point x="47" y="0" type="line"/>
      <point x="521" y="0" type="line"/>
      <point x="521" y="38" type="line"/>
      <point x="341" y="38"/>
      <point x="327" y="102"/>
      <point x="327" y="237" type="curve" smooth="yes"/>
      <point x="327" y="1071" type="line"/>
    </contour>
  </outline>
</glyph>
<glyph name="P" format="2">
  <advance width="1140"/>
  <unicode hex="0050"/>
  <anchor x="552" y="-100" name="L"/>
  <anchor x="552" y="1435" name="U"/>
  <outline>
    <contour>
      <point x="1068" y="982" type="curve" smooth="yes"/>
      <point x="1068" y="1257"/>
      <point x="821" y="1357"/>
      <point x="530" y="1357" type="curve" smooth="yes"/>
      <point x="36" y="1357" type="line"/>
      <point x="36" y="1320" type="line"/>
      <point x="207" y="1320"/>
      <point x="227" y="1289"/>
      <point x="227" y="1118" type="curve" smooth="yes"/>
      <point x="227" y="241" type="line" smooth="yes"/>
      <point x="227" y="110"/>
      <point x="214" y="38"/>
      <point x="36" y="38" type="curve"/>
      <point x="36" y="0" type="line"/>
      <point x="615" y="0" type="line"/>
      <point x="615" y="38" type="line"/>
      <point x="449" y="38"/>
      <point x="420" y="71"/>
      <point x="420" y="241" type="curve" smooth="yes"/>
      <point x="420" y="618" type="line"/>
      <point x="498" y="608"/>
      <point x="527" y="607"/>
      <point x="593" y="607" type="curve" smooth="yes"/>
      <point x="952" y="604"/>
      <point x="1068" y="776"/>
    </contour>
    <contour>
      <point x="839" y="961" type="curve"/>
      <point x="836" y="786"/>
      <point x="723" y="673"/>
      <point x="583" y="673" type="curve" smooth="yes"/>
      <point x="544" y="673"/>
      <point x="491" y="673"/>
      <point x="420" y="684" type="curve"/>
      <point x="420" y="1258" type="line"/>
      <point x="475" y="1269"/>
      <point x="519" y="1278"/>
      <point x="551" y="1278" type="curve" smooth="yes"/>
      <point x="742" y="1278"/>
      <point x="844" y="1127"/>
    </contour>
  </outline>
</glyph>
<glyph name="R" format="2">
  <advance width="1368"/>
  <unicode hex="0052"/>
  <anchor x="712" y="-100" name="L"/>
  <anchor x="612" y="1435" name="U"/>
  <outline>
    <contour>
      <point x="1387" y="0" type="line"/>
      <point x="1387" y="38" type="line"/>
      <point x="1238" y="54"/>
      <point x="1162" y="98"/>
      <point x="1038" y="270" type="curve"/>
      <point x="761" y="660" type="line"/>
      <point x="988" y="714"/>
      <point x="1095" y="840"/>
      <point x="1095" y="1011" type="curve" smooth="yes"/>
      <point x="1095" y="1299"/>
      <point x="820" y="1357"/>
      <point x="528" y="1357" type="curve" smooth="yes"/>
      <point x="36" y="1357" type="line"/>
      <point x="36" y="1320" type="line"/>
      <point x="209" y="1320"/>
      <point x="229" y="1291"/>
      <point x="229" y="1118" type="curve" smooth="yes"/>
      <point x="229" y="241" type="line" smooth="yes"/>
      <point x="229" y="111"/>
      <point x="217" y="38"/>
      <point x="36" y="38" type="curve"/>
      <point x="36" y="0" type="line"/>
      <point x="618" y="0" type="line"/>
      <point x="618" y="38" type="line"/>
      <point x="446" y="38"/>
      <point x="420" y="77"/>
      <point x="420" y="241" type="curve" smooth="yes"/>
      <point x="420" y="635" type="line"/>
      <point x="443" y="630"/>
      <point x="461" y="630"/>
      <point x="481" y="630" type="curve" smooth="yes"/>
      <point x="502" y="630"/>
      <point x="528" y="634"/>
      <point x="565" y="635" type="curve"/>
      <point x="1023" y="0" type="line"/>
    </contour>
    <contour>
      <point x="869" y="994" type="curve" smooth="yes"/>
      <point x="869" y="823"/>
      <point x="743" y="698"/>
      <point x="477" y="698" type="curve" smooth="yes"/>
      <point x="420" y="698" type="line"/>
      <point x="420" y="1265" type="line"/>
      <point x="491" y="1276"/>
      <point x="542" y="1281"/>
      <point x="577" y="1281" type="curve" smooth="yes"/>
      <point x="756" y="1281"/>
      <point x="869" y="1162"/>
    </contour>
  </outline>
</glyph>
<glyph name="T" format="2">
  <advance width="1248"/>
  <unicode hex="0054"/>
  <anchor x="624" y="-100" name="L"/>
  <anchor x="624" y="1435" name="U"/>
  <outline>
    <contour>
      <point x="1201" y="1038" type="line"/>
      <point x="1189" y="1357" type="line"/>
      <point x="64" y="1357" type="line"/>
      <point x="49" y="1038" type="line"/>
      <point x="94" y="1038" type="line"/>
      <point x="109" y="1213"/>
      <point x="185" y="1274"/>
      <point x="363" y="1274" type="curve" smooth="yes"/>
      <point x="526" y="1274" type="line"/>
      <point x="526" y="237" type="line" smooth="yes"/>
      <point x="526" y="105"/>
      <point x="510" y="38"/>
      <point x="333" y="38" type="curve"/>
      <point x="333" y="0" type="line"/>
      <point x="910" y="0" type="line"/>
      <point x="910" y="38" type="line"/>
      <point x="740" y="38"/>
      <point x="718" y="67"/>
      <point x="718" y="237" type="curve" smooth="yes"/>
      <point x="718" y="1274" type="line"/>
      <point x="910" y="1274" type="line" smooth="yes"/>
      <point x="1070" y="1274"/>
      <point x="1136" y="1202"/>
      <point x="1158" y="1038" type="curve"/>
    </contour>
  </outline>
</glyph>
<glyph name="U" format="2">
  <advance width="1481"/>
  <unicode hex="0055"/>
  <anchor x="744" y="-100" name="L"/>
  <anchor x="744" y="1435" name="U"/>
  <outline>
    <contour>
      <point x="739" y="-32" type="curve" smooth="yes"/>
      <point x="1121" y="-32"/>
      <point x="1265" y="166"/>
      <point x="1265" y="558" type="curve" smooth="yes"/>
      <point x="1265" y="1111" type="line" smooth="yes"/>
      <point x="1265" y="1230"/>
      <point x="1289" y="1320"/>
      <point x="1459" y="1320" type="curve"/>
      <point x="1459" y="1357" type="line"/>
      <point x="979" y="1357" type="line"/>
      <point x="979" y="1320" type="line"/>
      <point x="1148" y="1320"/>
      <point x="1174" y="1289"/>
      <point x="1174" y="1118" type="curve" smooth="yes"/>
      <point x="1174" y="568" type="line"/>
      <point x="1174" y="219"/>
      <point x="1038" y="53"/>
      <point x="753" y="53" type="curve" smooth="yes"/>
      <point x="408" y="53"/>
      <point x="400" y="348"/>
      <point x="400" y="526" type="curve" smooth="yes"/>
      <point x="400" y="1118" type="line" smooth="yes"/>
      <point x="400" y="1229"/>
      <point x="414" y="1320"/>
      <point x="577" y="1320" type="curve"/>
      <point x="577" y="1357" type="line"/>
      <point x="30" y="1357" type="line"/>
      <point x="30" y="1320" type="line"/>
      <point x="190" y="1320"/>
      <point x="207" y="1268"/>
      <point x="207" y="1118" type="curve" smooth="yes"/>
      <point x="207" y="585" type="line" smooth="yes"/>
      <point x="207" y="371"/>
      <point x="184" y="-32"/>
    </contour>
  </outline>
</glyph>
<glyph name="V" format="2">
  <advance width="1481"/>
  <unicode hex="0056"/>
  <anchor x="735" y="-100" name="L"/>
  <anchor x="735" y="1435" name="U"/>
  <outline>
    <contour>
      <point x="1455" y="1320" type="curve"/>
      <point x="1455" y="1357" type="line"/>
      <point x="1037" y="1357" type="line"/>
      <point x="1037" y="1320" type="line"/>
      <point x="1215" y="1291"/>
      <point x="1202" y="1232"/>
      <point x="1135" y="1065" type="curve" smooth="yes"/>
      <point x="1030" y="801"/>
      <point x="921" y="539"/>
      <point x="814" y="276" type="curve"/>
      <point x="467" y="1073" type="line"/>
      <point x="423" y="1176"/>
      <point x="410" y="1236"/>
      <point x="435" y="1272" type="curve"/>
      <point x="451" y="1300"/>
      <point x="492" y="1315"/>
      <point x="573" y="1320" type="curve"/>
      <point x="573" y="1357" type="line"/>
      <point x="17" y="1357" type="line"/>
      <point x="17" y="1320" type="line"/>
      <point x="142" y="1312"/>
      <point x="179" y="1268"/>
      <point x="235" y="1140" type="curve" smooth="yes"/>
      <point x="742" y="-32" type="line"/>
      <point x="780" y="-32" type="line"/>
      <point x="1251" y="1126" type="line"/>
      <point x="1292" y="1221"/>
      <point x="1341" y="1308"/>
    </contour>
  </outline>
</glyph>
<glyph name="W" format="2">
  <advance width="1935"/>
  <unicode hex="0057"/>
  <anchor x="974" y="-100" name="L"/>
  <anchor x="974" y="1435" name="U"/>
  <outline>
    <contour>
      <point x="1919" y="1357" type="line"/>
      <point x="1515" y="1357" type="line"/>
      <point x="1515" y="1320" type="line"/>
      <point x="1578" y="1320"/>
      <point x="1624" y="1313"/>
      <point x="1659" y="1263" type="curve" smooth="yes"/>
      <point x="1677" y="1238"/>
      <point x="1662" y="1187"/>
      <point x="1620" y="1065" type="curve" smooth="yes"/>
      <point x="1363" y="316" type="line"/>
      <point x="1101" y="1056" type="line" smooth="yes"/>
      <point x="1071" y="1140"/>
      <point x="1058" y="1196"/>
      <point x="1058" y="1233" type="curve" smooth="yes"/>
      <point x="1058" y="1291"/>
      <point x="1094" y="1320"/>
      <point x="1201" y="1320" type="curve"/>
      <point x="1201" y="1357" type="line"/>
      <point x="673" y="1357" type="line"/>
      <point x="673" y="1320" type="line"/>
      <point x="849" y="1320"/>
      <point x="904" y="1061"/>
      <point x="934" y="964" type="curve"/>
      <point x="707" y="316" type="line"/>
      <point x="619" y="570"/>
      <point x="531" y="825"/>
      <point x="443" y="1079" type="curve"/>
      <point x="395" y="1213"/>
      <point x="364" y="1320"/>
      <point x="528" y="1320" type="curve"/>
      <point x="528" y="1357" type="line"/>
      <point x="28" y="1357" type="line"/>
      <point x="28" y="1320" type="line"/>
      <point x="173" y="1320"/>
      <point x="184" y="1234"/>
      <point x="233" y="1097" type="curve" smooth="yes"/>
      <point x="635" y="-32" type="line"/>
      <point x="673" y="-32" type="line"/>
      <point x="981" y="835" type="line"/>
      <point x="1288" y="-32" type="line"/>
      <point x="1328" y="-32" type="line"/>
      <point x="1705" y="1065" type="line"/>
      <point x="1742" y="1177"/>
      <point x="1777" y="1320"/>
      <point x="1919" y="1320" type="curve"/>
    </contour>
  </outline>
</glyph>
<glyph name="X" format="2">
  <advance width="1481"/>
  <unicode hex="0058"/>
  <anchor x="734" y="-100" name="L"/>
  <anchor x="734" y="1435" name="U"/>
  <outline>
    <contour>
      <point x="1455" y="0" type="line"/>
      <point x="1455" y="38" type="line"/>
      <point x="1337" y="46"/>
      <point x="1291" y="75"/>
      <point x="1127" y="319" type="curve" smooth="yes"/>
      <point x="835" y="753" type="line"/>
      <point x="1109" y="1097" type="line"/>
      <point x="1224" y="1244"/>
      <point x="1279" y="1315"/>
      <point x="1426" y="1320" type="curve"/>
      <point x="1426" y="1357" type="line"/>
      <point x="943" y="1357" type="line"/>
      <point x="943" y="1320" type="line"/>
      <point x="1107" y="1320"/>
      <point x="1131" y="1257"/>
      <point x="1027" y="1130" type="curve"/>
      <point x="947" y="1028"/>
      <point x="867" y="927"/>
      <point x="787" y="825" type="curve"/>
      <point x="717" y="929"/>
      <point x="647" y="1032"/>
      <point x="577" y="1136" type="curve"/>
      <point x="475" y="1294"/>
      <point x="568" y="1318"/>
      <point x="670" y="1320" type="curve"/>
      <point x="670" y="1357" type="line"/>
      <point x="43" y="1357" type="line"/>
      <point x="43" y="1320" type="line"/>
      <point x="176" y="1315"/>
      <point x="264" y="1266"/>
      <point x="402" y="1061" type="curve"/>
      <point x="670" y="668" type="line"/>
      <point x="348" y="262" type="line"/>
      <point x="256" y="149"/>
      <point x="133" y="41"/>
      <point x="13" y="38" type="curve"/>
      <point x="13" y="0" type="line"/>
      <point x="497" y="0" type="line"/>
      <point x="497" y="38" type="line"/>
      <point x="392" y="41"/>
      <point x="367" y="73"/>
      <point x="367" y="115" type="curve" smooth="yes"/>
      <point x="367" y="147"/>
      <point x="374" y="165"/>
      <point x="427" y="233" type="curve" smooth="yes"/>
      <point x="713" y="598" type="line"/>
      <point x="790" y="481"/>
      <point x="866" y="365"/>
      <point x="943" y="248" type="curve" smooth="yes"/>
      <point x="1034" y="108"/>
      <point x="1033" y="38"/>
      <point x="874" y="38" type="curve"/>
      <point x="874" y="0" type="line"/>
    </contour>
  </outline>
</glyph>
<glyph name="Z" format="2">
  <advance width="1251"/>
  <unicode hex="005A"/>
  <anchor x="612" y="-100" name="L"/>
  <anchor x="612" y="1435" name="U"/>
  <outline>
    <contour>
      <point x="1195" y="359" type="line"/>
      <point x="1164" y="366" type="line"/>
      <point x="1101" y="177"/>
      <point x="1045" y="83"/>
      <point x="844" y="83" type="curve" smooth="yes"/>
      <point x="289" y="83" type="line"/>
      <point x="1180" y="1357" type="line"/>
      <point x="175" y="1357" type="line"/>
      <point x="148" y="1018" type="line"/>
      <point x="186" y="1018" type="line"/>
      <point x="219" y="1218"/>
      <point x="260" y="1278"/>
      <point x="463" y="1278" type="curve" smooth="yes"/>
      <point x="896" y="1278" type="line"/>
      <point x="28" y="38" type="line"/>
      <point x="28" y="0" type="line"/>
      <point x="1133" y="0" type="line"/>
    </contour>
  </outline>
</glyph>
<glyph name="bracketleft" format="2">
  <advance width="682"/>
  <unicode hex="005B"/>
  <outline>
    <contour>
      <point x="166" y="-406" type="line"/>
      <point x="607" y="-406" type="line"/>
      <point x="607" y="-327" type="line"/>
      <point x="316" y="-327" type="line"/>
      <point x="316" y="1312" type="line"/>
      <point x="607" y="1312" type="line"/>
      <point x="607" y="1389" type="line"/>
      <point x="166" y="1389" type="line"/>
    </contour>
  </outline>
</glyph>
<glyph name="bracketright" format="2">
  <advance width="682"/>
  <unicode hex="005D"/>
  <outline>
    <contour>
      <point x="77" y="-408" type="line"/>
      <point x="517" y="-408" type="line"/>
      <point x="517" y="1389" type="line"/>
      <point x="77" y="1389" type="line"/>
      <point x="77" y="1312" type="line"/>
      <point x="367" y="1312" type="line"/>
      <point x="367" y="-327" type="line"/>
      <point x="77" y="-327" type="line"/>
    </contour>
  </outline>
</glyph>
<glyph name="underscore" format="2">
  <advance width="643"/>
  <unicode hex="005F"/>
  <outline>
    <contour>
      <point x="0" y="-296" type="line"/>
      <point x="643" y="-296" type="line"/>
      <point x="643" y="-186" type="line"/>
      <point x="0" y="-186" type="line"/>
    </contour>
  </outline>
</glyph>
<glyph name="d" format="2">
  <advance width="1026"/>
  <unicode hex="0064"/>
  <anchor x="550" y="-100" name="L"/>
  <anchor x="547" y="1435" name="U"/>
  <outline>
    <contour>
      <point x="1034" y="85" type="line"/>
      <point x="1021" y="120" type="line"/>
      <point x="968" y="100"/>
      <point x="934" y="96"/>
      <point x="911" y="116" type="curve"/>
      <point x="881" y="136"/>
      <point x="880" y="168"/>
      <point x="880" y="363" type="curve" smooth="yes"/>
      <point x="880" y="1424" type="line"/>
      <point x="834" y="1424" type="line"/>
      <point x="558" y="1313" type="line"/>
      <point x="573" y="1278" type="line"/>
      <point x="625" y="1295"/>
      <point x="658" y="1303"/>
      <point x="681" y="1280" type="curve"/>
      <point x="702" y="1256"/>
      <point x="712" y="1241"/>
      <point x="712" y="1037" type="curve" smooth="yes"/>
      <point x="712" y="867" type="line"/>
      <point x="659" y="920"/>
      <point x="593" y="944"/>
      <point x="512" y="944" type="curve" smooth="yes"/>
      <point x="228" y="944"/>
      <point x="67" y="658"/>
      <point x="67" y="420" type="curve" smooth="yes"/>
      <point x="67" y="161"/>
      <point x="241" y="-30"/>
      <point x="444" y="-30" type="curve" smooth="yes"/>
      <point x="551" y="-30"/>
      <point x="629" y="17"/>
      <point x="712" y="102" type="curve"/>
      <point x="712" y="-30" type="line"/>
      <point x="757" y="-30" type="line"/>
    </contour>
    <contour>
      <point x="712" y="174" type="line"/>
      <point x="653" y="113"/>
      <point x="598" y="83"/>
      <point x="535" y="83" type="curve"/>
      <point x="405" y="86"/>
      <point x="252" y="203"/>
      <point x="252" y="500" type="curve" smooth="yes"/>
      <point x="252" y="738"/>
      <point x="365" y="888"/>
      <point x="500" y="883" type="curve"/>
      <point x="632" y="880"/>
      <point x="712" y="747"/>
      <point x="712" y="647" type="curve" smooth="yes"/>
    </contour>
  </outline>
</glyph>
<glyph name="f" format="2">
  <advance width="682"/>
  <unicode hex="0066"/>
  <anchor x="338" y="-100" name="L"/>
  <anchor x="570" y="1375" name="U"/>
  <outline>
    <contour>
      <point x="80" y="0" type="line"/>
      <point x="632" y="0" type="line"/>
      <point x="632" y="38" type="line"/>
      <point x="449" y="38"/>
      <point x="422" y="60"/>
      <point x="422" y="243" type="curve" smooth="yes"/>
      <point x="422" y="844" type="line"/>
      <point x="658" y="844" type="line"/>
      <point x="658" y="917" type="line"/>
      <point x="422" y="917" type="line"/>
      <point x="422" y="1064" type="line"/>
      <point x="428" y="1275"/>
      <point x="455" y="1349"/>
      <point x="560" y="1349" type="curve" smooth="yes"/>
      <point x="701" y="1349"/>
      <point x="705" y="1168"/>
      <point x="811" y="1168" type="curve" smooth="yes"/>
      <point x="858" y="1168"/>
      <point x="891" y="1218"/>
      <point x="891" y="1251" type="curve" smooth="yes"/>
      <point x="891" y="1345"/>
      <point x="756" y="1424"/>
      <point x="639" y="1424" type="curve" smooth="yes"/>
      <point x="379" y="1424"/>
      <point x="254" y="1213"/>
      <point x="254" y="917" type="curve"/>
      <point x="75" y="917" type="line"/>
      <point x="75" y="844" type="line"/>
      <point x="254" y="844" type="line"/>
      <point x="254" y="243" type="line" smooth="yes"/>
      <point x="254" y="120"/>
      <point x="239" y="38"/>
      <point x="80" y="38" type="curve"/>
    </contour>
  </outline>
</glyph>
<glyph name="g" format="2">
  <advance width="1026"/>
  <unicode hex="0067"/>
  <anchor x="524" y="-500" name="L"/>
  <anchor x="511" y="1000" name="U"/>
  <outline>
    <contour>
      <point x="463" y="-444" type="curve" smooth="yes"/>
      <point x="756" y="-444"/>
      <point x="976" y="-269"/>
      <point x="976" y="-85" type="curve" smooth="yes"/>
      <point x="976" y="127"/>
      <point x="688" y="132"/>
      <point x="617" y="132" type="curve" smooth="yes"/>
      <point x="349" y="132"/>
      <point x="284" y="167"/>
      <point x="284" y="202" type="curve" smooth="yes"/>
      <point x="284" y="239"/>
      <point x="321" y="288"/>
      <point x="359" y="316" type="curve"/>
      <point x="406" y="301"/>
      <point x="454" y="296"/>
      <point x="499" y="296" type="curve" smooth="yes"/>
      <point x="728" y="296"/>
      <point x="862" y="438"/>
      <point x="859" y="605" type="curve"/>
      <point x="859" y="681"/>
      <point x="840" y="741"/>
      <point x="805" y="789" type="curve"/>
      <point x="844" y="789"/>
      <point x="883" y="783"/>
      <point x="922" y="783" type="curve" smooth="yes"/>
      <point x="967" y="783"/>
      <point x="988" y="790"/>
      <point x="988" y="835" type="curve" smooth="yes"/>
      <point x="988" y="875"/>
      <point x="968" y="879"/>
      <point x="938" y="879" type="curve" smooth="yes"/>
      <point x="910" y="879"/>
      <point x="896" y="874"/>
      <point x="834" y="874" type="curve" smooth="yes"/>
      <point x="707" y="874"/>
      <point x="658" y="943"/>
      <point x="500" y="943" type="curve" smooth="yes"/>
      <point x="272" y="943"/>
      <point x="136" y="785"/>
      <point x="136" y="613" type="curve" smooth="yes"/>
      <point x="136" y="504"/>
      <point x="193" y="385"/>
      <point x="310" y="335" type="curve"/>
      <point x="172" y="218"/>
      <point x="149" y="165"/>
      <point x="149" y="118" type="curve" smooth="yes"/>
      <point x="149" y="71"/>
      <point x="183" y="37"/>
      <point x="244" y="8" type="curve"/>
      <point x="101" y="-135"/>
      <point x="61" y="-199"/>
      <point x="61" y="-252" type="curve" smooth="yes"/>
      <point x="61" y="-348"/>
      <point x="262" y="-444"/>
    </contour>
    <contour>
      <point x="551" y="-321" type="curve" smooth="yes"/>
      <point x="346" y="-321"/>
      <point x="205" y="-259"/>
      <point x="205" y="-175" type="curve" smooth="yes"/>
      <point x="205" y="-114"/>
      <point x="242" y="-68"/>
      <point x="299" y="0" type="curve"/>
      <point x="380" y="-12"/>
      <point x="498" y="-15"/>
      <point x="647" y="-22" type="curve" smooth="yes"/>
      <point x="858" y="-33"/>
      <point x="904" y="-57"/>
      <point x="904" y="-122" type="curve" smooth="yes"/>
      <point x="904" y="-218"/>
      <point x="791" y="-321"/>
    </contour>
    <contour>
      <point x="511" y="345" type="curve" smooth="yes"/>
      <point x="383" y="345"/>
      <point x="310" y="475"/>
      <point x="310" y="657" type="curve" smooth="yes"/>
      <point x="310" y="824"/>
      <point x="387" y="896"/>
      <point x="483" y="896" type="curve" smooth="yes"/>
      <point x="608" y="896"/>
      <point x="682" y="767"/>
      <point x="682" y="580" type="curve" smooth="yes"/>
      <point x="682" y="415"/>
      <point x="607" y="345"/>
    </contour>
  </outline>
</glyph>
<glyph name="h" format="2">
  <advance width="1026"/>
  <unicode hex="0068"/>
  <anchor x="513" y="-100" name="L"/>
  <anchor x="513" y="1435" name="U"/>
  <outline>
    <contour>
      <point x="28" y="0" type="line"/>
      <point x="481" y="0" type="line"/>
      <point x="481" y="38" type="line"/>
      <point x="350" y="38"/>
      <point x="335" y="64"/>
      <point x="335" y="189" type="curve" smooth="yes"/>
      <point x="335" y="690" type="line"/>
      <point x="435" y="805"/>
      <point x="500" y="822"/>
      <point x="562" y="822" type="curve" smooth="yes"/>
      <point x="721" y="822"/>
      <point x="710" y="650"/>
      <point x="710" y="530" type="curve" smooth="yes"/>
      <point x="710" y="189" type="line" smooth="yes"/>
      <point x="710" y="64"/>
      <point x="678" y="38"/>
      <point x="562" y="38" type="curve"/>
      <point x="562" y="0" type="line"/>
      <point x="1015" y="0" type="line"/>
      <point x="1015" y="38" type="line"/>
      <point x="894" y="38"/>
      <point x="877" y="70"/>
      <point x="877" y="189" type="curve" smooth="yes"/>
      <point x="877" y="530" type="line" smooth="yes"/>
      <point x="877" y="709"/>
      <point x="871" y="943"/>
      <point x="639" y="943" type="curve" smooth="yes"/>
      <point x="544" y="943"/>
      <point x="442" y="913"/>
      <point x="335" y="753" type="curve"/>
      <point x="335" y="1424" type="line"/>
      <point x="289" y="1424" type="line"/>
      <point x="11" y="1313" type="line"/>
      <point x="28" y="1278" type="line"/>
      <point x="56" y="1290"/>
      <point x="83" y="1294"/>
      <point x="100" y="1294" type="curve" smooth="yes"/>
      <point x="155" y="1294"/>
      <point x="167" y="1251"/>
      <point x="167" y="1156" type="curve" smooth="yes"/>
      <point x="167" y="189" type="line" smooth="yes"/>
      <point x="167" y="76"/>
      <point x="150" y="38"/>
      <point x="28" y="38" type="curve"/>
    </contour>
  </outline>
</glyph>
<glyph name="k" format="2">
  <advance width="1026"/>
  <unicode hex="006B"/>
  <anchor x="526" y="-100" name="L"/>
  <anchor x="526" y="1435" name="U"/>
  <outline>
    <contour>
      <point x="13" y="0" type="line"/>
      <point x="483" y="0" type="line"/>
      <point x="483" y="38" type="line"/>
      <point x="344" y="38"/>
      <point x="337" y="68"/>
      <point x="337" y="207" type="curve" smooth="yes"/>
      <point x="337" y="506" type="line"/>
      <point x="618" y="152" type="line"/>
      <point x="647" y="113"/>
      <point x="657" y="96"/>
      <point x="657" y="77" type="curve" smooth="yes"/>
      <point x="657" y="49"/>
      <point x="635" y="38"/>
      <point x="591" y="38" type="curve"/>
      <point x="591" y="0" type="line"/>
      <point x="1037" y="0" type="line"/>
      <point x="1037" y="38" type="line"/>
      <point x="943" y="38"/>
      <point x="891" y="67"/>
      <point x="734" y="262" type="curve" smooth="yes"/>
      <point x="493" y="562" type="line"/>
      <point x="734" y="777" type="line" smooth="yes"/>
      <point x="819" y="853"/>
      <point x="877" y="881"/>
      <point x="989" y="885" type="curve"/>
      <point x="989" y="917" type="line"/>
      <point x="591" y="917" type="line"/>
      <point x="591" y="885" type="line"/>
      <point x="643" y="881"/>
      <point x="662" y="861"/>
      <point x="662" y="834" type="curve" smooth="yes"/>
      <point x="662" y="814"/>
      <point x="655" y="797"/>
      <point x="568" y="724" type="curve" smooth="yes"/>
      <point x="337" y="528" type="line"/>
      <point x="337" y="1424" type="line"/>
      <point x="290" y="1424" type="line"/>
      <point x="13" y="1313" type="line"/>
      <point x="34" y="1278" type="line"/>
      <point x="97" y="1305"/>
      <point x="123" y="1293"/>
      <point x="138" y="1280" type="curve" smooth="yes"/>
      <point x="162" y="1261"/>
      <point x="166" y="1244"/>
      <point x="166" y="1035" type="curve" smooth="yes"/>
      <point x="166" y="201" type="line" smooth="yes"/>
      <point x="166" y="69"/>
      <point x="153" y="38"/>
      <point x="13" y="38" type="curve"/>
    </contour>
  </outline>
</glyph>
<glyph name="l" format="2">
  <advance width="570"/>
  <unicode hex="006C"/>
  <anchor x="292" y="-100" name="L"/>
  <anchor x="292" y="1475" name="U"/>
  <outline>
    <contour>
      <point x="527" y="0" type="line"/>
      <point x="527" y="38" type="line"/>
      <point x="394" y="38"/>
      <point x="378" y="78"/>
      <point x="378" y="207" type="curve" smooth="yes"/>
      <point x="378" y="1424" type="line"/>
      <point x="335" y="1424" type="line"/>
      <point x="59" y="1313" type="line"/>
      <point x="77" y="1278" type="line"/>
      <point x="114" y="1292"/>
      <point x="150" y="1302"/>
      <point x="183" y="1280" type="curve"/>
      <point x="203" y="1263"/>
      <point x="212" y="1246"/>
      <point x="212" y="1038" type="curve" smooth="yes"/>
      <point x="212" y="207" type="line" smooth="yes"/>
      <point x="212" y="94"/>
      <point x="201" y="38"/>
      <point x="77" y="38" type="curve"/>
      <point x="77" y="0" type="line"/>
    </contour>
  </outline>
</glyph>
<glyph name="p" format="2">
  <advance width="1026"/>
  <unicode hex="0070"/>
  <anchor x="473" y="-500" name="L"/>
  <anchor x="473" y="1000" name="U"/>
  <outline>
    <contour>
      <point x="-12" y="-440" type="line"/>
      <point x="474" y="-440" type="line"/>
      <point x="474" y="-402" type="line"/>
      <point x="326" y="-397"/>
      <point x="319" y="-369"/>
      <point x="319" y="-224" type="curve" smooth="yes"/>
      <point x="319" y="53" type="line"/>
      <point x="402" y="-25"/>
      <point x="480" y="-30"/>
      <point x="536" y="-30" type="curve" smooth="yes"/>
      <point x="785" y="-30"/>
      <point x="957" y="205"/>
      <point x="957" y="493" type="curve" smooth="yes"/>
      <point x="957" y="747"/>
      <point x="815" y="943"/>
      <point x="613" y="943" type="curve" smooth="yes"/>
      <point x="505" y="943"/>
      <point x="409" y="886"/>
      <point x="319" y="727" type="curve"/>
      <point x="319" y="941" type="line"/>
      <point x="281" y="941" type="line"/>
      <point x="-6" y="827" type="line"/>
      <point x="6" y="792" type="line"/>
      <point x="32" y="803"/>
      <point x="54" y="809"/>
      <point x="72" y="810" type="curve" smooth="yes"/>
      <point x="132" y="813"/>
      <point x="148" y="756"/>
      <point x="148" y="647" type="curve" smooth="yes"/>
      <point x="148" y="-220" type="line" smooth="yes"/>
      <point x="148" y="-373"/>
      <point x="137" y="-397"/>
      <point x="-12" y="-402" type="curve"/>
    </contour>
    <contour>
      <point x="532" y="32" type="curve" smooth="yes"/>
      <point x="359" y="32"/>
      <point x="319" y="138"/>
      <point x="319" y="323" type="curve" smooth="yes"/>
      <point x="319" y="666" type="line"/>
      <point x="401" y="756"/>
      <point x="452" y="820"/>
      <point x="532" y="820" type="curve" smooth="yes"/>
      <point x="675" y="820"/>
      <point x="797" y="695"/>
      <point x="797" y="398" type="curve" smooth="yes"/>
      <point x="797" y="171"/>
      <point x="690" y="32"/>
    </contour>
  </outline>
</glyph>
<glyph name="q" format="2">
  <advance width="1026"/>
  <unicode hex="0071"/>
  <anchor x="549" y="-500" name="L"/>
  <anchor x="549" y="1000" name="U"/>
  <outline>
    <contour>
      <point x="562" y="-440" type="line"/>
      <point x="1029" y="-440" type="line"/>
      <point x="1029" y="-402" type="line"/>
      <point x="906" y="-402"/>
      <point x="880" y="-377"/>
      <point x="880" y="-237" type="curve" smooth="yes"/>
      <point x="880" y="943" type="line"/>
      <point x="844" y="943" type="line"/>
      <point x="811" y="919"/>
      <point x="769" y="900"/>
      <point x="729" y="880" type="curve"/>
      <point x="684" y="927"/>
      <point x="616" y="943"/>
      <point x="540" y="943" type="curve" smooth="yes"/>
      <point x="272" y="943"/>
      <point x="67" y="725"/>
      <point x="67" y="419" type="curve" smooth="yes"/>
      <point x="67" y="134"/>
      <point x="242" y="-30"/>
      <point x="411" y="-30" type="curve" smooth="yes"/>
      <point x="513" y="-30"/>
      <point x="592" y="16"/>
      <point x="712" y="160" type="curve"/>
      <point x="712" y="-237" type="line" smooth="yes"/>
      <point x="712" y="-388"/>
      <point x="679" y="-402"/>
      <point x="562" y="-402" type="curve"/>
    </contour>
    <contour>
      <point x="515" y="113" type="curve" smooth="yes"/>
      <point x="367" y="113"/>
      <point x="237" y="238"/>
      <point x="237" y="491" type="curve" smooth="yes"/>
      <point x="237" y="749"/>
      <point x="361" y="874"/>
      <point x="508" y="874" type="curve" smooth="yes"/>
      <point x="645" y="874"/>
      <point x="712" y="784"/>
      <point x="712" y="653" type="curve" smooth="yes"/>
      <point x="712" y="220" type="line"/>
      <point x="650" y="150"/>
      <point x="600" y="113"/>
    </contour>
  </outline>
</glyph>
<glyph name="r" format="2">
  <advance width="703"/>
  <unicode hex="0072"/>
  <anchor x="353" y="-100" name="L"/>
  <anchor x="353" y="1000" name="U"/>
  <outline>
    <contour>
      <point x="568" y="943" type="curve" smooth="yes"/>
      <point x="486" y="943"/>
      <point x="407" y="874"/>
      <point x="331" y="737" type="curve"/>
      <point x="331" y="943" type="line"/>
      <point x="292" y="943" type="line"/>
      <point x="8" y="833" type="line"/>
      <point x="17" y="797" type="line"/>
      <point x="73" y="820"/>
      <point x="104" y="815"/>
      <point x="135" y="798" type="curve"/>
      <point x="157" y="774"/>
      <point x="164" y="756"/>
      <point x="164" y="562" type="curve" smooth="yes"/>
      <point x="164" y="207" type="line" smooth="yes"/>
      <point x="164" y="50"/>
      <point x="131" y="38"/>
      <point x="17" y="38" type="curve"/>
      <point x="17" y="0" type="line"/>
      <point x="493" y="0" type="line"/>
      <point x="493" y="38" type="line"/>
      <point x="362" y="38"/>
      <point x="331" y="96"/>
      <point x="331" y="213" type="curve" smooth="yes"/>
      <point x="331" y="654" type="line"/>
      <point x="382" y="751"/>
      <point x="431" y="811"/>
      <point x="466" y="811" type="curve" smooth="yes"/>
      <point x="509" y="811"/>
      <point x="540" y="739"/>
      <point x="607" y="739" type="curve" smooth="yes"/>
      <point x="658" y="739"/>
      <point x="698" y="785"/>
      <point x="698" y="833" type="curve" smooth="yes"/>
      <point x="698" y="897"/>
      <point x="642" y="943"/>
    </contour>
  </outline>
</glyph>
<glyph name="s" format="2">
  <advance width="798"/>
  <unicode hex="0073"/>
  <anchor x="413" y="-100" name="L"/>
  <anchor x="413" y="1000" name="U"/>
  <outline>
    <contour>
      <point x="727" y="231" type="curve" smooth="yes"/>
      <point x="727" y="521"/>
      <point x="207" y="528"/>
      <point x="217" y="766" type="curve"/>
      <point x="218" y="837"/>
      <point x="273" y="885"/>
      <point x="396" y="885" type="curve" smooth="yes"/>
      <point x="507" y="885"/>
      <point x="598" y="828"/>
      <point x="643" y="630" type="curve"/>
      <point x="676" y="630" type="line"/>
      <point x="676" y="943" type="line"/>
      <point x="643" y="943" type="line"/>
      <point x="627" y="911"/>
      <point x="617" y="907"/>
      <point x="598" y="907" type="curve" smooth="yes"/>
      <point x="566" y="907"/>
      <point x="480" y="943"/>
      <point x="398" y="943" type="curve" smooth="yes"/>
      <point x="207" y="943"/>
      <point x="100" y="834"/>
      <point x="100" y="698" type="curve" smooth="yes"/>
      <point x="100" y="390"/>
      <point x="585" y="424"/>
      <point x="577" y="167" type="curve"/>
      <point x="577" y="95"/>
      <point x="518" y="32"/>
      <point x="420" y="32" type="curve" smooth="yes"/>
      <point x="290" y="32"/>
      <point x="172" y="128"/>
      <point x="138" y="314" type="curve"/>
      <point x="105" y="314" type="line"/>
      <point x="105" y="-13" type="line"/>
      <point x="138" y="-13" type="line"/>
      <point x="146" y="4"/>
      <point x="158" y="32"/>
      <point x="174" y="32" type="curve"/>
      <point x="234" y="24"/>
      <point x="321" y="-30"/>
      <point x="420" y="-30" type="curve" smooth="yes"/>
      <point x="582" y="-30"/>
      <point x="727" y="91"/>
    </contour>
  </outline>
</glyph>
<glyph name="t" format="2">
  <advance width="570"/>
  <unicode hex="0074"/>
  <anchor x="293" y="-100" name="L"/>
  <anchor x="285" y="1298" name="U"/>
  <outline>
    <contour>
      <point x="343" y="-30" type="curve" smooth="yes"/>
      <point x="422" y="-30"/>
      <point x="531" y="33"/>
      <point x="573" y="167" type="curve"/>
      <point x="532" y="167" type="line"/>
      <point x="508" y="115"/>
      <point x="471" y="82"/>
      <point x="420" y="85" type="curve" smooth="yes"/>
      <point x="369" y="88"/>
      <point x="329" y="118"/>
      <point x="329" y="237" type="curve" smooth="yes"/>
      <point x="329" y="849" type="line"/>
      <point x="544" y="849" type="line"/>
      <point x="544" y="917" type="line"/>
      <point x="329" y="917" type="line"/>
      <point x="329" y="1219" type="line"/>
      <point x="299" y="1219" type="line"/>
      <point x="238" y="1076"/>
      <point x="144" y="927"/>
      <point x="15" y="880" type="curve"/>
      <point x="15" y="849" type="line"/>
      <point x="162" y="849" type="line"/>
      <point x="162" y="213" type="line" smooth="yes"/>
      <point x="162" y="8"/>
      <point x="256" y="-30"/>
    </contour>
  </outline>
</glyph>
<glyph name="v" format="2">
  <advance width="1026"/>
  <unicode hex="0076"/>
  <anchor x="512" y="-100" name="L"/>
  <anchor x="512" y="1000" name="U"/>
  <outline>
    <contour>
      <point x="504" y="-30" type="line"/>
      <point x="546" y="-30" type="line"/>
      <point x="872" y="758" type="line" smooth="yes"/>
      <point x="905" y="840"/>
      <point x="921" y="871"/>
      <point x="1009" y="880" type="curve"/>
      <point x="1009" y="917" type="line"/>
      <point x="707" y="917" type="line"/>
      <point x="707" y="880" type="line"/>
      <point x="779" y="880"/>
      <point x="813" y="870"/>
      <point x="813" y="829" type="curve" smooth="yes"/>
      <point x="813" y="809"/>
      <point x="804" y="783"/>
      <point x="789" y="747" type="curve" smooth="yes"/>
      <point x="574" y="220" type="line"/>
      <point x="361" y="727" type="line" smooth="yes"/>
      <point x="328" y="807"/>
      <point x="332" y="880"/>
      <point x="450" y="880" type="curve"/>
      <point x="450" y="917" type="line"/>
      <point x="15" y="917" type="line"/>
      <point x="15" y="880" type="line"/>
      <point x="117" y="858"/>
      <point x="134" y="843"/>
      <point x="175" y="747" type="curve" smooth="yes"/>
    </contour>
  </outline>
</glyph>
<glyph name="w" format="2">
  <advance width="1481"/>
  <unicode hex="0077"/>
  <anchor x="737" y="-100" name="L"/>
  <anchor x="737" y="1000" name="U"/>
  <outline>
    <contour>
      <point x="453" y="-30" type="line"/>
      <point x="491" y="-30" type="line"/>
      <point x="757" y="558" type="line"/>
      <point x="986" y="-30" type="line"/>
      <point x="1027" y="-30" type="line"/>
      <point x="1333" y="764" type="line" smooth="yes"/>
      <point x="1360" y="833"/>
      <point x="1404" y="871"/>
      <point x="1464" y="880" type="curve"/>
      <point x="1464" y="917" type="line"/>
      <point x="1174" y="917" type="line"/>
      <point x="1174" y="880" type="line"/>
      <point x="1276" y="880"/>
      <point x="1287" y="839"/>
      <point x="1248" y="742" type="curve"/>
      <point x="1058" y="237" type="line"/>
      <point x="849" y="764" type="line" smooth="yes"/>
      <point x="818" y="842"/>
      <point x="869" y="872"/>
      <point x="961" y="880" type="curve"/>
      <point x="961" y="917" type="line"/>
      <point x="526" y="917" type="line"/>
      <point x="526" y="880" type="line"/>
      <point x="609" y="874"/>
      <point x="639" y="858"/>
      <point x="722" y="645" type="curve"/>
      <point x="526" y="215" type="line"/>
      <point x="327" y="742" type="line" smooth="yes"/>
      <point x="312" y="780"/>
      <point x="305" y="809"/>
      <point x="309" y="830" type="curve" smooth="yes"/>
      <point x="315" y="860"/>
      <point x="342" y="875"/>
      <point x="398" y="880" type="curve"/>
      <point x="398" y="917" type="line"/>
      <point x="11" y="917" type="line"/>
      <point x="11" y="880" type="line"/>
      <point x="100" y="863"/>
      <point x="126" y="821"/>
      <point x="158" y="742" type="curve"/>
    </contour>
  </outline>
</glyph>
<glyph name="x" format="2">
  <advance width="1026"/>
  <unicode hex="0078"/>
  <anchor x="514" y="-100" name="L"/>
  <anchor x="514" y="1000" name="U"/>
  <outline>
    <contour>
      <point x="36" y="0" type="line"/>
      <point x="335" y="0" type="line"/>
      <point x="335" y="38" type="line"/>
      <point x="232" y="41"/>
      <point x="235" y="105"/>
      <point x="260" y="140" type="curve"/>
      <point x="326" y="229"/>
      <point x="393" y="317"/>
      <point x="459" y="406" type="curve"/>
      <point x="523" y="313"/>
      <point x="586" y="219"/>
      <point x="650" y="126" type="curve"/>
      <point x="664" y="98"/>
      <point x="670" y="38"/>
      <point x="568" y="38" type="curve"/>
      <point x="568" y="0" type="line"/>
      <point x="1002" y="0" type="line"/>
      <point x="1002" y="38" type="line"/>
      <point x="892" y="41"/>
      <point x="843" y="125"/>
      <point x="787" y="209" type="curve"/>
      <point x="558" y="536" type="line"/>
      <point x="779" y="834"/>
      <point x="819" y="877"/>
      <point x="904" y="880" type="curve"/>
      <point x="904" y="917" type="line"/>
      <point x="593" y="917" type="line"/>
      <point x="593" y="880" type="line"/>
      <point x="676" y="880"/>
      <point x="673" y="827"/>
      <point x="654" y="798" type="curve" smooth="yes"/>
      <point x="609" y="732"/>
      <point x="565" y="667"/>
      <point x="520" y="601" type="curve"/>
      <point x="476" y="669"/>
      <point x="433" y="738"/>
      <point x="389" y="806" type="curve" smooth="yes"/>
      <point x="372" y="832"/>
      <point x="382" y="883"/>
      <point x="459" y="880" type="curve"/>
      <point x="459" y="917" type="line"/>
      <point x="28" y="917" type="line"/>
      <point x="28" y="880" type="line"/>
      <point x="113" y="877"/>
      <point x="147" y="862"/>
      <point x="244" y="718" type="curve"/>
      <point x="419" y="466" type="line"/>
      <point x="224" y="209" type="line"/>
      <point x="123" y="74"/>
      <point x="88" y="41"/>
      <point x="36" y="38" type="curve"/>
    </contour>
  </outline>
</glyph>
<glyph name="y" format="2">
  <advance width="1026"/>
  <unicode hex="0079"/>
  <anchor x="513" y="-500" name="L"/>
  <anchor x="550" y="1000" name="U"/>
  <outline>
    <contour>
      <point x="195" y="-444" type="curve" smooth="yes"/>
      <point x="311" y="-444"/>
      <point x="434" y="-346"/>
      <point x="504" y="-174" type="curve" smooth="yes"/>
      <point x="877" y="742" type="line"/>
      <point x="929" y="859"/>
      <point x="955" y="877"/>
      <point x="1013" y="880" type="curve"/>
      <point x="1013" y="917" type="line"/>
      <point x="715" y="917" type="line"/>
      <point x="715" y="880" type="line"/>
      <point x="785" y="880"/>
      <point x="792" y="866"/>
      <point x="800" y="858" type="curve"/>
      <point x="816" y="835"/>
      <point x="809" y="786"/>
      <point x="789" y="750" type="curve"/>
      <point x="583" y="243" type="line"/>
      <point x="361" y="704" type="line" smooth="yes"/>
      <point x="338" y="751"/>
      <point x="327" y="784"/>
      <point x="327" y="812" type="curve" smooth="yes"/>
      <point x="327" y="856"/>
      <point x="368" y="880"/>
      <point x="440" y="880" type="curve"/>
      <point x="440" y="917" type="line"/>
      <point x="11" y="917" type="line"/>
      <point x="11" y="880" type="line"/>
      <point x="113" y="869"/>
      <point x="150" y="778"/>
      <point x="175" y="728" type="curve"/>
      <point x="504" y="38" type="line"/>
      <point x="478" y="-26"/>
      <point x="405" y="-274"/>
      <point x="301" y="-274" type="curve" smooth="yes"/>
      <point x="267" y="-274"/>
      <point x="204" y="-239"/>
      <point x="162" y="-239" type="curve" smooth="yes"/>
      <point x="95" y="-239"/>
      <point x="59" y="-276"/>
      <point x="59" y="-329" type="curve" smooth="yes"/>
      <point x="59" y="-395"/>
      <point x="116" y="-444"/>
    </contour>
  </outline>
</glyph>
<glyph name="z" format="2">
  <advance width="911"/>
  <unicode hex="007A"/>
  <anchor x="459" y="-100" name="L"/>
  <anchor x="459" y="1000" name="U"/>
  <outline>
    <contour>
      <point x="41" y="0" type="line"/>
      <point x="850" y="0" type="line"/>
      <point x="861" y="281" type="line"/>
      <point x="827" y="281" type="line"/>
      <point x="806" y="96"/>
      <point x="772" y="67"/>
      <point x="598" y="67" type="curve" smooth="yes"/>
      <point x="262" y="67" type="line"/>
      <point x="877" y="880" type="line"/>
      <point x="877" y="917" type="line"/>
      <point x="109" y="917" type="line"/>
      <point x="102" y="662" type="line"/>
      <point x="141" y="662" type="line"/>
      <point x="157" y="819"/>
      <point x="190" y="849"/>
      <point x="348" y="849" type="curve" smooth="yes"/>
      <point x="651" y="849" type="line"/>
      <point x="41" y="38" type="line"/>
    </contour>
  </outline>
</glyph>
<glyph name="braceright" format="2">
  <advance width="981"/>
  <unicode hex="007D"/>
  <outline>
    <contour>
      <point x="761" y="466" type="curve"/>
      <point x="761" y="517" type="line"/>
      <point x="666" y="528"/>
      <point x="532" y="605"/>
      <point x="532" y="731" type="curve" smooth="yes"/>
      <point x="532" y="825"/>
      <point x="577" y="941"/>
      <point x="577" y="1053" type="curve" smooth="yes"/>
      <point x="577" y="1245"/>
      <point x="391" y="1404"/>
      <point x="205" y="1424" type="curve"/>
      <point x="205" y="1389" type="line"/>
      <point x="337" y="1355"/>
      <point x="427" y="1270"/>
      <point x="427" y="1124" type="curve" smooth="yes"/>
      <point x="427" y="1029"/>
      <point x="384" y="943"/>
      <point x="384" y="846" type="curve" smooth="yes"/>
      <point x="384" y="668"/>
      <point x="500" y="549"/>
      <point x="658" y="491" type="curve"/>
      <point x="499" y="435"/>
      <point x="384" y="312"/>
      <point x="384" y="132" type="curve" smooth="yes"/>
      <point x="384" y="38"/>
      <point x="427" y="-47"/>
      <point x="427" y="-141" type="curve" smooth="yes"/>
      <point x="427" y="-289"/>
      <point x="337" y="-373"/>
      <point x="205" y="-406" type="curve"/>
      <point x="205" y="-443" type="line"/>
      <point x="397" y="-422"/>
      <point x="577" y="-258"/>
      <point x="577" y="-57" type="curve" smooth="yes"/>
      <point x="577" y="49"/>
      <point x="532" y="158"/>
      <point x="532" y="246" type="curve" smooth="yes"/>
      <point x="532" y="374"/>
      <point x="665" y="453"/>
    </contour>
  </outline>
</glyph>
<glyph name="cent" format="2">
  <advance width="1026"/>
  <unicode hex="00A2"/>
  <outline>
    <contour>
      <point x="872" y="363" type="line"/>
      <point x="792" y="173"/>
      <point x="698" y="130"/>
      <point x="588" y="130" type="curve" smooth="yes"/>
      <point x="531" y="130"/>
      <point x="484" y="148"/>
      <point x="443" y="175" type="curve"/>
      <point x="665" y="789" type="line"/>
      <point x="668" y="780"/>
      <point x="670" y="769"/>
      <point x="670" y="747" type="curve" smooth="yes"/>
      <point x="670" y="654"/>
      <point x="739" y="639"/>
      <point x="781" y="639" type="curve" smooth="yes"/>
      <point x="845" y="639"/>
      <point x="875" y="677"/>
      <point x="875" y="724" type="curve" smooth="yes"/>
      <point x="875" y="818"/>
      <point x="779" y="887"/>
      <point x="712" y="917" type="curve"/>
      <point x="859" y="1327" type="line"/>
      <point x="789" y="1327" type="line"/>
      <point x="647" y="935" type="line"/>
      <point x="620" y="942"/>
      <point x="593" y="943"/>
      <point x="565" y="943" type="curve" smooth="yes"/>
      <point x="325" y="943"/>
      <point x="126" y="747"/>
      <point x="126" y="458" type="curve" smooth="yes"/>
      <point x="126" y="258"/>
      <point x="205" y="112"/>
      <point x="320" y="32" type="curve"/>
      <point x="169" y="-378" type="line"/>
      <point x="241" y="-378" type="line"/>
      <point x="376" y="0" type="line"/>
      <point x="420" y="-19"/>
      <point x="468" y="-30"/>
      <point x="517" y="-30" type="curve" smooth="yes"/>
      <point x="694" y="-30"/>
      <point x="867" y="127"/>
      <point x="899" y="348" type="curve"/>
    </contour>
    <contour>
      <point x="389" y="227" type="line"/>
      <point x="322" y="303"/>
      <point x="290" y="421"/>
      <point x="290" y="544" type="curve" smooth="yes"/>
      <point x="290" y="734"/>
      <point x="379" y="877"/>
      <point x="530" y="877" type="curve" smooth="yes"/>
      <point x="569" y="877"/>
      <point x="594" y="869"/>
      <point x="618" y="857" type="curve"/>
    </contour>
  </outline>
</glyph>
<glyph name="yen" format="2">
  <advance width="1026"/>
  <unicode hex="00A5"/>
  <outline>
    <contour>
      <point x="598" y="353" type="line"/>
      <point x="1005" y="353" type="line"/>
      <point x="1005" y="425" type="line"/>
      <point x="598" y="425" type="line"/>
      <point x="598" y="588" type="line"/>
      <point x="605" y="605" type="line"/>
      <point x="1005" y="605" type="line"/>
      <point x="1005" y="678" type="line"/>
      <point x="635" y="678" type="line"/>
      <point x="852" y="1166" type="line" smooth="yes"/>
      <point x="894" y="1258"/>
      <point x="925" y="1320"/>
      <point x="1026" y="1320" type="curve"/>
      <point x="1026" y="1357" type="line"/>
      <point x="678" y="1357" type="line"/>
      <point x="678" y="1320" type="line"/>
      <point x="755" y="1318"/>
      <point x="790" y="1303"/>
      <point x="787" y="1252" type="curve" smooth="yes"/>
      <point x="786" y="1234"/>
      <point x="781" y="1211"/>
      <point x="769" y="1183" type="curve" smooth="yes"/>
      <point x="557" y="678" type="line"/>
      <point x="343" y="1198" type="line" smooth="yes"/>
      <point x="331" y="1230"/>
      <point x="301" y="1266"/>
      <point x="346" y="1296" type="curve" smooth="yes"/>
      <point x="374" y="1313"/>
      <point x="398" y="1318"/>
      <point x="446" y="1320" type="curve"/>
      <point x="446" y="1357" type="line"/>
      <point x="2" y="1357" type="line"/>
      <point x="2" y="1320" type="line"/>
      <point x="99" y="1315"/>
      <point x="131" y="1257"/>
      <point x="166" y="1175" type="curve" smooth="yes"/>
      <point x="378" y="678" type="line"/>
      <point x="20" y="678" type="line"/>
      <point x="20" y="605" type="line"/>
      <point x="412" y="605" type="line"/>
      <point x="425" y="570" type="line"/>
      <point x="425" y="425" type="line"/>
      <point x="20" y="425" type="line"/>
      <point x="20" y="353" type="line"/>
      <point x="425" y="353" type="line"/>
      <point x="425" y="244" type="line" smooth="yes"/>
      <point x="425" y="98"/>
      <point x="424" y="41"/>
      <point x="252" y="41" type="curve"/>
      <point x="252" y="0" type="line"/>
      <point x="769" y="0" type="line"/>
      <point x="769" y="41" type="line"/>
      <point x="611" y="41"/>
      <point x="598" y="78"/>
      <point x="598" y="244" type="curve" smooth="yes"/>
    </contour>
  </outline>
</glyph>
<glyph name="brokenbar" format="2">
  <advance width="681"/>
  <unicode hex="00A6"/>
  <outline>
    <contour>
      <point x="290" y="662" type="line"/>
      <point x="390" y="662" type="line"/>
      <point x="390" y="1450" type="line"/>
      <point x="290" y="1450" type="line"/>
    </contour>
    <contour>
      <point x="290" y="-391" type="line"/>
      <point x="390" y="-391" type="line"/>
      <point x="390" y="398" type="line"/>
      <point x="290" y="398" type="line"/>
    </contour>
  </outline>
</glyph>
<glyph name="dieresis" format="2">
  <advance width="613"/>
  <unicode hex="00A8"/>
  <anchor x="306" y="1375" name="U"/>
  <outline>
    <contour>
      <point x="613" y="1228" type="curve"/>
      <point x="613" y="1283"/>
      <point x="566" y="1331"/>
      <point x="511" y="1331" type="curve" smooth="yes"/>
      <point x="459" y="1331"/>
      <point x="408" y="1280"/>
      <point x="408" y="1228" type="curve" smooth="yes"/>
      <point x="408" y="1175"/>
      <point x="455" y="1126"/>
      <point x="511" y="1126" type="curve" smooth="yes"/>
      <point x="566" y="1126"/>
      <point x="613" y="1174"/>
    </contour>
    <contour>
      <point x="204" y="1228" type="curve"/>
      <point x="204" y="1283"/>
      <point x="156" y="1331"/>
      <point x="100" y="1331" type="curve" smooth="yes"/>
      <point x="49" y="1331"/>
      <point x="0" y="1280"/>
      <point x="0" y="1228" type="curve" smooth="yes"/>
      <point x="0" y="1175"/>
      <point x="47" y="1126"/>
      <point x="100" y="1126" type="curve" smooth="yes"/>
      <point x="156" y="1126"/>
      <point x="204" y="1174"/>
    </contour>
  </outline>
</glyph>
<glyph name="guillemotleft" format="2">
  <advance width="1026"/>
  <unicode hex="00AB"/>
  <outline>
    <contour>
      <point x="904" y="-8" type="line"/>
      <point x="960" y="-8" type="line"/>
      <point x="715" y="466" type="line"/>
      <point x="960" y="935" type="line"/>
      <point x="904" y="935" type="line"/>
      <point x="508" y="466" type="line"/>
    </contour>
    <contour>
      <point x="451" y="-8" type="line"/>
      <point x="506" y="-8" type="line"/>
      <point x="262" y="466" type="line"/>
      <point x="506" y="935" type="line"/>
      <point x="451" y="935" type="line"/>
      <point x="64" y="466" type="line"/>
    </contour>
  </outline>
</glyph>
<glyph name="logicalnot" format="2">
  <advance width="1222"/>
  <unicode hex="00AC"/>
  <outline>
    <contour>
      <point x="1026" y="373" type="line"/>
      <point x="1143" y="373" type="line"/>
      <point x="1143" y="828" type="line"/>
      <point x="79" y="828" type="line"/>
      <point x="79" y="710" type="line"/>
      <point x="1026" y="710" type="line"/>
    </contour>
  </outline>
</glyph>
<glyph name="registered" format="2">
  <advance width="1558"/>
  <unicode hex="00AE"/>
  <outline>
    <contour>
      <point x="1490" y="678" type="curve"/>
      <point x="1490" y="1076"/>
      <point x="1180" y="1389"/>
      <point x="780" y="1389" type="curve" smooth="yes"/>
      <point x="427" y="1389"/>
      <point x="69" y="1121"/>
      <point x="69" y="678" type="curve" smooth="yes"/>
      <point x="69" y="273"/>
      <point x="389" y="-32"/>
      <point x="780" y="-32" type="curve" smooth="yes"/>
      <point x="1172" y="-32"/>
      <point x="1490" y="278"/>
    </contour>
    <contour>
      <point x="1427" y="678" type="curve"/>
      <point x="1427" y="301"/>
      <point x="1124" y="32"/>
      <point x="780" y="32" type="curve" smooth="yes"/>
      <point x="429" y="32"/>
      <point x="132" y="305"/>
      <point x="132" y="678" type="curve" smooth="yes"/>
      <point x="132" y="1079"/>
      <point x="461" y="1327"/>
      <point x="780" y="1327" type="curve" smooth="yes"/>
      <point x="1136" y="1327"/>
      <point x="1427" y="1043"/>
    </contour>
    <contour>
      <point x="994" y="250" type="line"/>
      <point x="1180" y="250" type="line"/>
      <point x="1180" y="284" type="line"/>
      <point x="1117" y="289"/>
      <point x="1092" y="318"/>
      <point x="1058" y="371" type="curve" smooth="yes"/>
      <point x="850" y="668" type="line"/>
      <point x="929" y="689"/>
      <point x="1071" y="742"/>
      <point x="1071" y="891" type="curve" smooth="yes"/>
      <point x="1071" y="1013"/>
      <point x="964" y="1115"/>
      <point x="774" y="1115" type="curve" smooth="yes"/>
      <point x="386" y="1115" type="line"/>
      <point x="386" y="1079" type="line"/>
      <point x="483" y="1079"/>
      <point x="477" y="1044"/>
      <point x="477" y="943" type="curve" smooth="yes"/>
      <point x="477" y="420" type="line" smooth="yes"/>
      <point x="477" y="318"/>
      <point x="478" y="284"/>
      <point x="374" y="284" type="curve"/>
      <point x="374" y="250" type="line"/>
      <point x="742" y="250" type="line"/>
      <point x="742" y="284" type="line"/>
      <point x="688" y="284"/>
      <point x="623" y="291"/>
      <point x="623" y="345" type="curve" smooth="yes"/>
      <point x="623" y="654" type="line"/>
      <point x="700" y="654" type="line"/>
    </contour>
    <contour>
      <point x="911" y="880" type="curve"/>
      <point x="911" y="703"/>
      <point x="710" y="698"/>
      <point x="623" y="698" type="curve"/>
      <point x="623" y="1058" type="line"/>
      <point x="654" y="1066"/>
      <point x="682" y="1071"/>
      <point x="707" y="1071" type="curve" smooth="yes"/>
      <point x="834" y="1071"/>
      <point x="911" y="981"/>
    </contour>
  </outline>
</glyph>
<glyph name="macron" format="2">
  <advance width="638"/>
  <unicode hex="00AF"/>
  <outline>
    <contour>
      <point x="638" y="1119" type="line"/>
      <point x="638" y="1229" type="line"/>
      <point x="0" y="1229" type="line"/>
      <point x="0" y="1119" type="line"/>
    </contour>
  </outline>
</glyph>
<glyph name="overscore" format="2">
  <advance width="643"/>
  <unicode hex="00AF"/>
  <outline>
    <contour>
      <point x="0" y="1126" type="line"/>
      <point x="643" y="1126" type="line"/>
      <point x="643" y="1236" type="line"/>
      <point x="0" y="1236" type="line"/>
    </contour>
  </outline>
</glyph>
<glyph name="plusminus" format="2">
  <advance width="1972"/>
  <unicode hex="00B1"/>
  <outline>
    <contour>
      <point x="1046" y="705" type="line"/>
      <point x="1577" y="705" type="line"/>
      <point x="1577" y="828" type="line"/>
      <point x="1046" y="828" type="line"/>
      <point x="1046" y="1183" type="line"/>
      <point x="926" y="1183" type="line"/>
      <point x="926" y="828" type="line"/>
      <point x="396" y="828" type="line"/>
      <point x="396" y="705" type="line"/>
      <point x="926" y="705" type="line"/>
      <point x="926" y="351" type="line"/>
      <point x="1046" y="351" type="line"/>
    </contour>
    <contour>
      <point x="396" y="0" type="line"/>
      <point x="1577" y="0" type="line"/>
      <point x="1577" y="122" type="line"/>
      <point x="396" y="122" type="line"/>
    </contour>
  </outline>
</glyph>
<glyph name="acute.copy1" format="2">
  <advance width="697"/>
  <unicode hex="00B4"/>
  <anchor x="299" y="1003" name="_above"/>
  <outline>
    <contour>
      <point x="573" y="1326" type="curve" smooth="yes"/>
      <point x="573" y="1357"/>
      <point x="553" y="1386"/>
      <point x="520" y="1386" type="curve" smooth="yes"/>
      <point x="470" y="1386"/>
      <point x="430" y="1354"/>
      <point x="397" y="1321" type="curve" smooth="yes"/>
      <point x="116" y="1037" type="line"/>
      <point x="198" y="1037" type="line"/>
      <point x="492" y="1222" type="line" smooth="yes"/>
      <point x="535" y="1249"/>
      <point x="573" y="1281"/>
    </contour>
  </outline>
</glyph>
<glyph name="periodcentered" format="2">
  <advance width="368"/>
  <unicode hex="00B7"/>
  <outline>
    <contour>
      <point x="299" y="667" type="curve" smooth="yes"/>
      <point x="299" y="732"/>
      <point x="248" y="781"/>
      <point x="183" y="781" type="curve" smooth="yes"/>
      <point x="118" y="781"/>
      <point x="67" y="732"/>
      <point x="67" y="667" type="curve" smooth="yes"/>
      <point x="67" y="600"/>
      <point x="118" y="552"/>
      <point x="183" y="552" type="curve" smooth="yes"/>
      <point x="248" y="552"/>
      <point x="299" y="600"/>
    </contour>
  </outline>
</glyph>
<glyph name="onesuperior" format="2">
  <advance width="737"/>
  <unicode hex="00B9"/>
  <anchor x="366" y="750" name="L"/>
  <anchor x="366" y="1626" name="U"/>
  <outline>
    <contour>
      <point x="190" y="806" type="line"/>
      <point x="558" y="806" type="line"/>
      <point x="558" y="828" type="line"/>
      <point x="436" y="828"/>
      <point x="436" y="846"/>
      <point x="436" y="950" type="curve" smooth="yes"/>
      <point x="436" y="1639" type="line"/>
      <point x="411" y="1639" type="line"/>
      <point x="174" y="1543" type="line"/>
      <point x="183" y="1523" type="line"/>
      <point x="218" y="1536"/>
      <point x="243" y="1541"/>
      <point x="262" y="1540" type="curve" smooth="yes"/>
      <point x="322" y="1537"/>
      <point x="316" y="1471"/>
      <point x="316" y="1390" type="curve" smooth="yes"/>
      <point x="316" y="950" type="line" smooth="yes"/>
      <point x="316" y="849"/>
      <point x="312" y="828"/>
      <point x="190" y="828" type="curve"/>
    </contour>
  </outline>
</glyph>
<glyph name="onehalf" format="2">
  <advance width="1519"/>
  <unicode hex="00BD"/>
  <outline>
    <contour>
      <point x="1322" y="-8" type="line"/>
      <point x="1382" y="149" type="line"/>
      <point x="1358" y="149" type="line"/>
      <point x="1320" y="97"/>
      <point x="1308" y="85"/>
      <point x="1183" y="85" type="curve" smooth="yes"/>
      <point x="968" y="85" type="line"/>
      <point x="1068" y="169"/>
      <point x="1331" y="416"/>
      <point x="1331" y="615" type="curve" smooth="yes"/>
      <point x="1331" y="751"/>
      <point x="1213" y="833"/>
      <point x="1097" y="833" type="curve" smooth="yes"/>
      <point x="914" y="833"/>
      <point x="872" y="674"/>
      <point x="864" y="601" type="curve"/>
      <point x="883" y="601" type="line"/>
      <point x="899" y="647"/>
      <point x="949" y="739"/>
      <point x="1065" y="739" type="curve" smooth="yes"/>
      <point x="1115" y="739"/>
      <point x="1227" y="700"/>
      <point x="1227" y="560" type="curve" smooth="yes"/>
      <point x="1227" y="366"/>
      <point x="981" y="146"/>
      <point x="837" y="15" type="curve"/>
      <point x="837" y="-8" type="line"/>
    </contour>
    <contour>
      <point x="1195" y="1382" type="line"/>
      <point x="1098" y="1382" type="line"/>
      <point x="235" y="-15" type="line"/>
      <point x="333" y="-15" type="line"/>
    </contour>
    <contour>
      <point x="150" y="526" type="line"/>
      <point x="462" y="526" type="line"/>
      <point x="462" y="549" type="line"/>
      <point x="357" y="549"/>
      <point x="357" y="565"/>
      <point x="357" y="670" type="curve" smooth="yes"/>
      <point x="357" y="1365" type="line"/>
      <point x="337" y="1365" type="line"/>
      <point x="137" y="1267" type="line"/>
      <point x="145" y="1245" type="line"/>
      <point x="176" y="1260"/>
      <point x="199" y="1266"/>
      <point x="215" y="1265" type="curve" smooth="yes"/>
      <point x="263" y="1261"/>
      <point x="257" y="1194"/>
      <point x="257" y="1112" type="curve" smooth="yes"/>
      <point x="257" y="670" type="line" smooth="yes"/>
      <point x="257" y="565"/>
      <point x="253" y="549"/>
      <point x="150" y="549" type="curve"/>
    </contour>
  </outline>
</glyph>
<glyph name="Eth" format="2">
  <advance width="1481"/>
  <unicode hex="00D0"/>
  <anchor x="718" y="-100" name="L"/>
  <anchor x="718" y="1435" name="U"/>
  <outline>
    <contour>
      <point x="1402" y="687" type="curve" smooth="yes"/>
      <point x="1402" y="1166"/>
      <point x="1095" y="1357"/>
      <point x="588" y="1357" type="curve" smooth="yes"/>
      <point x="36" y="1357" type="line"/>
      <point x="36" y="1320" type="line"/>
      <point x="208" y="1320"/>
      <point x="229" y="1292"/>
      <point x="229" y="1118" type="curve" smooth="yes"/>
      <point x="229" y="241" type="line" smooth="yes"/>
      <point x="229" y="112"/>
      <point x="214" y="38"/>
      <point x="36" y="38" type="curve"/>
      <point x="36" y="0" type="line"/>
      <point x="643" y="0" type="line" smooth="yes"/>
      <point x="1167" y="0"/>
      <point x="1402" y="305"/>
    </contour>
    <contour>
      <point x="1175" y="676" type="curve" smooth="yes"/>
      <point x="1175" y="298"/>
      <point x="942" y="66"/>
      <point x="635" y="69" type="curve" smooth="yes"/>
      <point x="576" y="69"/>
      <point x="506" y="80"/>
      <point x="422" y="98" type="curve"/>
      <point x="422" y="1251" type="line"/>
      <point x="500" y="1274"/>
      <point x="567" y="1281"/>
      <point x="627" y="1281" type="curve" smooth="yes"/>
      <point x="948" y="1281"/>
      <point x="1175" y="1052"/>
    </contour>
    <contour>
      <point x="36" y="678" type="line"/>
      <point x="819" y="678" type="line"/>
      <point x="819" y="792" type="line"/>
      <point x="36" y="792" type="line"/>
    </contour>
  </outline>
</glyph>
<glyph name="multiply" format="2">
  <advance width="1972"/>
  <unicode hex="00D7"/>
  <outline>
    <contour>
      <point x="1442" y="59" type="line"/>
      <point x="1519" y="136" type="line"/>
      <point x="1065" y="591" type="line"/>
      <point x="1519" y="1046" type="line"/>
      <point x="1442" y="1124" type="line"/>
      <point x="986" y="666" type="line"/>
      <point x="530" y="1124" type="line"/>
      <point x="453" y="1046" type="line"/>
      <point x="907" y="591" type="line"/>
      <point x="453" y="136" type="line"/>
      <point x="530" y="59" type="line"/>
      <point x="986" y="517" type="line"/>
    </contour>
  </outline>
</glyph>
<glyph name="Oslash" format="2">
  <advance width="1481"/>
  <unicode hex="00D8"/>
  <anchor x="737" y="-100" name="L"/>
  <anchor x="737" y="1435" name="U"/>
  <outline>
    <contour>
      <point x="751" y="1389" type="curve" smooth="yes"/>
      <point x="366" y="1389"/>
      <point x="71" y="1089"/>
      <point x="71" y="682" type="curve" smooth="yes"/>
      <point x="71" y="466"/>
      <point x="146" y="285"/>
      <point x="270" y="158" type="curve"/>
      <point x="141" y="0" type="line"/>
      <point x="201" y="-47" type="line"/>
      <point x="327" y="107" type="line"/>
      <point x="442" y="15"/>
      <point x="583" y="-32"/>
      <point x="734" y="-32" type="curve" smooth="yes"/>
      <point x="1112" y="-32"/>
      <point x="1400" y="276"/>
      <point x="1400" y="687" type="curve" smooth="yes"/>
      <point x="1400" y="890"/>
      <point x="1325" y="1067"/>
      <point x="1205" y="1191" type="curve"/>
      <point x="1340" y="1357" type="line"/>
      <point x="1280" y="1400" type="line"/>
      <point x="1151" y="1243" type="line"/>
      <point x="1041" y="1336"/>
      <point x="903" y="1389"/>
    </contour>
    <contour>
      <point x="729" y="1318" type="curve"/>
      <point x="881" y="1317"/>
      <point x="991" y="1256"/>
      <point x="1067" y="1140" type="curve"/>
      <point x="375" y="287" type="line"/>
      <point x="321" y="414"/>
      <point x="301" y="540"/>
      <point x="301" y="689" type="curve" smooth="yes"/>
      <point x="301" y="1078"/>
      <point x="458" y="1318"/>
    </contour>
    <contour>
      <point x="731" y="39" type="curve"/>
      <point x="596" y="40"/>
      <point x="488" y="103"/>
      <point x="413" y="215" type="curve"/>
      <point x="1105" y="1068" type="line"/>
      <point x="1158" y="937"/>
      <point x="1175" y="816"/>
      <point x="1174" y="660" type="curve" smooth="yes"/>
      <point x="1171" y="233"/>
      <point x="991" y="39"/>
    </contour>
  </outline>
</glyph>
<glyph name="Thorn" format="2">
  <advance width="1140"/>
  <unicode hex="00DE"/>
  <anchor x="550" y="-100" name="L"/>
  <anchor x="550" y="1435" name="U"/>
  <outline>
    <contour>
      <point x="1063" y="681" type="curve"/>
      <point x="1063" y="949"/>
      <point x="840" y="1050"/>
      <point x="514" y="1050" type="curve" smooth="yes"/>
      <point x="420" y="1050" type="line"/>
      <point x="420" y="1115" type="line" smooth="yes"/>
      <point x="420" y="1243"/>
      <point x="446" y="1320"/>
      <point x="615" y="1320" type="curve"/>
      <point x="615" y="1357" type="line"/>
      <point x="38" y="1357" type="line"/>
      <point x="38" y="1320" type="line"/>
      <point x="206" y="1320"/>
      <point x="227" y="1279"/>
      <point x="227" y="1111" type="curve" smooth="yes"/>
      <point x="227" y="241" type="line" smooth="yes"/>
      <point x="227" y="74"/>
      <point x="205" y="38"/>
      <point x="38" y="38" type="curve"/>
      <point x="38" y="0" type="line"/>
      <point x="615" y="0" type="line"/>
      <point x="615" y="38" type="line"/>
      <point x="436" y="38"/>
      <point x="420" y="106"/>
      <point x="420" y="244" type="curve" smooth="yes"/>
      <point x="420" y="305" type="line"/>
      <point x="491" y="305" type="line" smooth="yes"/>
      <point x="833" y="305"/>
      <point x="1063" y="399"/>
    </contour>
    <contour>
      <point x="830" y="678" type="curve"/>
      <point x="830" y="506"/>
      <point x="731" y="374"/>
      <point x="466" y="374" type="curve" smooth="yes"/>
      <point x="420" y="374" type="line"/>
      <point x="420" y="973" type="line"/>
      <point x="467" y="973" type="line" smooth="yes"/>
      <point x="695" y="973"/>
      <point x="830" y="882"/>
    </contour>
  </outline>
</glyph>
<glyph name="oslash" format="2">
  <advance width="1023"/>
  <unicode hex="00F8"/>
  <anchor x="509" y="0" name="H"/>
  <anchor x="509" y="-100" name="L"/>
  <anchor x="703" y="0" name="O"/>
  <anchor x="1023" y="900" name="R"/>
  <anchor x="509" y="1000" name="U"/>
  <outline>
    <contour>
      <point x="954" y="475" type="curve" smooth="yes"/>
      <point x="954" y="586"/>
      <point x="919" y="702"/>
      <point x="849" y="788" type="curve"/>
      <point x="982" y="936" type="line"/>
      <point x="936" y="981" type="line"/>
      <point x="804" y="834" type="line"/>
      <point x="732" y="902"/>
      <point x="624" y="943"/>
      <point x="512" y="943" type="curve" smooth="yes"/>
      <point x="237" y="943"/>
      <point x="69" y="697"/>
      <point x="69" y="450" type="curve" smooth="yes"/>
      <point x="69" y="329"/>
      <point x="108" y="218"/>
      <point x="175" y="131" type="curve"/>
      <point x="36" y="-24" type="line"/>
      <point x="83" y="-67" type="line"/>
      <point x="218" y="83" type="line"/>
      <point x="283" y="22"/>
      <point x="378" y="-30"/>
      <point x="503" y="-30" type="curve" smooth="yes"/>
      <point x="804" y="-30"/>
      <point x="954" y="239"/>
    </contour>
    <contour>
      <point x="481" y="880" type="curve" smooth="yes"/>
      <point x="595" y="880"/>
      <point x="677" y="782"/>
      <point x="701" y="719" type="curve"/>
      <point x="297" y="267" type="line"/>
      <point x="265" y="366"/>
      <point x="254" y="430"/>
      <point x="254" y="532" type="curve" smooth="yes"/>
      <point x="254" y="798"/>
      <point x="376" y="880"/>
    </contour>
    <contour>
      <point x="767" y="398" type="curve" smooth="yes"/>
      <point x="767" y="136"/>
      <point x="676" y="43"/>
      <point x="544" y="43" type="curve" smooth="yes"/>
      <point x="457" y="43"/>
      <point x="384" y="100"/>
      <point x="325" y="204" type="curve"/>
      <point x="728" y="653" type="line"/>
      <point x="758" y="562"/>
      <point x="767" y="487"/>
    </contour>
  </outline>
</glyph>
<glyph name="dotlessi" format="2">
  <advance width="570"/>
  <unicode hex="0131"/>
  <outline>
    <contour>
      <point x="77" y="0" type="line"/>
      <point x="526" y="0" type="line"/>
      <point x="526" y="38" type="line"/>
      <point x="451" y="38"/>
      <point x="435" y="41"/>
      <point x="408" y="71" type="curve" smooth="yes"/>
      <point x="391" y="90"/>
      <point x="384" y="126"/>
      <point x="384" y="207" type="curve" smooth="yes"/>
      <point x="384" y="943" type="line"/>
      <point x="342" y="943" type="line"/>
      <point x="64" y="833" type="line"/>
      <point x="77" y="797" type="line"/>
      <point x="135" y="816"/>
      <point x="166" y="819"/>
      <point x="190" y="797" type="curve" smooth="yes"/>
      <point x="217" y="774"/>
      <point x="217" y="724"/>
      <point x="217" y="560" type="curve" smooth="yes"/>
      <point x="217" y="207" type="line" smooth="yes"/>
      <point x="217" y="122"/>
      <point x="207" y="92"/>
      <point x="190" y="69" type="curve" smooth="yes"/>
      <point x="171" y="45"/>
      <point x="144" y="38"/>
      <point x="77" y="38" type="curve"/>
    </contour>
  </outline>
</glyph>
<glyph name="idotless" format="2">
  <advance width="567"/>
  <unicode hex="0131"/>
  <outline>
    <contour>
      <point x="521" y="0" type="line"/>
      <point x="521" y="38" type="line"/>
      <point x="402" y="38"/>
      <point x="381" y="70"/>
      <point x="381" y="185" type="curve" smooth="yes"/>
      <point x="381" y="938" type="line"/>
      <point x="337" y="938" type="line"/>
      <point x="61" y="827" type="line"/>
      <point x="74" y="792" type="line"/>
      <point x="99" y="799"/>
      <point x="125" y="807"/>
      <point x="146" y="807" type="curve" smooth="yes"/>
      <point x="206" y="807"/>
      <point x="216" y="745"/>
      <point x="216" y="686" type="curve" smooth="yes"/>
      <point x="216" y="185" type="line" smooth="yes"/>
      <point x="216" y="70"/>
      <point x="193" y="38"/>
      <point x="74" y="38" type="curve"/>
      <point x="74" y="0" type="line"/>
    </contour>
  </outline>
</glyph>
<glyph name="OE" format="2">
  <advance width="1824"/>
  <unicode hex="0152"/>
  <anchor x="920" y="-100" name="L"/>
  <anchor x="920" y="1435" name="U"/>
  <outline>
    <contour>
      <point x="1765" y="342" type="line"/>
      <point x="1726" y="342" type="line"/>
      <point x="1644" y="155"/>
      <point x="1551" y="75"/>
      <point x="1331" y="75" type="curve" smooth="yes"/>
      <point x="1124" y="75"/>
      <point x="1106" y="89"/>
      <point x="1106" y="224" type="curve" smooth="yes"/>
      <point x="1106" y="673" type="line"/>
      <point x="1288" y="673" type="line" smooth="yes"/>
      <point x="1444" y="673"/>
      <point x="1489" y="627"/>
      <point x="1497" y="471" type="curve"/>
      <point x="1538" y="471" type="line"/>
      <point x="1538" y="943" type="line"/>
      <point x="1497" y="943" type="line"/>
      <point x="1497" y="798"/>
      <point x="1431" y="750"/>
      <point x="1288" y="750" type="curve" smooth="yes"/>
      <point x="1106" y="750" type="line"/>
      <point x="1106" y="1283" type="line"/>
      <point x="1363" y="1283" type="line" smooth="yes"/>
      <point x="1567" y="1283"/>
      <point x="1582" y="1261"/>
      <point x="1626" y="1061" type="curve"/>
      <point x="1656" y="1061" type="line"/>
      <point x="1644" y="1357" type="line"/>
      <point x="905" y="1363" type="line"/>
      <point x="789" y="1366"/>
      <point x="727" y="1370"/>
      <point x="710" y="1370" type="curve" smooth="yes"/>
      <point x="307" y="1370"/>
      <point x="75" y="1061"/>
      <point x="75" y="676" type="curve" smooth="yes"/>
      <point x="75" y="290"/>
      <point x="325" y="-15"/>
      <point x="689" y="-15" type="curve" smooth="yes"/>
      <point x="747" y="-15"/>
      <point x="986" y="0"/>
      <point x="1002" y="0" type="curve" smooth="yes"/>
      <point x="1656" y="0" type="line"/>
    </contour>
    <contour>
      <point x="912" y="1043" type="curve" smooth="yes"/>
      <point x="912" y="342" type="line" smooth="yes"/>
      <point x="912" y="150"/>
      <point x="902" y="55"/>
      <point x="710" y="55" type="curve" smooth="yes"/>
      <point x="411" y="55"/>
      <point x="305" y="367"/>
      <point x="305" y="668" type="curve" smooth="yes"/>
      <point x="305" y="1056"/>
      <point x="443" y="1305"/>
      <point x="713" y="1305" type="curve" smooth="yes"/>
      <point x="891" y="1305"/>
      <point x="912" y="1221"/>
    </contour>
  </outline>
</glyph>
<glyph name="ModMacron" format="2">
  <advance width="739"/>
  <unicode hex="02C9"/>
  <anchor x="370" y="1570" name="U"/>
  <outline>
    <contour>
      <point x="0" y="1294" type="line"/>
      <point x="739" y="1294" type="line"/>
      <point x="739" y="1421" type="line"/>
      <point x="0" y="1421" type="line"/>
    </contour>
  </outline>
</glyph>
<glyph name="dotaccent" format="2">
  <advance width="205"/>
  <unicode hex="02D9"/>
  <outline>
    <contour>
      <point x="205" y="1228" type="curve"/>
      <point x="205" y="1291"/>
      <point x="167" y="1331"/>
      <point x="102" y="1331" type="curve" smooth="yes"/>
      <point x="41" y="1331"/>
      <point x="0" y="1289"/>
      <point x="0" y="1228" type="curve" smooth="yes"/>
      <point x="0" y="1166"/>
      <point x="41" y="1126"/>
      <point x="102" y="1126" type="curve" smooth="yes"/>
      <point x="167" y="1126"/>
      <point x="205" y="1164"/>
    </contour>
  </outline>
</glyph>
<glyph name="ogonek" format="2">
  <advance width="476"/>
  <unicode hex="02DB"/>
  <outline>
    <contour>
      <point x="146" y="0" type="line"/>
      <point x="66" y="-48"/>
      <point x="26" y="-112"/>
      <point x="26" y="-191" type="curve" smooth="yes"/>
      <point x="26" y="-281"/>
      <point x="93" y="-347"/>
      <point x="179" y="-347" type="curve" smooth="yes"/>
      <point x="261" y="-347"/>
      <point x="352" y="-302"/>
      <point x="453" y="-212" type="curve"/>
      <point x="413" y="-162" type="line"/>
      <point x="354" y="-220"/>
      <point x="295" y="-249"/>
      <point x="238" y="-249" type="curve" smooth="yes"/>
      <point x="184" y="-249"/>
      <point x="139" y="-204"/>
      <point x="139" y="-151" type="curve" smooth="yes"/>
      <point x="139" y="-100"/>
      <point x="171" y="-50"/>
      <point x="236" y="0" type="curve"/>
    </contour>
  </outline>
</glyph>
<glyph name="gravecomb.copy1" format="2">
  <unicode hex="0300"/>
  <anchor x="-512" y="1435" name="U"/>
  <anchor x="-512" y="1000" name="_U"/>
  <outline>
    <contour>
      <point x="-333" y="1043" type="line"/>
      <point x="-617" y="1328" type="line" smooth="yes"/>
      <point x="-654" y="1366"/>
      <point x="-702" y="1396"/>
      <point x="-736" y="1396" type="curve" smooth="yes"/>
      <point x="-776" y="1396"/>
      <point x="-800" y="1366"/>
      <point x="-800" y="1319" type="curve" smooth="yes"/>
      <point x="-800" y="1283"/>
      <point x="-745" y="1251"/>
      <point x="-711" y="1230" type="curve" smooth="yes"/>
      <point x="-416" y="1043" type="line"/>
    </contour>
  </outline>
</glyph>
<glyph name="acutecomb" format="2">
  <unicode hex="0301"/>
  <anchor x="-512" y="1435" name="U"/>
  <anchor x="-512" y="1000" name="_U"/>
  <outline>
    <contour>
      <point x="-225" y="1331" type="curve"/>
      <point x="-225" y="1358"/>
      <point x="-258" y="1396"/>
      <point x="-278" y="1396" type="curve" smooth="yes"/>
      <point x="-322" y="1396"/>
      <point x="-367" y="1365"/>
      <point x="-402" y="1328" type="curve" smooth="yes"/>
      <point x="-687" y="1043" type="line"/>
      <point x="-604" y="1043" type="line"/>
      <point x="-308" y="1230" type="line" smooth="yes"/>
      <point x="-266" y="1258"/>
      <point x="-225" y="1291"/>
    </contour>
  </outline>
</glyph>
<glyph name="uni0308" format="2">
  <unicode hex="0308"/>
  <anchor x="-512" y="1435" name="U"/>
  <anchor x="-512" y="1000" name="_U"/>
  <outline>
    <contour>
      <point x="-205" y="1228" type="curve"/>
      <point x="-205" y="1283"/>
      <point x="-252" y="1331"/>
      <point x="-308" y="1331" type="curve" smooth="yes"/>
      <point x="-359" y="1331"/>
      <point x="-411" y="1280"/>
      <point x="-411" y="1228" type="curve" smooth="yes"/>
      <point x="-411" y="1175"/>
      <point x="-363" y="1126"/>
      <point x="-308" y="1126" type="curve" smooth="yes"/>
      <point x="-252" y="1126"/>
      <point x="-205" y="1174"/>
    </contour>
    <contour>
      <point x="-615" y="1228" type="curve"/>
      <point x="-615" y="1283"/>
      <point x="-662" y="1331"/>
      <point x="-719" y="1331" type="curve" smooth="yes"/>
      <point x="-769" y="1331"/>
      <point x="-819" y="1280"/>
      <point x="-819" y="1228" type="curve" smooth="yes"/>
      <point x="-819" y="1175"/>
      <point x="-772" y="1126"/>
      <point x="-719" y="1126" type="curve" smooth="yes"/>
      <point x="-662" y="1126"/>
      <point x="-615" y="1174"/>
    </contour>
  </outline>
</glyph>
<glyph name="uni030A.copy1" format="2">
  <unicode hex="030A"/>
  <anchor x="-526" y="1435" name="U"/>
  <anchor x="-526" y="1000" name="_U"/>
  <outline>
    <contour>
      <point x="-565" y="1235" type="curve"/>
      <point x="-565" y="1352"/>
      <point x="-659" y="1426"/>
      <point x="-755" y="1426" type="curve" smooth="yes"/>
      <point x="-857" y="1426"/>
      <point x="-948" y="1349"/>
      <point x="-948" y="1235" type="curve" smooth="yes"/>
      <point x="-948" y="1120"/>
      <point x="-849" y="1043"/>
      <point x="-755" y="1043" type="curve" smooth="yes"/>
      <point x="-659" y="1043"/>
      <point x="-565" y="1120"/>
    </contour>
    <contour>
      <point x="-633" y="1235" type="curve"/>
      <point x="-633" y="1168"/>
      <point x="-687" y="1112"/>
      <point x="-755" y="1112" type="curve" smooth="yes"/>
      <point x="-818" y="1112"/>
      <point x="-879" y="1158"/>
      <point x="-879" y="1235" type="curve" smooth="yes"/>
      <point x="-879" y="1308"/>
      <point x="-821" y="1357"/>
      <point x="-755" y="1357" type="curve" smooth="yes"/>
      <point x="-694" y="1357"/>
      <point x="-633" y="1308"/>
    </contour>
  </outline>
</glyph>
<glyph name="uni030C.copy1" format="2">
  <unicode hex="030C"/>
  <anchor x="-512" y="1435" name="U"/>
  <anchor x="-512" y="1000" name="_U"/>
  <outline>
    <contour>
      <point x="-446" y="1043" type="line"/>
      <point x="-189" y="1387" type="line"/>
      <point x="-259" y="1387" type="line"/>
      <point x="-511" y="1175" type="line"/>
      <point x="-761" y="1387" type="line"/>
      <point x="-832" y="1387" type="line"/>
      <point x="-574" y="1043" type="line"/>
    </contour>
  </outline>
</glyph>
<glyph name="absNumberSign" format="2">
  <advance width="1600"/>
  <unicode hex="0600"/>
  <anchor x="331" y="450" name="digit"/>
  <outline>
    <contour>
      <point x="1411" y="346" type="curve" smooth="yes"/>
      <point x="1356" y="372"/>
      <point x="1345" y="380"/>
      <point x="1345" y="433" type="curve" smooth="yes"/>
      <point x="1345" y="483"/>
      <point x="1387" y="645"/>
      <point x="1456" y="683" type="curve" smooth="yes"/>
      <point x="1486" y="698"/>
      <point x="1518" y="942"/>
      <point x="1474" y="942" type="curve" smooth="yes"/>
      <point x="1423" y="942"/>
      <point x="1249" y="656"/>
      <point x="1249" y="364" type="curve" smooth="yes"/>
      <point x="1249" y="291"/>
      <point x="1065" y="186"/>
      <point x="762" y="186" type="curve" smooth="yes"/>
      <point x="480" y="186"/>
      <point x="400" y="208"/>
      <point x="164" y="268" type="curve" smooth="yes"/>
      <point x="131" y="276"/>
      <point x="85" y="200"/>
      <point x="112" y="183" type="curve" smooth="yes"/>
      <point x="269" y="76"/>
      <point x="458" y="-10"/>
      <point x="746" y="-10" type="curve" smooth="yes"/>
      <point x="1087" y="-10"/>
      <point x="1243" y="139"/>
      <point x="1310" y="139" type="curve" smooth="yes"/>
      <point x="1335" y="139"/>
      <point x="1327" y="134"/>
      <point x="1343" y="134" type="curve" smooth="yes"/>
      <point x="1405" y="134"/>
      <point x="1452" y="326"/>
    </contour>
  </outline>
</glyph>
<glyph name="absFootnoteSign" format="2">
  <advance width="2033"/>
  <unicode hex="0602"/>
  <anchor x="911" y="450" name="digit"/>
  <outline>
    <contour>
      <point x="103" y="333" type="curve" smooth="yes"/>
      <point x="103" y="76"/>
      <point x="529" y="-10"/>
      <point x="1051" y="-10" type="curve" smooth="yes"/>
      <point x="1383" y="-10"/>
      <point x="1774" y="89"/>
      <point x="1870" y="134" type="curve" smooth="yes"/>
      <point x="1925" y="161"/>
      <point x="1955" y="293"/>
      <point x="1900" y="275" type="curve" smooth="yes"/>
      <point x="1755" y="227"/>
      <point x="1469" y="186"/>
      <point x="1159" y="186" type="curve" smooth="yes"/>
      <point x="851" y="186"/>
      <point x="250" y="257"/>
      <point x="250" y="410" type="curve" smooth="yes"/>
      <point x="250" y="572"/>
      <point x="566" y="653"/>
      <point x="566" y="473" type="curve" smooth="yes"/>
      <point x="566" y="372"/>
      <point x="540" y="284"/>
      <point x="480" y="196" type="curve" smooth="yes"/>
      <point x="450" y="153"/>
      <point x="508" y="103"/>
      <point x="538" y="150" type="curve" smooth="yes"/>
      <point x="631" y="301"/>
      <point x="708" y="419"/>
      <point x="708" y="570" type="curve" smooth="yes"/>
      <point x="708" y="1040"/>
      <point x="103" y="817"/>
    </contour>
  </outline>
</glyph>
<glyph name="absSamvat" format="2">
  <advance width="2996"/>
  <unicode hex="0604"/>
  <anchor x="481" y="450" name="digit"/>
  <outline>
    <contour>
      <point x="861" y="162" type="curve" smooth="yes"/>
      <point x="700" y="162"/>
      <point x="483" y="183"/>
      <point x="161" y="253" type="curve" smooth="yes"/>
      <point x="125" y="261"/>
      <point x="81" y="187"/>
      <point x="117" y="164" type="curve" smooth="yes"/>
      <point x="285" y="57"/>
      <point x="600" y="-34"/>
      <point x="963" y="-34" type="curve" smooth="yes"/>
      <point x="1594" y="-34"/>
      <point x="1998" y="291"/>
      <point x="2053" y="291" type="curve" smooth="yes"/>
      <point x="2076" y="291"/>
      <point x="2098" y="276"/>
      <point x="2157" y="255" type="curve" smooth="yes"/>
      <point x="2185" y="245"/>
      <point x="2292" y="393"/>
      <point x="2255" y="405" type="curve" smooth="yes"/>
      <point x="2034" y="477"/>
      <point x="1822" y="678"/>
      <point x="1822" y="792" type="curve" smooth="yes"/>
      <point x="1822" y="861"/>
      <point x="1870" y="927"/>
      <point x="1933" y="928" type="curve" smooth="yes"/>
      <point x="2065" y="930"/>
      <point x="2187" y="781"/>
      <point x="2316" y="781" type="curve" smooth="yes"/>
      <point x="2445" y="781"/>
      <point x="2509" y="916"/>
      <point x="2543" y="916" type="curve" smooth="yes"/>
      <point x="2565" y="916"/>
      <point x="2582" y="885"/>
      <point x="2645" y="885" type="curve" smooth="yes"/>
      <point x="2782" y="885"/>
      <point x="2874" y="1170"/>
      <point x="2892" y="1295" type="curve" smooth="yes"/>
      <point x="2894" y="1309"/>
      <point x="2857" y="1329"/>
      <point x="2855" y="1317" type="curve" smooth="yes"/>
      <point x="2832" y="1177"/>
      <point x="2758" y="1076"/>
      <point x="2685" y="1076" type="curve" smooth="yes"/>
      <point x="2605" y="1076"/>
      <point x="2605" y="1169"/>
      <point x="2556" y="1169" type="curve" smooth="yes"/>
      <point x="2476" y="1169"/>
      <point x="2462" y="972"/>
      <point x="2337" y="972" type="curve" smooth="yes"/>
      <point x="2202" y="972"/>
      <point x="2107" y="1103"/>
      <point x="1980" y="1103" type="curve" smooth="yes"/>
      <point x="1884" y="1103"/>
      <point x="1745" y="994"/>
      <point x="1745" y="716" type="curve" smooth="yes"/>
      <point x="1745" y="573"/>
      <point x="1831" y="477"/>
      <point x="1899" y="426" type="curve"/>
      <point x="1888" y="509" type="line"/>
      <point x="1845" y="509"/>
      <point x="1506" y="162"/>
    </contour>
  </outline>
</glyph>
<glyph name="absComma" format="2">
  <advance width="661"/>
  <unicode hex="060C"/>
  <outline>
    <contour>
      <point x="317" y="680" type="curve" smooth="yes"/>
      <point x="28" y="236"/>
      <point x="149" y="-32"/>
      <point x="332" y="-32" type="curve" smooth="yes"/>
      <point x="557" y="-32"/>
      <point x="563" y="354"/>
      <point x="419" y="354" type="curve" smooth="yes"/>
      <point x="308" y="354"/>
      <point x="321" y="231"/>
      <point x="364" y="213" type="curve"/>
      <point x="247" y="213"/>
      <point x="222" y="425"/>
      <point x="352" y="673" type="curve" smooth="yes"/>
      <point x="357" y="684"/>
      <point x="326" y="693"/>
    </contour>
  </outline>
</glyph>
<glyph name="absDateSeparator" format="2">
  <advance width="1026"/>
  <unicode hex="060D"/>
  <outline>
    <contour>
      <point x="788" y="868" type="curve" smooth="yes"/>
      <point x="536" y="727"/>
      <point x="286" y="291"/>
      <point x="200" y="-50" type="curve" smooth="yes"/>
      <point x="191" y="-86"/>
      <point x="264" y="-59"/>
      <point x="278" y="-19" type="curve" smooth="yes"/>
      <point x="351" y="190"/>
      <point x="559" y="408"/>
      <point x="714" y="496" type="curve" smooth="yes"/>
      <point x="787" y="537"/>
      <point x="879" y="918"/>
    </contour>
  </outline>
</glyph>
<glyph name="absSmallHighSadMark" format="2">
  <unicode hex="0610"/>
  <anchor x="2" y="5" name="_honorific"/>
  <anchor x="6" y="1" name="_mUpper"/>
  <anchor x="0" y="857" name="mUpper"/>
  <outline>
    <component base="nlqKharizabar" xScale="0.77" yScale="0.77" xOffset="-239" yOffset="-71"/>
    <contour>
      <point x="283" y="529" type="curve" smooth="yes"/>
      <point x="283" y="596"/>
      <point x="256" y="634"/>
      <point x="197" y="634" type="curve" smooth="yes"/>
      <point x="89" y="634"/>
      <point x="-7" y="519"/>
      <point x="-73" y="377" type="curve" smooth="yes"/>
      <point x="-88" y="345"/>
      <point x="-43" y="345"/>
      <point x="-28" y="373" type="curve" smooth="yes"/>
      <point x="30" y="480"/>
      <point x="124" y="511"/>
      <point x="175" y="511" type="curve" smooth="yes"/>
      <point x="200" y="511"/>
      <point x="214" y="498"/>
      <point x="214" y="477" type="curve" smooth="yes"/>
      <point x="214" y="421"/>
      <point x="63" y="390"/>
      <point x="-35" y="390" type="curve" smooth="yes"/>
      <point x="-136" y="390"/>
      <point x="-167" y="440"/>
      <point x="-167" y="511" type="curve" smooth="yes"/>
      <point x="-167" y="516"/>
      <point x="-183" y="490"/>
      <point x="-183" y="483" type="curve" smooth="yes"/>
      <point x="-190" y="356"/>
      <point x="-231" y="204"/>
      <point x="-88" y="204" type="curve" smooth="yes"/>
      <point x="65" y="204"/>
      <point x="283" y="361"/>
    </contour>
  </outline>
</glyph>
<glyph name="absSmallHighAinMark" format="2">
  <unicode hex="0611"/>
  <anchor x="55" y="5" name="_honorific"/>
  <anchor x="53" y="1" name="_mUpper"/>
  <anchor x="55" y="914" name="mUpper"/>
  <outline>
    <component base="nlqKharizabar" xScale="0.77" yScale="0.77" xOffset="-151" yOffset="-71"/>
    <contour>
      <point x="187" y="687" type="curve" smooth="yes"/>
      <point x="80" y="687"/>
      <point x="27" y="597"/>
      <point x="-12" y="529" type="curve" smooth="yes"/>
      <point x="-54" y="456"/>
      <point x="-44" y="411"/>
      <point x="-44" y="383" type="curve" smooth="yes"/>
      <point x="-44" y="340"/>
      <point x="-15" y="300"/>
      <point x="59" y="284" type="curve"/>
      <point x="59" y="284"/>
      <point x="225" y="430"/>
      <point x="225" y="430" type="curve"/>
      <point x="127" y="377"/>
      <point x="71" y="476"/>
      <point x="73" y="515" type="curve" smooth="yes"/>
      <point x="74" y="538"/>
      <point x="105" y="596"/>
      <point x="160" y="596" type="curve" smooth="yes"/>
      <point x="207" y="596"/>
      <point x="219" y="569"/>
      <point x="252" y="569" type="curve" smooth="yes"/>
      <point x="318" y="569"/>
      <point x="290" y="687"/>
    </contour>
    <contour>
      <point x="0" y="204" type="curve" smooth="yes"/>
      <point x="152" y="204"/>
      <point x="302" y="337"/>
      <point x="359" y="476" type="curve" smooth="yes"/>
      <point x="366" y="493"/>
      <point x="317" y="524"/>
      <point x="303" y="504" type="curve" smooth="yes"/>
      <point x="248" y="426"/>
      <point x="151" y="390"/>
      <point x="53" y="390" type="curve" smooth="yes"/>
      <point x="-48" y="390"/>
      <point x="-79" y="431"/>
      <point x="-79" y="515" type="curve" smooth="yes"/>
      <point x="-79" y="521"/>
      <point x="-95" y="490"/>
      <point x="-95" y="483" type="curve" smooth="yes"/>
      <point x="-95" y="356"/>
      <point x="-142" y="204"/>
    </contour>
  </outline>
</glyph>
<glyph name="absSmallHighRehHahMark" format="2">
  <unicode hex="0612"/>
  <anchor x="-3" y="142" name="_honorific"/>
  <anchor x="0" y="140" name="_mUpper"/>
  <anchor x="0" y="788" name="mUpper"/>
  <outline>
    <contour>
      <point x="59" y="459" type="curve" smooth="yes"/>
      <point x="59" y="380"/>
      <point x="-39" y="356"/>
      <point x="-182" y="277" type="curve" smooth="yes"/>
      <point x="-233" y="249"/>
      <point x="-275" y="219"/>
      <point x="-308" y="148" type="curve" smooth="yes"/>
      <point x="-314" y="135"/>
      <point x="-284" y="113"/>
      <point x="-274" y="125" type="curve" smooth="yes"/>
      <point x="-208" y="204"/>
      <point x="-166" y="197"/>
      <point x="-61" y="257" type="curve" smooth="yes"/>
      <point x="53" y="322"/>
      <point x="153" y="468"/>
      <point x="153" y="563" type="curve" smooth="yes"/>
      <point x="153" y="601"/>
      <point x="31" y="603"/>
      <point x="-41" y="603" type="curve" smooth="yes"/>
      <point x="-145" y="603"/>
      <point x="-227" y="549"/>
      <point x="-288" y="396" type="curve" smooth="yes"/>
      <point x="-294" y="381"/>
      <point x="-266" y="360"/>
      <point x="-258" y="374" type="curve" smooth="yes"/>
      <point x="-213" y="452"/>
      <point x="-180" y="479"/>
      <point x="-124" y="479" type="curve" smooth="yes"/>
      <point x="-83" y="479"/>
      <point x="59" y="486"/>
    </contour>
    <contour>
      <point x="265" y="547" type="curve" smooth="yes"/>
      <point x="213" y="345"/>
      <point x="190" y="273"/>
      <point x="11" y="181" type="curve" smooth="yes"/>
      <point x="-5" y="174"/>
      <point x="8" y="139"/>
      <point x="26" y="141" type="curve" smooth="yes"/>
      <point x="47" y="143"/>
      <point x="206" y="161"/>
      <point x="221" y="176" type="curve" smooth="yes"/>
      <point x="239" y="194"/>
      <point x="298" y="434"/>
      <point x="308" y="540" type="curve" smooth="yes"/>
      <point x="310" y="562"/>
      <point x="269" y="564"/>
    </contour>
  </outline>
</glyph>
<glyph name="absSemicolon" format="2">
  <advance width="589"/>
  <unicode hex="061B"/>
  <outline>
    <component base="_nukta" xScale="0.8" yScale="0.8" xOffset="-11" yOffset="173"/>
    <contour>
      <point x="446" y="651" type="curve" smooth="yes"/>
      <point x="446" y="671"/>
      <point x="292" y="736"/>
      <point x="292" y="858" type="curve" smooth="yes"/>
      <point x="292" y="898"/>
      <point x="308" y="945"/>
      <point x="347" y="999" type="curve" smooth="yes"/>
      <point x="359" y="1014"/>
      <point x="326" y="1043"/>
      <point x="315" y="1031" type="curve" smooth="yes"/>
      <point x="211" y="918"/>
      <point x="140" y="806"/>
      <point x="140" y="705" type="curve" smooth="yes"/>
      <point x="140" y="595"/>
      <point x="271" y="493"/>
      <point x="298" y="493" type="curve" smooth="yes"/>
      <point x="324" y="493"/>
      <point x="446" y="622"/>
    </contour>
  </outline>
</glyph>
<glyph name="absKashmiriYeh" format="2">
  <advance width="1358"/>
  <unicode hex="0620"/>
  <anchor x="236" y="1411" name="alef"/>
  <anchor x="420" y="1396" name="honorific"/>
  <anchor x="240" y="-920" name="mLower"/>
  <anchor x="238" y="1295" name="mUpper"/>
  <outline>
    <contour>
      <point x="563" y="745" type="curve" smooth="yes"/>
      <point x="563" y="603"/>
      <point x="603" y="521"/>
      <point x="658" y="471" type="curve" smooth="yes"/>
      <point x="775" y="366"/>
      <point x="960" y="412"/>
      <point x="960" y="349" type="curve" smooth="yes"/>
      <point x="960" y="154"/>
      <point x="483" y="-328"/>
      <point x="248" y="-253" type="curve" smooth="yes"/>
      <point x="170" y="-228"/>
      <point x="54" y="-600"/>
      <point x="160" y="-600" type="curve" smooth="yes"/>
      <point x="789" y="-600"/>
      <point x="1189" y="548"/>
      <point x="1025" y="684" type="curve" smooth="yes"/>
      <point x="953" y="744"/>
      <point x="634" y="727"/>
      <point x="634" y="843" type="curve" smooth="yes"/>
      <point x="634" y="1002"/>
      <point x="958" y="1367"/>
      <point x="1076" y="1367" type="curve" smooth="yes"/>
      <point x="1094" y="1367"/>
      <point x="1099" y="1362"/>
      <point x="1109" y="1362" type="curve" smooth="yes"/>
      <point x="1138" y="1362"/>
      <point x="1293" y="1715"/>
      <point x="1207" y="1715" type="curve" smooth="yes"/>
      <point x="1025" y="1715"/>
      <point x="563" y="1202"/>
    </contour>
  </outline>
</glyph>
<glyph name="nlqArabicHamza" format="2">
  <advance width="1082"/>
  <unicode hex="0621"/>
  <anchor x="360" y="1688" name="honorific"/>
  <anchor x="538" y="-274" name="mLower"/>
  <anchor x="538" y="1327" name="mUpper"/>
  <outline>
    <contour>
      <point x="940" y="768" type="curve" smooth="yes"/>
      <point x="593" y="544"/>
      <point x="274" y="373"/>
      <point x="123" y="-5" type="curve" smooth="yes"/>
      <point x="112" y="-33"/>
      <point x="184" y="-24"/>
      <point x="192" y="-5" type="curve" smooth="yes"/>
      <point x="320" y="298"/>
      <point x="529" y="398"/>
      <point x="879" y="649" type="curve" smooth="yes"/>
      <point x="926" y="683"/>
      <point x="997" y="806"/>
    </contour>
    <contour>
      <point x="598" y="1009" type="curve" smooth="yes"/>
      <point x="454" y="1009"/>
      <point x="343" y="822"/>
      <point x="246" y="706" type="curve" smooth="yes"/>
      <point x="144" y="582"/>
      <point x="121" y="522"/>
      <point x="121" y="473" type="curve" smooth="yes"/>
      <point x="121" y="392"/>
      <point x="175" y="314"/>
      <point x="313" y="284" type="curve"/>
      <point x="313" y="284"/>
      <point x="611" y="553"/>
      <point x="611" y="553" type="curve"/>
      <point x="422" y="453"/>
      <point x="336" y="645"/>
      <point x="340" y="721" type="curve" smooth="yes"/>
      <point x="343" y="762"/>
      <point x="400" y="872"/>
      <point x="500" y="872" type="curve" smooth="yes"/>
      <point x="593" y="872"/>
      <point x="615" y="825"/>
      <point x="677" y="825" type="curve" smooth="yes"/>
      <point x="799" y="825"/>
      <point x="792" y="1009"/>
    </contour>
  </outline>
</glyph>
<glyph name="absHah" format="2">
  <advance width="1681"/>
  <unicode hex="062D"/>
  <anchor x="637" y="1722" name="hamzaUpper"/>
  <anchor x="140" y="1853" name="honorific"/>
  <anchor x="729" y="-918" name="mLower"/>
  <anchor x="623" y="1736" name="mUpper"/>
  <outline>
    <contour>
      <point x="973" y="1463" type="curve" smooth="yes"/>
      <point x="946" y="1459"/>
      <point x="920" y="1459"/>
      <point x="892" y="1459" type="curve" smooth="yes"/>
      <point x="770" y="1459"/>
      <point x="649" y="1480"/>
      <point x="528" y="1480" type="curve" smooth="yes"/>
      <point x="353" y="1480"/>
      <point x="214" y="1319"/>
      <point x="115" y="1095" type="curve" smooth="yes"/>
      <point x="106" y="1073"/>
      <point x="145" y="1047"/>
      <point x="158" y="1067" type="curve" smooth="yes"/>
      <point x="227" y="1184"/>
      <point x="293" y="1229"/>
      <point x="388" y="1229" type="curve" smooth="yes"/>
      <point x="426" y="1229"/>
      <point x="496" y="1217"/>
      <point x="551" y="1213" type="curve" smooth="yes"/>
      <point x="606" y="1210"/>
      <point x="646" y="1214"/>
      <point x="627" y="1199" type="curve" smooth="yes"/>
      <point x="285" y="935"/>
      <point x="109" y="515"/>
      <point x="109" y="149" type="curve" smooth="yes"/>
      <point x="109" y="-259"/>
      <point x="305" y="-600"/>
      <point x="708" y="-600" type="curve" smooth="yes"/>
      <point x="1184" y="-600"/>
      <point x="1449" y="-51"/>
      <point x="1575" y="435" type="curve" smooth="yes"/>
      <point x="1588" y="478"/>
      <point x="1540" y="504"/>
      <point x="1534" y="474" type="curve" smooth="yes"/>
      <point x="1440" y="172"/>
      <point x="1186" y="-260"/>
      <point x="770" y="-260" type="curve" smooth="yes"/>
      <point x="437" y="-260"/>
      <point x="248" y="-14"/>
      <point x="248" y="305" type="curve" smooth="yes"/>
      <point x="248" y="657"/>
      <point x="483" y="1099"/>
      <point x="1014" y="1399" type="curve" smooth="yes"/>
      <point x="1034" y="1410"/>
      <point x="1012" y="1467"/>
    </contour>
  </outline>
</glyph>
<glyph name="absDal" format="2">
  <advance width="921"/>
  <unicode hex="062F"/>
  <anchor x="420" y="1579" name="honorific"/>
  <anchor x="486" y="-259" name="mLower"/>
  <anchor x="486" y="1356" name="mUpper"/>
  <anchor x="452" y="55" name="ring"/>
  <outline>
    <contour>
      <point x="520" y="1036" type="curve" smooth="yes"/>
      <point x="481" y="1036"/>
      <point x="424" y="779"/>
      <point x="424" y="736" type="curve" smooth="yes"/>
      <point x="424" y="710"/>
      <point x="654" y="713"/>
      <point x="654" y="393" type="curve" smooth="yes"/>
      <point x="654" y="340"/>
      <point x="140" y="57"/>
      <point x="112" y="43" type="curve" smooth="yes"/>
      <point x="92" y="33"/>
      <point x="109" y="-10"/>
      <point x="131" y="-5" type="curve" smooth="yes"/>
      <point x="165" y="1"/>
      <point x="487" y="41"/>
      <point x="559" y="117" type="curve" smooth="yes"/>
      <point x="636" y="198"/>
      <point x="817" y="474"/>
      <point x="817" y="722" type="curve" smooth="yes"/>
      <point x="817" y="886"/>
      <point x="640" y="1036"/>
    </contour>
  </outline>
</glyph>
<glyph name="absSeen" format="2">
  <advance width="2124"/>
  <unicode hex="0633"/>
  <anchor x="420" y="1394" name="honorific"/>
  <anchor x="2020" y="549" name="kernBbRight"/>
  <anchor x="650" y="-918" name="mLower"/>
  <anchor x="1625" y="1525" name="mUpper"/>
  <anchor x="1985" y="818" name="n1Lower"/>
  <anchor x="2017" y="851" name="n23Lower"/>
  <anchor x="1482" y="1715" name="nUpper"/>
  <anchor x="1462" y="1731" name="tahUpper"/>
  <outline>
    <contour>
      <point x="634" y="-600" type="curve" smooth="yes"/>
      <point x="1163" y="-600"/>
      <point x="1572" y="195"/>
      <point x="1572" y="1075" type="curve"/>
      <point x="1702" y="1075"/>
      <point x="1750" y="1216"/>
      <point x="1785" y="1216" type="curve" smooth="yes"/>
      <point x="1807" y="1216"/>
      <point x="1814" y="1195"/>
      <point x="1877" y="1195" type="curve" smooth="yes"/>
      <point x="2014" y="1195"/>
      <point x="2106" y="1479"/>
      <point x="2124" y="1604" type="curve" smooth="yes"/>
      <point x="2126" y="1618"/>
      <point x="2089" y="1639"/>
      <point x="2086" y="1626" type="curve" smooth="yes"/>
      <point x="2060" y="1487"/>
      <point x="1990" y="1356"/>
      <point x="1917" y="1356" type="curve" smooth="yes"/>
      <point x="1837" y="1356"/>
      <point x="1826" y="1428"/>
      <point x="1798" y="1428" type="curve" smooth="yes"/>
      <point x="1738" y="1428"/>
      <point x="1703" y="1232"/>
      <point x="1579" y="1232" type="curve" smooth="yes"/>
      <point x="1520" y="1232"/>
      <point x="1511" y="1274"/>
      <point x="1499" y="1274" type="curve" smooth="yes"/>
      <point x="1469" y="1274"/>
      <point x="1449" y="1151"/>
      <point x="1449" y="1114" type="curve" smooth="yes"/>
      <point x="1449" y="1075"/>
      <point x="1473" y="1026"/>
      <point x="1473" y="876" type="curve" smooth="yes"/>
      <point x="1473" y="767"/>
      <point x="1471" y="655"/>
      <point x="1455" y="537" type="curve" smooth="yes"/>
      <point x="1447" y="480"/>
      <point x="1259" y="-260"/>
      <point x="702" y="-260" type="curve" smooth="yes"/>
      <point x="160" y="-260"/>
      <point x="160" y="427"/>
      <point x="350" y="877" type="curve" smooth="yes"/>
      <point x="359" y="899"/>
      <point x="313" y="919"/>
      <point x="303" y="899" type="curve" smooth="yes"/>
      <point x="-76" y="184"/>
      <point x="111" y="-600"/>
    </contour>
    <contour>
      <point x="1655" y="2054" type="curve" smooth="yes"/>
      <point x="1655" y="2107"/>
      <point x="1634" y="2163"/>
      <point x="1573" y="2163" type="curve" smooth="yes"/>
      <point x="1496" y="2163"/>
      <point x="1413" y="2028"/>
      <point x="1413" y="1937" type="curve" smooth="yes"/>
      <point x="1413" y="1847"/>
      <point x="1473" y="1835"/>
      <point x="1491" y="1828" type="curve"/>
      <point x="1522" y="1828"/>
      <point x="1591" y="1913"/>
      <point x="1593" y="1936" type="curve"/>
      <point x="1565" y="1898"/>
      <point x="1489" y="1951"/>
      <point x="1489" y="1994" type="curve" smooth="yes"/>
      <point x="1489" y="2026"/>
      <point x="1516" y="2055"/>
      <point x="1550" y="2055" type="curve" smooth="yes"/>
      <point x="1585" y="2055"/>
      <point x="1600" y="2035"/>
      <point x="1600" y="1998" type="curve" smooth="yes"/>
      <point x="1600" y="1883"/>
      <point x="1376" y="1780"/>
      <point x="1194" y="1719" type="curve" smooth="yes"/>
      <point x="1166" y="1710"/>
      <point x="1202" y="1667"/>
      <point x="1232" y="1672" type="curve" smooth="yes"/>
      <point x="1551" y="1730"/>
      <point x="1655" y="1861"/>
    </contour>
  </outline>
</glyph>
<glyph name="absLam" format="2">
  <advance width="1834"/>
  <unicode hex="0644"/>
  <anchor x="420" y="1396" name="honorific"/>
  <anchor x="658" y="-920" name="mLower"/>
  <anchor x="1578" y="2671" name="mUpper"/>
  <outline>
    <contour>
      <point x="703" y="-260" type="curve" smooth="yes"/>
      <point x="161" y="-260"/>
      <point x="161" y="427"/>
      <point x="351" y="877" type="curve" smooth="yes"/>
      <point x="360" y="899"/>
      <point x="314" y="919"/>
      <point x="304" y="899" type="curve" smooth="yes"/>
      <point x="-75" y="184"/>
      <point x="112" y="-600"/>
      <point x="635" y="-600" type="curve" smooth="yes"/>
      <point x="1110" y="-600"/>
      <point x="1559" y="-79"/>
      <point x="1596" y="1276" type="curve" smooth="yes"/>
      <point x="1601" y="1459"/>
      <point x="1626" y="1873"/>
      <point x="1637" y="2098" type="curve" smooth="yes"/>
      <point x="1644" y="2251"/>
      <point x="1665" y="2294"/>
      <point x="1673" y="2325" type="curve" smooth="yes"/>
      <point x="1677" y="2344"/>
      <point x="1658" y="2393"/>
      <point x="1638" y="2371" type="curve" smooth="yes"/>
      <point x="1598" y="2328"/>
      <point x="1502" y="2165"/>
      <point x="1494" y="2001" type="curve" smooth="yes"/>
      <point x="1481" y="1740"/>
      <point x="1487" y="1457"/>
      <point x="1487" y="1185" type="curve" smooth="yes"/>
      <point x="1487" y="955"/>
      <point x="1483" y="733"/>
      <point x="1456" y="537" type="curve" smooth="yes"/>
      <point x="1448" y="480"/>
      <point x="1260" y="-260"/>
    </contour>
  </outline>
</glyph>
<glyph name="absWaw" format="2">
  <advance width="860"/>
  <unicode hex="0648"/>
  <anchor x="484" y="143" name="bar"/>
  <anchor x="475" y="1318" name="hamzaUpper"/>
  <anchor x="420" y="1323" name="honorific"/>
  <anchor x="358" y="-320" name="mLower"/>
  <anchor x="512" y="1312" name="mUpper"/>
  <outline>
    <contour>
      <point x="543" y="992" type="curve" smooth="yes"/>
      <point x="489" y="992"/>
      <point x="425" y="981"/>
      <point x="367" y="765" type="curve" smooth="yes"/>
      <point x="278" y="433"/>
      <point x="400" y="375"/>
      <point x="635" y="458" type="curve" smooth="yes"/>
      <point x="652" y="464"/>
      <point x="659" y="450"/>
      <point x="659" y="431" type="curve" smooth="yes"/>
      <point x="659" y="295"/>
      <point x="268" y="103"/>
      <point x="114" y="40" type="curve" smooth="yes"/>
      <point x="92" y="31"/>
      <point x="110" y="-10"/>
      <point x="132" y="-9" type="curve" smooth="yes"/>
      <point x="227" y="-5"/>
      <point x="515" y="34"/>
      <point x="545" y="64" type="curve" smooth="yes"/>
      <point x="593" y="112"/>
      <point x="756" y="347"/>
      <point x="756" y="576" type="curve" smooth="yes"/>
      <point x="756" y="756"/>
      <point x="691" y="992"/>
    </contour>
  </outline>
</glyph>
<glyph name="nlqZabar" format="2">
  <unicode hex="064E"/>
  <anchor x="181" y="0" name="_mUpper"/>
  <anchor x="171" y="630" name="mUpper"/>
  <outline>
    <contour>
      <point x="181" y="147" type="curve" smooth="yes"/>
      <point x="309" y="230"/>
      <point x="377" y="307"/>
      <point x="377" y="394" type="curve" smooth="yes"/>
      <point x="377" y="412"/>
      <point x="354" y="444"/>
      <point x="342" y="423" type="curve" smooth="yes"/>
      <point x="310" y="373"/>
      <point x="300" y="346"/>
      <point x="181" y="269" type="curve" smooth="yes"/>
      <point x="52" y="186"/>
      <point x="-16" y="109"/>
      <point x="-16" y="22" type="curve" smooth="yes"/>
      <point x="-16" y="5"/>
      <point x="7" y="-28"/>
      <point x="20" y="-7" type="curve" smooth="yes"/>
      <point x="51" y="44"/>
      <point x="61" y="70"/>
    </contour>
  </outline>
</glyph>
<glyph name="nlqJazm" format="2">
  <unicode hex="0652"/>
  <anchor x="-10" y="0" name="_mUpper"/>
  <anchor x="-10" y="629" name="mUpper"/>
  <outline>
    <contour>
      <point x="223" y="141" type="curve" smooth="yes"/>
      <point x="201" y="194"/>
      <point x="66" y="408"/>
      <point x="24" y="408" type="curve" smooth="yes"/>
      <point x="-43" y="408"/>
      <point x="-246" y="72"/>
      <point x="-267" y="33" type="curve" smooth="yes"/>
      <point x="-279" y="9"/>
      <point x="-217" y="-25"/>
      <point x="-208" y="-7" type="curve" smooth="yes"/>
      <point x="-189" y="32"/>
      <point x="-35" y="235"/>
      <point x="0" y="235" type="curve" smooth="yes"/>
      <point x="24" y="235"/>
      <point x="139" y="47"/>
      <point x="151" y="20" type="curve" smooth="yes"/>
      <point x="166" y="-17"/>
      <point x="245" y="89"/>
    </contour>
  </outline>
</glyph>
<glyph name="absNoonGhunnaMark" format="2">
  <unicode hex="0658"/>
  <anchor x="-7" y="-123" name="_mUpper"/>
  <anchor x="-7" y="381" name="mUpper"/>
  <outline>
    <contour>
      <point x="-221" y="168" type="curve" smooth="yes"/>
      <point x="-170" y="-222"/>
      <point x="162" y="-198"/>
      <point x="177" y="139" type="curve" smooth="yes"/>
      <point x="178" y="156"/>
      <point x="114" y="190"/>
      <point x="112" y="163" type="curve" smooth="yes"/>
      <point x="83" y="-120"/>
      <point x="-47" y="-120"/>
      <point x="-85" y="151" type="curve" smooth="yes"/>
      <point x="-89" y="175"/>
      <point x="-225" y="202"/>
    </contour>
  </outline>
</glyph>
<glyph name="absFivePointedStar" format="2">
  <advance width="1026"/>
  <unicode hex="066D"/>
  <anchor x="509" y="1189" name="diaA"/>
  <anchor x="509" y="-301" name="diaB"/>
  <outline>
    <contour>
      <point x="421" y="1018" type="curve" smooth="yes"/>
      <point x="417" y="1041"/>
      <point x="346" y="1010"/>
      <point x="349" y="987" type="curve" smooth="yes"/>
      <point x="387" y="665"/>
      <point x="354" y="513"/>
      <point x="166" y="205" type="curve" smooth="yes"/>
      <point x="151" y="179"/>
      <point x="205" y="139"/>
      <point x="214" y="154" type="curve" smooth="yes"/>
      <point x="387" y="449"/>
      <point x="639" y="624"/>
      <point x="937" y="748" type="curve" smooth="yes"/>
      <point x="960" y="757"/>
      <point x="898" y="842"/>
      <point x="872" y="827" type="curve" smooth="yes"/>
      <point x="535" y="653"/>
      <point x="504" y="654"/>
      <point x="91" y="680" type="curve" smooth="yes"/>
      <point x="68" y="682"/>
      <point x="52" y="592"/>
      <point x="79" y="590" type="curve" smooth="yes"/>
      <point x="394" y="573"/>
      <point x="504" y="512"/>
      <point x="774" y="224" type="curve" smooth="yes"/>
      <point x="791" y="202"/>
      <point x="866" y="252"/>
      <point x="851" y="268" type="curve" smooth="yes"/>
      <point x="663" y="478"/>
      <point x="471" y="799"/>
    </contour>
  </outline>
</glyph>
<glyph name="nlqKharizabar" format="2">
  <unicode hex="0670"/>
  <anchor x="41" y="101" name="_mUpper"/>
  <anchor x="320" y="852" name="_mUpperLam"/>
  <anchor x="41" y="1132" name="mUpper"/>
  <outline>
    <contour>
      <point x="4" y="744" type="curve" smooth="yes"/>
      <point x="-6" y="603"/>
      <point x="5" y="392"/>
      <point x="-4" y="270" type="curve" smooth="yes"/>
      <point x="-9" y="185"/>
      <point x="-27" y="157"/>
      <point x="-33" y="140" type="curve" smooth="yes"/>
      <point x="-40" y="117"/>
      <point x="2" y="85"/>
      <point x="13" y="102" type="curve" smooth="yes"/>
      <point x="30" y="132"/>
      <point x="77" y="272"/>
      <point x="88" y="427" type="curve" smooth="yes"/>
      <point x="93" y="509"/>
      <point x="88" y="674"/>
      <point x="95" y="778" type="curve" smooth="yes"/>
      <point x="99" y="831"/>
      <point x="103" y="854"/>
      <point x="110" y="865" type="curve" smooth="yes"/>
      <point x="124" y="892"/>
      <point x="89" y="925"/>
      <point x="73" y="909" type="curve" smooth="yes"/>
      <point x="55" y="889"/>
      <point x="9" y="819"/>
    </contour>
  </outline>
</glyph>
<glyph name="absDotlessFeh" format="2">
  <advance width="2487"/>
  <unicode hex="06A1"/>
  <anchor x="420" y="1391" name="honorific"/>
  <anchor x="1204" y="-320" name="mLower"/>
  <anchor x="2176" y="1546" name="mUpper"/>
  <outline>
    <contour>
      <point x="2287" y="646" type="curve" smooth="yes"/>
      <point x="2287" y="486"/>
      <point x="1795" y="330"/>
      <point x="1125" y="330" type="curve" smooth="yes"/>
      <point x="752" y="330"/>
      <point x="140" y="315"/>
      <point x="228" y="772" type="curve" smooth="yes"/>
      <point x="232" y="796"/>
      <point x="183" y="838"/>
      <point x="176" y="815" type="curve" smooth="yes"/>
      <point x="20" y="289"/>
      <point x="53" y="-10"/>
      <point x="957" y="-10" type="curve" smooth="yes"/>
      <point x="1992" y="-10"/>
      <point x="2384" y="277"/>
      <point x="2384" y="789" type="curve" smooth="yes"/>
      <point x="2384" y="971"/>
      <point x="2319" y="1207"/>
      <point x="2171" y="1207" type="curve" smooth="yes"/>
      <point x="2117" y="1207"/>
      <point x="2053" y="1196"/>
      <point x="1995" y="980" type="curve" smooth="yes"/>
      <point x="1906" y="648"/>
      <point x="2030" y="585"/>
      <point x="2263" y="673" type="curve" smooth="yes"/>
      <point x="2280" y="680"/>
      <point x="2287" y="665"/>
    </contour>
  </outline>
</glyph>
<glyph name="absNoonGhunna" format="2">
  <advance width="1773"/>
  <unicode hex="06BA"/>
  <anchor x="470" y="1393" name="honorific"/>
  <anchor x="711" y="-920" name="mLower"/>
  <anchor x="944" y="488" name="mUpper"/>
  <outline>
    <contour>
      <point x="753" y="-260" type="curve" smooth="yes"/>
      <point x="211" y="-260"/>
      <point x="214" y="374"/>
      <point x="390" y="830" type="curve" smooth="yes"/>
      <point x="402" y="860"/>
      <point x="373" y="882"/>
      <point x="362" y="882" type="curve" smooth="yes"/>
      <point x="327" y="882"/>
      <point x="153" y="447"/>
      <point x="153" y="113" type="curve" smooth="yes"/>
      <point x="153" y="-306"/>
      <point x="350" y="-600"/>
      <point x="685" y="-600" type="curve" smooth="yes"/>
      <point x="1244" y="-600"/>
      <point x="1616" y="325"/>
      <point x="1616" y="866" type="curve" smooth="yes"/>
      <point x="1616" y="1049"/>
      <point x="1611" y="1158"/>
      <point x="1609" y="1186" type="curve" smooth="yes"/>
      <point x="1599" y="1425"/>
      <point x="1632" y="1462"/>
      <point x="1612" y="1462" type="curve" smooth="yes"/>
      <point x="1593" y="1462"/>
      <point x="1494" y="1276"/>
      <point x="1494" y="1081" type="curve" smooth="yes"/>
      <point x="1494" y="952"/>
      <point x="1517" y="622"/>
      <point x="1506" y="537" type="curve" smooth="yes"/>
      <point x="1498" y="480"/>
      <point x="1310" y="-260"/>
    </contour>
  </outline>
</glyph>
<glyph name="nlqChotiyeh" format="2">
  <advance width="1812"/>
  <unicode hex="06CC"/>
  <anchor x="690" y="1411" name="alef"/>
  <anchor x="400" y="1283" name="hamzaUpper"/>
  <anchor x="134" y="1396" name="honorific"/>
  <anchor x="635" y="-920" name="mLower"/>
  <anchor x="412" y="1295" name="mUpper"/>
  <outline>
    <contour>
      <point x="635" y="-600" type="curve" smooth="yes"/>
      <point x="1264" y="-600"/>
      <point x="1663" y="547"/>
      <point x="1500" y="684" type="curve" smooth="yes"/>
      <point x="1428" y="744"/>
      <point x="1109" y="727"/>
      <point x="1109" y="843" type="curve" smooth="yes"/>
      <point x="1109" y="1002"/>
      <point x="1433" y="1367"/>
      <point x="1551" y="1367" type="curve" smooth="yes"/>
      <point x="1569" y="1367"/>
      <point x="1574" y="1362"/>
      <point x="1584" y="1362" type="curve" smooth="yes"/>
      <point x="1613" y="1362"/>
      <point x="1768" y="1715"/>
      <point x="1682" y="1715" type="curve" smooth="yes"/>
      <point x="1500" y="1715"/>
      <point x="1038" y="1202"/>
      <point x="1038" y="745" type="curve" smooth="yes"/>
      <point x="1038" y="299"/>
      <point x="1435" y="441"/>
      <point x="1435" y="349" type="curve" smooth="yes"/>
      <point x="1435" y="263"/>
      <point x="1149" y="-260"/>
      <point x="703" y="-260" type="curve" smooth="yes"/>
      <point x="161" y="-260"/>
      <point x="129" y="388"/>
      <point x="393" y="965" type="curve" smooth="yes"/>
      <point x="407" y="994"/>
      <point x="376" y="1017"/>
      <point x="365" y="1017" type="curve" smooth="yes"/>
      <point x="330" y="1017"/>
      <point x="103" y="517"/>
      <point x="103" y="183" type="curve" smooth="yes"/>
      <point x="103" y="-236"/>
      <point x="267" y="-600"/>
    </contour>
  </outline>
</glyph>
<glyph name="nlqBariyeh" format="2">
  <advance width="2693"/>
  <unicode hex="06D2"/>
  <anchor x="148" y="1072" name="hamzaUpper"/>
  <anchor x="9" y="1673" name="honorific"/>
  <anchor x="2589" y="630" name="kernBbRight"/>
  <anchor x="1279" y="-210" name="mLower"/>
  <anchor x="176" y="1080" name="mUpper"/>
  <outline>
    <contour>
      <point x="901" y="1141" type="curve" smooth="yes"/>
      <point x="808" y="910"/>
      <point x="716" y="904"/>
      <point x="378" y="814" type="curve" smooth="yes"/>
      <point x="210" y="769"/>
      <point x="103" y="502"/>
      <point x="103" y="342" type="curve" smooth="yes"/>
      <point x="103" y="111"/>
      <point x="363" y="-10"/>
      <point x="910" y="-10" type="curve" smooth="yes"/>
      <point x="1646" y="-10"/>
      <point x="2381" y="158"/>
      <point x="2693" y="388" type="curve" smooth="yes"/>
      <point x="2711" y="401"/>
      <point x="2684" y="436"/>
      <point x="2661" y="432" type="curve" smooth="yes"/>
      <point x="2410" y="394"/>
      <point x="1700" y="330"/>
      <point x="1106" y="330" type="curve" smooth="yes"/>
      <point x="567" y="330"/>
      <point x="196" y="361"/>
      <point x="196" y="448" type="curve" smooth="yes"/>
      <point x="196" y="479"/>
      <point x="248" y="595"/>
      <point x="347" y="625" type="curve" smooth="yes"/>
      <point x="465" y="661"/>
      <point x="634" y="674"/>
      <point x="742" y="766" type="curve" smooth="yes"/>
      <point x="895" y="896"/>
      <point x="938" y="1086"/>
      <point x="948" y="1133" type="curve" smooth="yes"/>
      <point x="952" y="1149"/>
      <point x="908" y="1159"/>
    </contour>
  </outline>
</glyph>
<glyph name="absShortVowelMark" format="2">
  <unicode hex="08FF"/>
  <anchor x="-6" y="69" name="_mUpper"/>
  <anchor x="-6" y="670" name="mUpper"/>
  <outline>
    <contour>
      <point x="-101" y="466" type="curve" smooth="yes"/>
      <point x="-136" y="474"/>
      <point x="-177" y="346"/>
      <point x="-153" y="343" type="curve" smooth="yes"/>
      <point x="117" y="305"/>
      <point x="170" y="172"/>
      <point x="-113" y="144" type="curve" smooth="yes"/>
      <point x="-139" y="141"/>
      <point x="-154" y="71"/>
      <point x="-137" y="72" type="curve" smooth="yes"/>
      <point x="200" y="87"/>
      <point x="264" y="383"/>
    </contour>
  </outline>
</glyph>
<glyph name="endash" format="2">
  <advance width="986"/>
  <unicode hex="2013"/>
  <outline>
    <contour>
      <point x="-43" y="451" type="line"/>
      <point x="1015" y="451" type="line"/>
      <point x="1015" y="528" type="line"/>
      <point x="-43" y="528" type="line"/>
    </contour>
  </outline>
</glyph>
<glyph name="emdash" format="2">
  <advance width="1972"/>
  <unicode hex="2014"/>
  <outline>
    <contour>
      <point x="0" y="451" type="line"/>
      <point x="1972" y="451" type="line"/>
      <point x="1972" y="528" type="line"/>
      <point x="0" y="528" type="line"/>
    </contour>
  </outline>
</glyph>
<glyph name="horizontalBar" format="2">
  <advance width="1725"/>
  <unicode hex="2015"/>
  <outline>
    <contour>
      <point x="2" y="382" type="line"/>
      <point x="1727" y="382" type="line"/>
      <point x="1727" y="535" type="line"/>
      <point x="2" y="535" type="line"/>
    </contour>
  </outline>
</glyph>
<glyph name="horizontalbar" format="2">
  <advance width="1960"/>
  <unicode hex="2015"/>
  <outline>
    <contour>
      <point x="1960" y="448" type="line"/>
      <point x="1960" y="523" type="line"/>
      <point x="0" y="523" type="line"/>
      <point x="0" y="448" type="line"/>
    </contour>
  </outline>
</glyph>
<glyph name="dagger" format="2">
  <advance width="1026"/>
  <unicode hex="2020"/>
  <outline>
    <contour>
      <point x="926" y="912" type="curve"/>
      <point x="926" y="974"/>
      <point x="874" y="1012"/>
      <point x="819" y="1012" type="curve" smooth="yes"/>
      <point x="691" y="1012"/>
      <point x="662" y="937"/>
      <point x="526" y="934" type="curve"/>
      <point x="529" y="1059"/>
      <point x="618" y="1156"/>
      <point x="618" y="1275" type="curve" smooth="yes"/>
      <point x="618" y="1333"/>
      <point x="577" y="1404"/>
      <point x="508" y="1404" type="curve" smooth="yes"/>
      <point x="450" y="1404"/>
      <point x="398" y="1360"/>
      <point x="398" y="1275" type="curve" smooth="yes"/>
      <point x="398" y="1144"/>
      <point x="489" y="1051"/>
      <point x="489" y="934" type="curve"/>
      <point x="361" y="937"/>
      <point x="333" y="1013"/>
      <point x="205" y="1013" type="curve" smooth="yes"/>
      <point x="152" y="1013"/>
      <point x="100" y="973"/>
      <point x="100" y="912" type="curve" smooth="yes"/>
      <point x="100" y="859"/>
      <point x="138" y="819"/>
      <point x="204" y="819" type="curve" smooth="yes"/>
      <point x="289" y="819"/>
      <point x="386" y="891"/>
      <point x="489" y="896" type="curve"/>
      <point x="475" y="789"/>
      <point x="469" y="731"/>
      <point x="386" y="660" type="curve"/>
      <point x="477" y="329"/>
      <point x="484" y="-89"/>
      <point x="489" y="-420" type="curve"/>
      <point x="526" y="-420" type="line"/>
      <point x="535" y="-67"/>
      <point x="533" y="311"/>
      <point x="626" y="660" type="curve"/>
      <point x="547" y="725"/>
      <point x="528" y="794"/>
      <point x="526" y="896" type="curve"/>
      <point x="674" y="884"/>
      <point x="711" y="819"/>
      <point x="820" y="819" type="curve" smooth="yes"/>
      <point x="858" y="819"/>
      <point x="926" y="839"/>
    </contour>
  </outline>
</glyph>
<glyph name="daggerdbl" format="2">
  <advance width="1026"/>
  <unicode hex="2021"/>
  <outline>
    <contour>
      <point x="885" y="-13" type="curve"/>
      <point x="885" y="41"/>
      <point x="839" y="74"/>
      <point x="792" y="74" type="curve" smooth="yes"/>
      <point x="712" y="74"/>
      <point x="627" y="10"/>
      <point x="530" y="6" type="curve"/>
      <point x="541" y="82"/>
      <point x="565" y="123"/>
      <point x="626" y="169" type="curve"/>
      <point x="588" y="220"/>
      <point x="530" y="305"/>
      <point x="530" y="483" type="curve" smooth="yes"/>
      <point x="530" y="676"/>
      <point x="591" y="758"/>
      <point x="626" y="808" type="curve"/>
      <point x="561" y="857"/>
      <point x="539" y="900"/>
      <point x="530" y="979" type="curve"/>
      <point x="586" y="970"/>
      <point x="734" y="910"/>
      <point x="790" y="910" type="curve" smooth="yes"/>
      <point x="837" y="910"/>
      <point x="885" y="935"/>
      <point x="885" y="996" type="curve" smooth="yes"/>
      <point x="885" y="1058"/>
      <point x="844" y="1084"/>
      <point x="797" y="1084" type="curve" smooth="yes"/>
      <point x="688" y="1084"/>
      <point x="678" y="1030"/>
      <point x="530" y="1015" type="curve"/>
      <point x="537" y="1091"/>
      <point x="609" y="1241"/>
      <point x="609" y="1310" type="curve" smooth="yes"/>
      <point x="609" y="1363"/>
      <point x="585" y="1424"/>
      <point x="512" y="1424" type="curve" smooth="yes"/>
      <point x="446" y="1424"/>
      <point x="411" y="1366"/>
      <point x="411" y="1313" type="curve" smooth="yes"/>
      <point x="411" y="1228"/>
      <point x="491" y="1112"/>
      <point x="491" y="1015" type="curve"/>
      <point x="358" y="1031"/>
      <point x="304" y="1084"/>
      <point x="224" y="1084" type="curve" smooth="yes"/>
      <point x="177" y="1084"/>
      <point x="140" y="1051"/>
      <point x="140" y="997" type="curve" smooth="yes"/>
      <point x="140" y="936"/>
      <point x="183" y="911"/>
      <point x="227" y="911" type="curve" smooth="yes"/>
      <point x="331" y="911"/>
      <point x="373" y="966"/>
      <point x="491" y="979" type="curve"/>
      <point x="473" y="893"/>
      <point x="465" y="860"/>
      <point x="396" y="808" type="curve"/>
      <point x="425" y="774"/>
      <point x="493" y="689"/>
      <point x="493" y="497" type="curve" smooth="yes"/>
      <point x="493" y="310"/>
      <point x="423" y="212"/>
      <point x="396" y="169" type="curve"/>
      <point x="466" y="112"/>
      <point x="474" y="89"/>
      <point x="491" y="8" type="curve"/>
      <point x="392" y="8"/>
      <point x="330" y="74"/>
      <point x="239" y="74" type="curve" smooth="yes"/>
      <point x="195" y="74"/>
      <point x="141" y="49"/>
      <point x="141" y="-17" type="curve" smooth="yes"/>
      <point x="141" y="-85"/>
      <point x="190" y="-107"/>
      <point x="233" y="-107" type="curve" smooth="yes"/>
      <point x="319" y="-107"/>
      <point x="397" y="-38"/>
      <point x="491" y="-38" type="curve"/>
      <point x="485" y="-85"/>
      <point x="412" y="-294"/>
      <point x="412" y="-335" type="curve" smooth="yes"/>
      <point x="412" y="-404"/>
      <point x="469" y="-444"/>
      <point x="512" y="-444" type="curve" smooth="yes"/>
      <point x="566" y="-444"/>
      <point x="615" y="-402"/>
      <point x="615" y="-337" type="curve" smooth="yes"/>
      <point x="615" y="-246"/>
      <point x="530" y="-136"/>
      <point x="530" y="-38" type="curve"/>
      <point x="621" y="-39"/>
      <point x="709" y="-107"/>
      <point x="792" y="-107" type="curve" smooth="yes"/>
      <point x="842" y="-107"/>
      <point x="885" y="-79"/>
    </contour>
  </outline>
</glyph>
<glyph name="ellipsis" format="2">
  <advance width="2055"/>
  <unicode hex="2026"/>
  <outline>
    <contour>
      <point x="1822" y="85" type="curve"/>
      <point x="1822" y="149"/>
      <point x="1771" y="195"/>
      <point x="1712" y="195" type="curve" smooth="yes"/>
      <point x="1649" y="195"/>
      <point x="1601" y="148"/>
      <point x="1601" y="85" type="curve" smooth="yes"/>
      <point x="1601" y="24"/>
      <point x="1643" y="-30"/>
      <point x="1712" y="-30" type="curve" smooth="yes"/>
      <point x="1777" y="-30"/>
      <point x="1822" y="24"/>
    </contour>
    <contour>
      <point x="1136" y="85" type="curve"/>
      <point x="1136" y="149"/>
      <point x="1084" y="195"/>
      <point x="1026" y="195" type="curve" smooth="yes"/>
      <point x="961" y="195"/>
      <point x="914" y="148"/>
      <point x="914" y="85" type="curve" smooth="yes"/>
      <point x="914" y="24"/>
      <point x="957" y="-30"/>
      <point x="1026" y="-30" type="curve" smooth="yes"/>
      <point x="1090" y="-30"/>
      <point x="1136" y="24"/>
    </contour>
    <contour>
      <point x="453" y="85" type="curve"/>
      <point x="453" y="149"/>
      <point x="402" y="195"/>
      <point x="343" y="195" type="curve" smooth="yes"/>
      <point x="281" y="195"/>
      <point x="233" y="148"/>
      <point x="233" y="85" type="curve" smooth="yes"/>
      <point x="233" y="24"/>
      <point x="274" y="-30"/>
      <point x="343" y="-30" type="curve" smooth="yes"/>
      <point x="408" y="-30"/>
      <point x="453" y="24"/>
    </contour>
  </outline>
</glyph>
<glyph name="guilsinglright" format="2">
  <advance width="682"/>
  <unicode hex="203A"/>
  <outline>
    <contour>
      <point x="175" y="-8" type="line"/>
      <point x="565" y="461" type="line"/>
      <point x="175" y="935" type="line"/>
      <point x="122" y="935" type="line"/>
      <point x="367" y="461" type="line"/>
      <point x="122" y="-8" type="line"/>
    </contour>
  </outline>
</glyph>
<glyph name="firstStrongIsolate" format="2">
  <unicode hex="2068"/>
  <outline>
    <contour>
      <point x="-164" y="-28" type="line"/>
      <point x="0" y="-213" type="line"/>
      <point x="164" y="-28" type="line"/>
      <point x="84" y="-28" type="line"/>
      <point x="84" y="1568" type="line"/>
      <point x="155" y="1568" type="line"/>
      <point x="155" y="1615" type="line"/>
      <point x="-155" y="1615" type="line"/>
      <point x="-155" y="1568" type="line"/>
      <point x="-84" y="1568" type="line"/>
      <point x="-84" y="-28" type="line"/>
    </contour>
    <contour>
      <point x="38" y="1568" type="line"/>
      <point x="38" y="-28" type="line"/>
      <point x="-38" y="-28" type="line"/>
      <point x="-38" y="1568" type="line"/>
    </contour>
  </outline>
</glyph>
<glyph name="inhibitArabicFormShaping" format="2">
  <unicode hex="206C"/>
  <outline>
    <contour>
      <point x="553" y="1072" type="curve" smooth="yes"/>
      <point x="553" y="1092"/>
      <point x="537" y="1110"/>
      <point x="518" y="1110" type="curve" smooth="yes"/>
      <point x="497" y="1110"/>
      <point x="480" y="1092"/>
      <point x="480" y="1072" type="curve" smooth="yes"/>
      <point x="480" y="1052"/>
      <point x="497" y="1034"/>
      <point x="518" y="1034" type="curve" smooth="yes"/>
      <point x="537" y="1034"/>
      <point x="553" y="1052"/>
    </contour>
    <contour>
      <point x="382" y="1072" type="curve" smooth="yes"/>
      <point x="382" y="1092"/>
      <point x="364" y="1110"/>
      <point x="344" y="1110" type="curve" smooth="yes"/>
      <point x="325" y="1110"/>
      <point x="308" y="1092"/>
      <point x="308" y="1072" type="curve" smooth="yes"/>
      <point x="308" y="1052"/>
      <point x="325" y="1034"/>
      <point x="344" y="1034" type="curve" smooth="yes"/>
      <point x="364" y="1034"/>
      <point x="382" y="1052"/>
    </contour>
    <contour>
      <point x="553" y="899" type="curve" smooth="yes"/>
      <point x="553" y="919"/>
      <point x="537" y="935"/>
      <point x="518" y="935" type="curve" smooth="yes"/>
      <point x="497" y="935"/>
      <point x="480" y="919"/>
      <point x="480" y="899" type="curve" smooth="yes"/>
      <point x="480" y="879"/>
      <point x="497" y="862"/>
      <point x="518" y="862" type="curve" smooth="yes"/>
      <point x="537" y="862"/>
      <point x="553" y="879"/>
    </contour>
    <contour>
      <point x="209" y="1072" type="curve" smooth="yes"/>
      <point x="209" y="1092"/>
      <point x="193" y="1110"/>
      <point x="172" y="1110" type="curve" smooth="yes"/>
      <point x="153" y="1110"/>
      <point x="137" y="1092"/>
      <point x="137" y="1072" type="curve" smooth="yes"/>
      <point x="137" y="1052"/>
      <point x="153" y="1034"/>
      <point x="172" y="1034" type="curve" smooth="yes"/>
      <point x="193" y="1034"/>
      <point x="209" y="1052"/>
    </contour>
    <contour>
      <point x="553" y="728" type="curve" smooth="yes"/>
      <point x="553" y="746"/>
      <point x="537" y="764"/>
      <point x="518" y="764" type="curve" smooth="yes"/>
      <point x="497" y="764"/>
      <point x="480" y="746"/>
      <point x="480" y="728" type="curve" smooth="yes"/>
      <point x="480" y="706"/>
      <point x="497" y="690"/>
      <point x="518" y="690" type="curve" smooth="yes"/>
      <point x="537" y="690"/>
      <point x="553" y="706"/>
    </contour>
    <contour>
      <point x="38" y="1072" type="curve" smooth="yes"/>
      <point x="38" y="1092"/>
      <point x="20" y="1110"/>
      <point x="0" y="1110" type="curve" smooth="yes"/>
      <point x="-21" y="1110"/>
      <point x="-38" y="1092"/>
      <point x="-38" y="1072" type="curve" smooth="yes"/>
      <point x="-38" y="1052"/>
      <point x="-21" y="1034"/>
      <point x="0" y="1034" type="curve" smooth="yes"/>
      <point x="20" y="1034"/>
      <point x="38" y="1052"/>
    </contour>
    <contour>
      <point x="553" y="553" type="curve" smooth="yes"/>
      <point x="553" y="575"/>
      <point x="537" y="591"/>
      <point x="518" y="591" type="curve" smooth="yes"/>
      <point x="497" y="591"/>
      <point x="480" y="575"/>
      <point x="480" y="553" type="curve" smooth="yes"/>
      <point x="480" y="535"/>
      <point x="497" y="519"/>
      <point x="518" y="519" type="curve" smooth="yes"/>
      <point x="537" y="519"/>
      <point x="553" y="535"/>
    </contour>
    <contour>
      <point x="-137" y="1072" type="curve" smooth="yes"/>
      <point x="-137" y="1092"/>
      <point x="-153" y="1110"/>
      <point x="-173" y="1110" type="curve" smooth="yes"/>
      <point x="-193" y="1110"/>
      <point x="-210" y="1092"/>
      <point x="-210" y="1072" type="curve" smooth="yes"/>
      <point x="-210" y="1052"/>
      <point x="-193" y="1034"/>
      <point x="-173" y="1034" type="curve" smooth="yes"/>
      <point x="-153" y="1034"/>
      <point x="-137" y="1052"/>
    </contour>
    <contour>
      <point x="553" y="382" type="curve" smooth="yes"/>
      <point x="553" y="402"/>
      <point x="537" y="420"/>
      <point x="518" y="420" type="curve" smooth="yes"/>
      <point x="497" y="420"/>
      <point x="480" y="402"/>
      <point x="480" y="382" type="curve" smooth="yes"/>
      <point x="480" y="362"/>
      <point x="497" y="344"/>
      <point x="518" y="344" type="curve" smooth="yes"/>
      <point x="537" y="344"/>
      <point x="553" y="362"/>
    </contour>
    <contour>
      <point x="-59" y="591" type="curve" smooth="yes"/>
      <point x="58" y="591" type="line" smooth="yes"/>
      <point x="68" y="591"/>
      <point x="71" y="597"/>
      <point x="71" y="604" type="curve" smooth="yes"/>
      <point x="71" y="609"/>
      <point x="68" y="615"/>
      <point x="58" y="615" type="curve" smooth="yes"/>
      <point x="11" y="615" type="line"/>
      <point x="11" y="940" type="line"/>
      <point x="58" y="940" type="line" smooth="yes"/>
      <point x="68" y="940"/>
      <point x="71" y="945"/>
      <point x="71" y="952" type="curve" smooth="yes"/>
      <point x="71" y="958"/>
      <point x="68" y="964"/>
      <point x="58" y="964" type="curve" smooth="yes"/>
      <point x="-59" y="964" type="line" smooth="yes"/>
      <point x="-67" y="964"/>
      <point x="-72" y="958"/>
      <point x="-72" y="952" type="curve" smooth="yes"/>
      <point x="-72" y="945"/>
      <point x="-67" y="940"/>
      <point x="-59" y="940" type="curve" smooth="yes"/>
      <point x="-12" y="940" type="line"/>
      <point x="-12" y="615" type="line"/>
      <point x="-59" y="615" type="line" smooth="yes"/>
      <point x="-67" y="615"/>
      <point x="-72" y="609"/>
      <point x="-72" y="604" type="curve" smooth="yes"/>
      <point x="-72" y="597"/>
      <point x="-67" y="591"/>
    </contour>
    <contour>
      <point x="553" y="209" type="curve" smooth="yes"/>
      <point x="553" y="229"/>
      <point x="537" y="245"/>
      <point x="518" y="245" type="curve" smooth="yes"/>
      <point x="497" y="245"/>
      <point x="480" y="229"/>
      <point x="480" y="209" type="curve" smooth="yes"/>
      <point x="480" y="189"/>
      <point x="497" y="172"/>
      <point x="518" y="172" type="curve" smooth="yes"/>
      <point x="537" y="172"/>
      <point x="553" y="189"/>
    </contour>
    <contour>
      <point x="-308" y="1072" type="curve" smooth="yes"/>
      <point x="-308" y="1092"/>
      <point x="-326" y="1110"/>
      <point x="-344" y="1110" type="curve" smooth="yes"/>
      <point x="-365" y="1110"/>
      <point x="-382" y="1092"/>
      <point x="-382" y="1072" type="curve" smooth="yes"/>
      <point x="-382" y="1052"/>
      <point x="-365" y="1034"/>
      <point x="-344" y="1034" type="curve" smooth="yes"/>
      <point x="-326" y="1034"/>
      <point x="-308" y="1052"/>
    </contour>
    <contour>
      <point x="391" y="160" type="curve" smooth="yes"/>
      <point x="391" y="335" type="line" smooth="yes"/>
      <point x="391" y="339"/>
      <point x="384" y="344"/>
      <point x="379" y="344" type="curve" smooth="yes"/>
      <point x="204" y="344" type="line"/>
      <point x="204" y="497" type="line"/>
      <point x="379" y="497" type="line" smooth="yes"/>
      <point x="386" y="497"/>
      <point x="390" y="503"/>
      <point x="390" y="509" type="curve" smooth="yes"/>
      <point x="390" y="515"/>
      <point x="386" y="521"/>
      <point x="379" y="521" type="curve" smooth="yes"/>
      <point x="193" y="521" type="line" smooth="yes"/>
      <point x="186" y="521"/>
      <point x="181" y="513"/>
      <point x="181" y="508" type="curve" smooth="yes"/>
      <point x="181" y="335" type="line" smooth="yes"/>
      <point x="181" y="328"/>
      <point x="186" y="323"/>
      <point x="193" y="323" type="curve" smooth="yes"/>
      <point x="367" y="323" type="line"/>
      <point x="367" y="172" type="line"/>
      <point x="193" y="172" type="line" smooth="yes"/>
      <point x="186" y="172"/>
      <point x="183" y="167"/>
      <point x="183" y="161" type="curve" smooth="yes"/>
      <point x="183" y="154"/>
      <point x="186" y="148"/>
      <point x="193" y="148" type="curve" smooth="yes"/>
      <point x="379" y="148" type="line" smooth="yes"/>
      <point x="384" y="148"/>
      <point x="391" y="155"/>
    </contour>
    <contour>
      <point x="-481" y="1072" type="curve" smooth="yes"/>
      <point x="-481" y="1092"/>
      <point x="-497" y="1110"/>
      <point x="-519" y="1110" type="curve" smooth="yes"/>
      <point x="-537" y="1110"/>
      <point x="-553" y="1092"/>
      <point x="-553" y="1072" type="curve" smooth="yes"/>
      <point x="-553" y="1052"/>
      <point x="-537" y="1034"/>
      <point x="-519" y="1034" type="curve" smooth="yes"/>
      <point x="-497" y="1034"/>
      <point x="-481" y="1052"/>
    </contour>
    <contour>
      <point x="553" y="38" type="curve" smooth="yes"/>
      <point x="553" y="56"/>
      <point x="537" y="72"/>
      <point x="518" y="72" type="curve" smooth="yes"/>
      <point x="497" y="72"/>
      <point x="480" y="56"/>
      <point x="480" y="38" type="curve" smooth="yes"/>
      <point x="480" y="16"/>
      <point x="497" y="0"/>
      <point x="518" y="0" type="curve" smooth="yes"/>
      <point x="537" y="0"/>
      <point x="553" y="16"/>
    </contour>
    <contour>
      <point x="-481" y="899" type="curve" smooth="yes"/>
      <point x="-481" y="919"/>
      <point x="-497" y="935"/>
      <point x="-519" y="935" type="curve" smooth="yes"/>
      <point x="-537" y="935"/>
      <point x="-553" y="919"/>
      <point x="-553" y="899" type="curve" smooth="yes"/>
      <point x="-553" y="879"/>
      <point x="-537" y="862"/>
      <point x="-519" y="862" type="curve" smooth="yes"/>
      <point x="-497" y="862"/>
      <point x="-481" y="879"/>
    </contour>
    <contour>
      <point x="382" y="38" type="curve" smooth="yes"/>
      <point x="382" y="56"/>
      <point x="364" y="72"/>
      <point x="344" y="72" type="curve" smooth="yes"/>
      <point x="325" y="72"/>
      <point x="308" y="56"/>
      <point x="308" y="38" type="curve" smooth="yes"/>
      <point x="308" y="16"/>
      <point x="325" y="0"/>
      <point x="344" y="0" type="curve" smooth="yes"/>
      <point x="364" y="0"/>
      <point x="382" y="16"/>
    </contour>
    <contour>
      <point x="-47" y="497" type="line"/>
      <point x="134" y="497" type="line" smooth="yes"/>
      <point x="142" y="497"/>
      <point x="147" y="503"/>
      <point x="147" y="509" type="curve" smooth="yes"/>
      <point x="147" y="515"/>
      <point x="142" y="521"/>
      <point x="134" y="521" type="curve" smooth="yes"/>
      <point x="-59" y="521" type="line" smooth="yes"/>
      <point x="-66" y="521"/>
      <point x="-70" y="513"/>
      <point x="-70" y="508" type="curve" smooth="yes"/>
      <point x="-70" y="160" type="line" smooth="yes"/>
      <point x="-70" y="153"/>
      <point x="-65" y="149"/>
      <point x="-59" y="149" type="curve" smooth="yes"/>
      <point x="-53" y="149"/>
      <point x="-47" y="153"/>
      <point x="-47" y="160" type="curve" smooth="yes"/>
      <point x="-47" y="323" type="line"/>
      <point x="94" y="323" type="line" smooth="yes"/>
      <point x="101" y="323"/>
      <point x="104" y="329"/>
      <point x="104" y="333" type="curve" smooth="yes"/>
      <point x="104" y="339"/>
      <point x="101" y="344"/>
      <point x="94" y="344" type="curve" smooth="yes"/>
      <point x="-47" y="344" type="line"/>
    </contour>
    <contour>
      <point x="-481" y="728" type="curve" smooth="yes"/>
      <point x="-481" y="746"/>
      <point x="-497" y="764"/>
      <point x="-519" y="764" type="curve" smooth="yes"/>
      <point x="-537" y="764"/>
      <point x="-553" y="746"/>
      <point x="-553" y="728" type="curve" smooth="yes"/>
      <point x="-553" y="706"/>
      <point x="-537" y="690"/>
      <point x="-519" y="690" type="curve" smooth="yes"/>
      <point x="-497" y="690"/>
      <point x="-481" y="706"/>
    </contour>
    <contour>
      <point x="209" y="38" type="curve" smooth="yes"/>
      <point x="209" y="56"/>
      <point x="193" y="72"/>
      <point x="172" y="72" type="curve" smooth="yes"/>
      <point x="153" y="72"/>
      <point x="137" y="56"/>
      <point x="137" y="38" type="curve" smooth="yes"/>
      <point x="137" y="16"/>
      <point x="153" y="0"/>
      <point x="172" y="0" type="curve" smooth="yes"/>
      <point x="193" y="0"/>
      <point x="209" y="16"/>
    </contour>
    <contour>
      <point x="-114" y="160" type="curve"/>
      <point x="-115" y="164" type="line"/>
      <point x="-241" y="511" type="line" smooth="yes"/>
      <point x="-243" y="519"/>
      <point x="-247" y="522"/>
      <point x="-251" y="522" type="curve" smooth="yes"/>
      <point x="-256" y="522"/>
      <point x="-259" y="519"/>
      <point x="-261" y="513" type="curve" smooth="yes"/>
      <point x="-400" y="164" type="line"/>
      <point x="-400" y="163"/>
      <point x="-400" y="162"/>
      <point x="-400" y="161" type="curve" smooth="yes"/>
      <point x="-400" y="154"/>
      <point x="-395" y="151"/>
      <point x="-389" y="151" type="curve" smooth="yes"/>
      <point x="-384" y="151"/>
      <point x="-380" y="153"/>
      <point x="-377" y="158" type="curve" smooth="yes"/>
      <point x="-326" y="294" type="line"/>
      <point x="-187" y="294" type="line"/>
      <point x="-137" y="158" type="line" smooth="yes"/>
      <point x="-135" y="153"/>
      <point x="-130" y="151"/>
      <point x="-126" y="151" type="curve" smooth="yes"/>
      <point x="-120" y="151"/>
      <point x="-114" y="154"/>
    </contour>
    <contour>
      <point x="-481" y="553" type="curve" smooth="yes"/>
      <point x="-481" y="575"/>
      <point x="-497" y="591"/>
      <point x="-519" y="591" type="curve" smooth="yes"/>
      <point x="-537" y="591"/>
      <point x="-553" y="575"/>
      <point x="-553" y="553" type="curve" smooth="yes"/>
      <point x="-553" y="535"/>
      <point x="-537" y="519"/>
      <point x="-519" y="519" type="curve" smooth="yes"/>
      <point x="-497" y="519"/>
      <point x="-481" y="535"/>
    </contour>
    <contour>
      <point x="38" y="38" type="curve" smooth="yes"/>
      <point x="38" y="56"/>
      <point x="20" y="72"/>
      <point x="0" y="72" type="curve" smooth="yes"/>
      <point x="-21" y="72"/>
      <point x="-38" y="56"/>
      <point x="-38" y="38" type="curve" smooth="yes"/>
      <point x="-38" y="16"/>
      <point x="-21" y="0"/>
      <point x="0" y="0" type="curve" smooth="yes"/>
      <point x="20" y="0"/>
      <point x="38" y="16"/>
    </contour>
    <contour>
      <point x="-481" y="382" type="curve" smooth="yes"/>
      <point x="-481" y="402"/>
      <point x="-497" y="420"/>
      <point x="-519" y="420" type="curve" smooth="yes"/>
      <point x="-537" y="420"/>
      <point x="-553" y="402"/>
      <point x="-553" y="382" type="curve" smooth="yes"/>
      <point x="-553" y="362"/>
      <point x="-537" y="344"/>
      <point x="-519" y="344" type="curve" smooth="yes"/>
      <point x="-497" y="344"/>
      <point x="-481" y="362"/>
    </contour>
    <contour>
      <point x="-137" y="38" type="curve" smooth="yes"/>
      <point x="-137" y="56"/>
      <point x="-153" y="72"/>
      <point x="-173" y="72" type="curve" smooth="yes"/>
      <point x="-193" y="72"/>
      <point x="-210" y="56"/>
      <point x="-210" y="38" type="curve" smooth="yes"/>
      <point x="-210" y="16"/>
      <point x="-193" y="0"/>
      <point x="-173" y="0" type="curve" smooth="yes"/>
      <point x="-153" y="0"/>
      <point x="-137" y="16"/>
    </contour>
    <contour>
      <point x="-481" y="209" type="curve" smooth="yes"/>
      <point x="-481" y="229"/>
      <point x="-497" y="245"/>
      <point x="-519" y="245" type="curve" smooth="yes"/>
      <point x="-537" y="245"/>
      <point x="-553" y="229"/>
      <point x="-553" y="209" type="curve" smooth="yes"/>
      <point x="-553" y="189"/>
      <point x="-537" y="172"/>
      <point x="-519" y="172" type="curve" smooth="yes"/>
      <point x="-497" y="172"/>
      <point x="-481" y="189"/>
    </contour>
    <contour>
      <point x="-308" y="38" type="curve" smooth="yes"/>
      <point x="-308" y="56"/>
      <point x="-326" y="72"/>
      <point x="-344" y="72" type="curve" smooth="yes"/>
      <point x="-365" y="72"/>
      <point x="-382" y="56"/>
      <point x="-382" y="38" type="curve" smooth="yes"/>
      <point x="-382" y="16"/>
      <point x="-365" y="0"/>
      <point x="-344" y="0" type="curve" smooth="yes"/>
      <point x="-326" y="0"/>
      <point x="-308" y="16"/>
    </contour>
    <contour>
      <point x="-481" y="38" type="curve" smooth="yes"/>
      <point x="-481" y="56"/>
      <point x="-497" y="72"/>
      <point x="-519" y="72" type="curve" smooth="yes"/>
      <point x="-537" y="72"/>
      <point x="-553" y="56"/>
      <point x="-553" y="38" type="curve" smooth="yes"/>
      <point x="-553" y="16"/>
      <point x="-537" y="0"/>
      <point x="-519" y="0" type="curve" smooth="yes"/>
      <point x="-497" y="0"/>
      <point x="-481" y="16"/>
    </contour>
    <contour>
      <point x="-252" y="476" type="line"/>
      <point x="-193" y="315" type="line"/>
      <point x="-315" y="315" type="line"/>
    </contour>
  </outline>
</glyph>
<glyph name="Euro" format="2">
  <advance width="1026"/>
  <unicode hex="20AC"/>
  <outline>
    <contour>
      <point x="232" y="572" type="curve"/>
      <point x="722" y="572" type="line"/>
      <point x="742" y="655" type="line"/>
      <point x="230" y="655" type="line"/>
      <point x="230" y="657" type="line"/>
      <point x="230" y="681"/>
      <point x="230" y="704"/>
      <point x="231" y="727" type="curve"/>
      <point x="758" y="727" type="line"/>
      <point x="779" y="812" type="line"/>
      <point x="237" y="812" type="line"/>
      <point x="268" y="1157"/>
      <point x="404" y="1318"/>
      <point x="585" y="1318" type="curve" smooth="yes"/>
      <point x="739" y="1318"/>
      <point x="858" y="1204"/>
      <point x="920" y="927" type="curve"/>
      <point x="943" y="927" type="line"/>
      <point x="920" y="1389" type="line"/>
      <point x="892" y="1389" type="line"/>
      <point x="882" y="1325"/>
      <point x="858" y="1294"/>
      <point x="831" y="1294" type="curve" smooth="yes"/>
      <point x="800" y="1294"/>
      <point x="724" y="1389"/>
      <point x="573" y="1389" type="curve" smooth="yes"/>
      <point x="305" y="1389"/>
      <point x="117" y="1136"/>
      <point x="72" y="812" type="curve"/>
      <point x="-39" y="812" type="line"/>
      <point x="-59" y="727" type="line"/>
      <point x="63" y="727" type="line"/>
      <point x="61" y="704"/>
      <point x="61" y="681"/>
      <point x="61" y="658" type="curve" smooth="yes"/>
      <point x="61" y="655" type="line"/>
      <point x="-39" y="655" type="line"/>
      <point x="-59" y="572" type="line"/>
      <point x="64" y="572" type="line"/>
      <point x="90" y="239"/>
      <point x="266" y="-32"/>
      <point x="550" y="-32" type="curve" smooth="yes"/>
      <point x="737" y="-32"/>
      <point x="865" y="80"/>
      <point x="965" y="319" type="curve"/>
      <point x="943" y="339" type="line"/>
      <point x="825" y="113"/>
      <point x="737" y="57"/>
      <point x="606" y="57" type="curve" smooth="yes"/>
      <point x="397" y="57"/>
      <point x="253" y="238"/>
    </contour>
  </outline>
</glyph>
<glyph name="euro" format="2">
  <advance width="1254"/>
  <unicode hex="20AC"/>
  <outline>
    <contour>
      <point x="1150" y="283" type="line"/>
      <point x="1057" y="146"/>
      <point x="957" y="57"/>
      <point x="805" y="57" type="curve" smooth="yes"/>
      <point x="539" y="57"/>
      <point x="410" y="245"/>
      <point x="376" y="500" type="curve"/>
      <point x="895" y="500" type="line"/>
      <point x="936" y="598" type="line"/>
      <point x="367" y="598" type="line"/>
      <point x="364" y="619"/>
      <point x="364" y="641"/>
      <point x="364" y="662" type="curve" smooth="yes"/>
      <point x="364" y="684"/>
      <point x="364" y="706"/>
      <point x="367" y="727" type="curve"/>
      <point x="970" y="727" type="line"/>
      <point x="1010" y="825" type="line"/>
      <point x="376" y="825" type="line"/>
      <point x="402" y="1078"/>
      <point x="500" y="1307"/>
      <point x="776" y="1307" type="curve" smooth="yes"/>
      <point x="941" y="1307"/>
      <point x="1068" y="1160"/>
      <point x="1122" y="987" type="curve"/>
      <point x="1150" y="987" type="line"/>
      <point x="1127" y="1378" type="line"/>
      <point x="1091" y="1378" type="line"/>
      <point x="1073" y="1304"/>
      <point x="1031" y="1287"/>
      <point x="1005" y="1287" type="curve" smooth="yes"/>
      <point x="996" y="1287"/>
      <point x="921" y="1378"/>
      <point x="759" y="1378" type="curve" smooth="yes"/>
      <point x="441" y="1378"/>
      <point x="213" y="1142"/>
      <point x="154" y="825" type="curve"/>
      <point x="40" y="825" type="line"/>
      <point x="0" y="727" type="line"/>
      <point x="139" y="727" type="line"/>
      <point x="137" y="705"/>
      <point x="137" y="682"/>
      <point x="137" y="661" type="curve" smooth="yes"/>
      <point x="137" y="640"/>
      <point x="137" y="618"/>
      <point x="139" y="598" type="curve"/>
      <point x="44" y="598" type="line"/>
      <point x="2" y="500" type="line"/>
      <point x="151" y="500" type="line"/>
      <point x="209" y="189"/>
      <point x="433" y="-33"/>
      <point x="730" y="-33" type="curve" smooth="yes"/>
      <point x="970" y="-33"/>
      <point x="1070" y="67"/>
      <point x="1181" y="262" type="curve"/>
    </contour>
  </outline>
</glyph>
<glyph name="summation" format="2">
  <advance width="1240"/>
  <unicode hex="2211"/>
  <outline>
    <contour>
      <point x="1196" y="364" type="line"/>
      <point x="1160" y="364" type="line"/>
      <point x="1141" y="238"/>
      <point x="1086" y="177"/>
      <point x="995" y="177" type="curve" smooth="yes"/>
      <point x="368" y="177" type="line"/>
      <point x="915" y="723" type="line"/>
      <point x="350" y="1284" type="line"/>
      <point x="817" y="1284" type="line"/>
      <point x="979" y="1284"/>
      <point x="1129" y="1146"/>
      <point x="1157" y="988" type="curve"/>
      <point x="1192" y="988" type="line"/>
      <point x="1147" y="1348" type="line"/>
      <point x="66" y="1348" type="line"/>
      <point x="726" y="690" type="line"/>
      <point x="66" y="22" type="line"/>
      <point x="66" y="0" type="line"/>
      <point x="1160" y="0" type="line"/>
    </contour>
  </outline>
</glyph>
<glyph name="minus" format="2">
  <advance width="682"/>
  <unicode hex="2212"/>
  <anchor x="343" y="1000" name="U"/>
  <outline>
    <contour>
      <point x="83" y="382" type="line"/>
      <point x="600" y="382" type="line"/>
      <point x="600" y="535" type="line"/>
      <point x="83" y="535" type="line"/>
    </contour>
  </outline>
</glyph>
<glyph name="radical" format="2">
  <advance width="1444"/>
  <unicode hex="221A"/>
  <outline>
    <contour>
      <point x="144" y="880" type="line"/>
      <point x="292" y="954" type="line"/>
      <point x="814" y="-73" type="line"/>
      <point x="886" y="-73" type="line"/>
      <point x="1324" y="1543" type="line"/>
      <point x="1444" y="1543" type="line"/>
      <point x="1444" y="1616" type="line"/>
      <point x="1251" y="1616" type="line"/>
      <point x="867" y="198" type="line"/>
      <point x="401" y="1106" type="line"/>
      <point x="103" y="952" type="line"/>
    </contour>
  </outline>
</glyph>
<glyph name="approxequal" format="2">
  <advance width="1703"/>
  <unicode hex="2248"/>
  <outline>
    <contour>
      <point x="264" y="609" type="line"/>
      <point x="317" y="662"/>
      <point x="363" y="699"/>
      <point x="398" y="719" type="curve" smooth="yes"/>
      <point x="447" y="746"/>
      <point x="500" y="760"/>
      <point x="559" y="759" type="curve" smooth="yes"/>
      <point x="632" y="757"/>
      <point x="723" y="738"/>
      <point x="833" y="699" type="curve" smooth="yes"/>
      <point x="919" y="668"/>
      <point x="963" y="654"/>
      <point x="968" y="653" type="curve" smooth="yes"/>
      <point x="1010" y="644"/>
      <point x="1056" y="638"/>
      <point x="1103" y="634" type="curve" smooth="yes"/>
      <point x="1120" y="633"/>
      <point x="1140" y="634"/>
      <point x="1161" y="638" type="curve" smooth="yes"/>
      <point x="1260" y="649"/>
      <point x="1354" y="691"/>
      <point x="1439" y="764" type="curve"/>
      <point x="1439" y="899" type="line"/>
      <point x="1331" y="804"/>
      <point x="1226" y="754"/>
      <point x="1129" y="754" type="curve" smooth="yes"/>
      <point x="1078" y="754"/>
      <point x="1020" y="764"/>
      <point x="955" y="784" type="curve" smooth="yes"/>
      <point x="895" y="803"/>
      <point x="833" y="823"/>
      <point x="773" y="847" type="curve" smooth="yes"/>
      <point x="695" y="873"/>
      <point x="625" y="884"/>
      <point x="563" y="877" type="curve" smooth="yes"/>
      <point x="481" y="871"/>
      <point x="414" y="853"/>
      <point x="361" y="823" type="curve" smooth="yes"/>
      <point x="332" y="806"/>
      <point x="299" y="781"/>
      <point x="264" y="745" type="curve"/>
    </contour>
    <contour>
      <point x="264" y="279" type="line"/>
      <point x="317" y="332"/>
      <point x="363" y="369"/>
      <point x="398" y="389" type="curve" smooth="yes"/>
      <point x="447" y="416"/>
      <point x="500" y="430"/>
      <point x="559" y="429" type="curve" smooth="yes"/>
      <point x="632" y="427"/>
      <point x="723" y="408"/>
      <point x="833" y="369" type="curve" smooth="yes"/>
      <point x="919" y="338"/>
      <point x="963" y="324"/>
      <point x="968" y="323" type="curve" smooth="yes"/>
      <point x="1010" y="314"/>
      <point x="1056" y="308"/>
      <point x="1103" y="304" type="curve" smooth="yes"/>
      <point x="1120" y="303"/>
      <point x="1140" y="304"/>
      <point x="1161" y="308" type="curve" smooth="yes"/>
      <point x="1260" y="319"/>
      <point x="1354" y="361"/>
      <point x="1439" y="434" type="curve"/>
      <point x="1439" y="569" type="line"/>
      <point x="1331" y="474"/>
      <point x="1226" y="424"/>
      <point x="1129" y="424" type="curve" smooth="yes"/>
      <point x="1078" y="424"/>
      <point x="1020" y="434"/>
      <point x="955" y="454" type="curve" smooth="yes"/>
      <point x="895" y="473"/>
      <point x="833" y="493"/>
      <point x="773" y="517" type="curve" smooth="yes"/>
      <point x="697" y="547"/>
      <point x="627" y="556"/>
      <point x="563" y="547" type="curve" smooth="yes"/>
      <point x="482" y="534"/>
      <point x="415" y="515"/>
      <point x="361" y="493" type="curve" smooth="yes"/>
      <point x="331" y="480"/>
      <point x="298" y="454"/>
      <point x="264" y="415" type="curve"/>
    </contour>
  </outline>
</glyph>
<glyph name="notequal" format="2">
  <advance width="1307"/>
  <unicode hex="2260"/>
  <outline>
    <contour>
      <point x="66" y="706" type="line"/>
      <point x="1241" y="706" type="line"/>
      <point x="1241" y="814" type="line"/>
      <point x="66" y="814" type="line"/>
    </contour>
    <contour>
      <point x="278" y="132" type="line"/>
      <point x="1111" y="962" type="line"/>
      <point x="1029" y="1043" type="line"/>
      <point x="196" y="215" type="line"/>
    </contour>
    <contour>
      <point x="66" y="363" type="line"/>
      <point x="1241" y="363" type="line"/>
      <point x="1241" y="470" type="line"/>
      <point x="66" y="470" type="line"/>
    </contour>
  </outline>
</glyph>
<glyph name="lessequal" format="2">
  <advance width="1960"/>
  <unicode hex="2264"/>
  <outline>
    <contour>
      <point x="1568" y="229" type="line"/>
      <point x="1568" y="350" type="line"/>
      <point x="517" y="662" type="line"/>
      <point x="1568" y="974" type="line"/>
      <point x="1568" y="1095" type="line"/>
      <point x="391" y="723" type="line"/>
      <point x="391" y="601" type="line"/>
    </contour>
    <contour>
      <point x="1568" y="0" type="line"/>
      <point x="1568" y="107" type="line"/>
      <point x="391" y="107" type="line"/>
      <point x="391" y="0" type="line"/>
    </contour>
  </outline>
</glyph>
<glyph name="fi" format="2">
  <advance width="1182"/>
  <unicode hex="FB01"/>
  <outline>
    <contour>
      <point x="114" y="0" type="line"/>
      <point x="566" y="0" type="line"/>
      <point x="566" y="37" type="line"/>
      <point x="441" y="37"/>
      <point x="421" y="52"/>
      <point x="421" y="205" type="curve" smooth="yes"/>
      <point x="421" y="838" type="line"/>
      <point x="655" y="838" type="line" smooth="yes"/>
      <point x="732" y="838"/>
      <point x="767" y="838"/>
      <point x="805" y="798" type="curve" smooth="yes"/>
      <point x="823" y="777"/>
      <point x="832" y="697"/>
      <point x="832" y="556" type="curve" smooth="yes"/>
      <point x="832" y="205" type="line" smooth="yes"/>
      <point x="832" y="60"/>
      <point x="803" y="37"/>
      <point x="685" y="37" type="curve"/>
      <point x="685" y="0" type="line"/>
      <point x="1136" y="0" type="line"/>
      <point x="1136" y="37" type="line"/>
      <point x="1014" y="37"/>
      <point x="998" y="79"/>
      <point x="998" y="205" type="curve" smooth="yes"/>
      <point x="998" y="936" type="line"/>
      <point x="955" y="936" type="line"/>
      <point x="891" y="910" type="line"/>
      <point x="421" y="910" type="line"/>
      <point x="421" y="1126"/>
      <point x="427" y="1207"/>
      <point x="462" y="1272" type="curve" smooth="yes"/>
      <point x="484" y="1314"/>
      <point x="521" y="1339"/>
      <point x="578" y="1339" type="curve" smooth="yes"/>
      <point x="622" y="1339"/>
      <point x="660" y="1311"/>
      <point x="694" y="1274" type="curve" smooth="yes"/>
      <point x="705" y="1265"/>
      <point x="715" y="1252"/>
      <point x="726" y="1241" type="curve" smooth="yes"/>
      <point x="764" y="1201"/>
      <point x="800" y="1161"/>
      <point x="845" y="1161" type="curve" smooth="yes"/>
      <point x="888" y="1161"/>
      <point x="926" y="1206"/>
      <point x="926" y="1243" type="curve" smooth="yes"/>
      <point x="926" y="1333"/>
      <point x="786" y="1413"/>
      <point x="668" y="1413" type="curve" smooth="yes"/>
      <point x="426" y="1413"/>
      <point x="255" y="1279"/>
      <point x="255" y="910" type="curve"/>
      <point x="74" y="910" type="line"/>
      <point x="74" y="838" type="line"/>
      <point x="255" y="838" type="line"/>
      <point x="255" y="205" type="line" smooth="yes"/>
      <point x="255" y="60"/>
      <point x="232" y="37"/>
      <point x="114" y="37" type="curve"/>
    </contour>
  </outline>
</glyph>
<glyph name="fl" format="2">
  <advance width="1190"/>
  <unicode hex="FB02"/>
  <outline>
    <contour>
      <point x="114" y="0" type="line"/>
      <point x="566" y="0" type="line"/>
      <point x="566" y="37" type="line"/>
      <point x="438" y="37"/>
      <point x="421" y="72"/>
      <point x="421" y="205" type="curve" smooth="yes"/>
      <point x="421" y="838" type="line"/>
      <point x="832" y="838" type="line"/>
      <point x="832" y="205" type="line" smooth="yes"/>
      <point x="832" y="71"/>
      <point x="817" y="37"/>
      <point x="699" y="37" type="curve"/>
      <point x="699" y="0" type="line"/>
      <point x="1147" y="0" type="line"/>
      <point x="1147" y="37" type="line"/>
      <point x="1019" y="37"/>
      <point x="998" y="73"/>
      <point x="998" y="205" type="curve" smooth="yes"/>
      <point x="998" y="1413" type="line"/>
      <point x="956" y="1413" type="line"/>
      <point x="826" y="1367" type="line"/>
      <point x="772" y="1398"/>
      <point x="714" y="1413"/>
      <point x="655" y="1413" type="curve" smooth="yes"/>
      <point x="493" y="1413"/>
      <point x="254" y="1312"/>
      <point x="254" y="971" type="curve" smooth="yes"/>
      <point x="254" y="910" type="line"/>
      <point x="75" y="910" type="line"/>
      <point x="75" y="838" type="line"/>
      <point x="254" y="838" type="line"/>
      <point x="254" y="205" type="line" smooth="yes"/>
      <point x="254" y="60"/>
      <point x="232" y="37"/>
      <point x="114" y="37" type="curve"/>
    </contour>
    <contour>
      <point x="421" y="910" type="line"/>
      <point x="421" y="1107"/>
      <point x="431" y="1200"/>
      <point x="452" y="1254" type="curve" smooth="yes"/>
      <point x="475" y="1311"/>
      <point x="516" y="1339"/>
      <point x="577" y="1339" type="curve" smooth="yes"/>
      <point x="604" y="1339"/>
      <point x="643" y="1332"/>
      <point x="682" y="1290" type="curve" smooth="yes"/>
      <point x="695" y="1276"/>
      <point x="703" y="1258"/>
      <point x="717" y="1238" type="curve" smooth="yes"/>
      <point x="757" y="1182"/>
      <point x="782" y="1161"/>
      <point x="830" y="1161" type="curve"/>
      <point x="832" y="910" type="line"/>
    </contour>
  </outline>
</glyph>
<glyph name="ligRahmatuAllahiAlayhimaa" format="2">
  <advance width="2860"/>
  <unicode hex="FBC7"/>
  <guideline x="2165" y="2222" angle="0"/>
  <outline>
    <component base="absReh" xScale="0.55" yScale="0.65" xOffset="2251" yOffset="57"/>
    <component base="absAlef_allah" xScale="0.6" yScale="0.65" xOffset="2343" yOffset="1107"/>
    <component base="absLamIni_allah1" xScale="0.6" yScale="0.6" xOffset="1907" yOffset="1025"/>
    <component base="_Allah_lah" xScale="0.55" yScale="0.55" xOffset="1143" yOffset="1146"/>
    <component base="_shadda_kharizabar_allah" xScale="0.6" yScale="0.6" xOffset="1886" yOffset="2018"/>
    <component base="absJeemIni.mm" xScale="0.6" yScale="0.6" xOffset="2184" yOffset="24"/>
    <component base="_dot2l" xScale="0.5" yScale="0.5" xOffset="1026" yOffset="361"/>
    <component base="absBehMed.hgM" xScale="0.6" yScale="0.6" xOffset="701" yOffset="358"/>
    <component base="_hehHook.small" xScale="0.55" yScale="0.55" xOffset="594" yOffset="109"/>
    <component base="absAlefFin" xScale="0.6" yScale="0.6" xOffset="53" yOffset="255"/>
    <component base="absHehGoalMed.mmX" xScale="0.6" yScale="0.6" xOffset="350" yOffset="158"/>
    <component base="absMeemMed._alt" xScale="0.6" yScale="0.6" xOffset="213" yOffset="207"/>
    <contour>
      <point x="2402" y="495" type="curve" smooth="yes"/>
      <point x="2430" y="523"/>
      <point x="2461" y="575"/>
      <point x="2461" y="619" type="curve" smooth="yes"/>
      <point x="2461" y="688"/>
      <point x="2329" y="744"/>
      <point x="2311" y="751" type="curve" smooth="yes"/>
      <point x="2297" y="757"/>
      <point x="2184" y="652"/>
      <point x="2184" y="627" type="curve" smooth="yes"/>
      <point x="2184" y="608"/>
      <point x="2196" y="592"/>
      <point x="2219" y="580" type="curve"/>
      <point x="2132" y="572"/>
      <point x="1715" y="-10"/>
      <point x="1427" y="-10" type="curve" smooth="yes"/>
      <point x="1049" y="-10"/>
      <point x="1023" y="68"/>
      <point x="808" y="68" type="curve" smooth="yes"/>
      <point x="761" y="68"/>
      <point x="700" y="-115"/>
      <point x="740" y="-115" type="curve" smooth="yes"/>
      <point x="956" y="-115"/>
      <point x="1106" y="-204"/>
      <point x="1374" y="-204" type="curve" smooth="yes"/>
      <point x="1719" y="-204"/>
      <point x="2125" y="514"/>
      <point x="2276" y="514" type="curve" smooth="yes"/>
      <point x="2340" y="514"/>
      <point x="2376" y="468"/>
    </contour>
    <contour>
      <point x="808" y="68" type="curve" smooth="yes"/>
      <point x="699" y="68"/>
      <point x="600" y="14"/>
      <point x="487" y="-237" type="curve" smooth="yes"/>
      <point x="483" y="-244"/>
      <point x="498" y="-250"/>
      <point x="502" y="-245" type="curve" smooth="yes"/>
      <point x="592" y="-141"/>
      <point x="682" y="-115"/>
      <point x="740" y="-115" type="curve" smooth="yes"/>
      <point x="789" y="-115"/>
      <point x="836" y="68"/>
    </contour>
    <contour>
      <point x="1674" y="868" type="curve" smooth="yes"/>
      <point x="1616" y="792"/>
      <point x="1603" y="747"/>
      <point x="1603" y="718" type="curve" smooth="yes"/>
      <point x="1603" y="669"/>
      <point x="1631" y="625"/>
      <point x="1714" y="607" type="curve"/>
      <point x="1721" y="612"/>
      <point x="1886" y="750"/>
      <point x="1906" y="772" type="curve"/>
      <point x="1897" y="767"/>
      <point x="1887" y="763"/>
      <point x="1880" y="761" type="curve" smooth="yes"/>
      <point x="1799" y="736"/>
      <point x="1731" y="795"/>
      <point x="1731" y="869" type="curve" smooth="yes"/>
      <point x="1731" y="894"/>
      <point x="1766" y="960"/>
      <point x="1827" y="960" type="curve" smooth="yes"/>
      <point x="1883" y="960"/>
      <point x="1896" y="931"/>
      <point x="1933" y="931" type="curve" smooth="yes"/>
      <point x="2006" y="931"/>
      <point x="2002" y="1042"/>
      <point x="1885" y="1042" type="curve" smooth="yes"/>
      <point x="1804" y="1042"/>
      <point x="1726" y="938"/>
    </contour>
    <contour>
      <point x="1348" y="478" type="curve" smooth="yes"/>
      <point x="1555" y="478"/>
      <point x="1951" y="664"/>
      <point x="2002" y="824" type="curve" smooth="yes"/>
      <point x="2005" y="834"/>
      <point x="1991" y="843"/>
      <point x="1987" y="833" type="curve" smooth="yes"/>
      <point x="1951" y="742"/>
      <point x="1568" y="682"/>
      <point x="1417" y="682" type="curve" smooth="yes"/>
      <point x="1230" y="682"/>
      <point x="1164" y="809"/>
      <point x="1158" y="968" type="curve" smooth="yes"/>
      <point x="1156" y="1018"/>
      <point x="1093" y="925"/>
      <point x="1097" y="871" type="curve" smooth="yes"/>
      <point x="1114" y="676"/>
      <point x="1159" y="478"/>
    </contour>
    <contour>
      <point x="1010" y="707" type="curve" smooth="yes"/>
      <point x="1058" y="707"/>
      <point x="1083" y="803"/>
      <point x="1125" y="876" type="curve"/>
      <point x="1135" y="851"/>
      <point x="1129" y="776"/>
      <point x="1165" y="780" type="curve" smooth="yes"/>
      <point x="1192" y="783"/>
      <point x="1158" y="865"/>
      <point x="1158" y="926" type="curve" smooth="yes"/>
      <point x="1158" y="952"/>
      <point x="1158" y="1120"/>
      <point x="1158" y="1148" type="curve" smooth="yes"/>
      <point x="1158" y="1241"/>
      <point x="1158" y="1317"/>
      <point x="1163" y="1452" type="curve" smooth="yes"/>
      <point x="1167" y="1543"/>
      <point x="1181" y="1570"/>
      <point x="1186" y="1588" type="curve" smooth="yes"/>
      <point x="1189" y="1598"/>
      <point x="1178" y="1628"/>
      <point x="1166" y="1615" type="curve" smooth="yes"/>
      <point x="1142" y="1588"/>
      <point x="1083" y="1493"/>
      <point x="1077" y="1393" type="curve" smooth="yes"/>
      <point x="1067" y="1207"/>
      <point x="1074" y="1105"/>
      <point x="1073" y="971" type="curve" smooth="yes"/>
      <point x="1071" y="856"/>
      <point x="1052" y="836"/>
      <point x="1025" y="836" type="curve" smooth="yes"/>
      <point x="986" y="836"/>
      <point x="944" y="877"/>
      <point x="910" y="887" type="curve" smooth="yes"/>
      <point x="888" y="894"/>
      <point x="888" y="758"/>
      <point x="910" y="752" type="curve" smooth="yes"/>
      <point x="936" y="744"/>
      <point x="983" y="707"/>
    </contour>
  </outline>
</glyph>
